BorgSansMonoi.sfdir
StartChar: exclam
Encoding: 33 33 4
Width: 1229
GlyphClass: 2
Flags: W
LayerCount: 2
Fore
SplineSet
718.808817499 409 m 1,0,-1
 595.983089291 409 l 1,1,-1
 792.843776314 1467 l 1,2,-1
 1010.56645109 1467 l 1,3,-1
 718.808817499 409 l 1,0,-1
619 255 m 0,4,5
 716.826666667 255 716.826666667 255 716.826666667 163.980622222 c 0,6,7
 716.826666667 140.081303919 716.826666667 140.081303919 709.874521356 109.882922728 c 0,8,9
 676.986996161 -34 676.986996161 -34 555 -34 c 0,10,11
 457.173333333 -34 457.173333333 -34 457.173333333 57.6382222222 c 0,12,13
 457.173333333 81.7014143604 457.173333333 81.7014143604 464.127212245 112.124634598 c 0,14,15
 480.422199155 182.90598399 480.422199155 182.90598399 519.211099578 218.952991995 c 128,-1,16
 558 255 558 255 619 255 c 0,4,5
EndSplineSet
Substitution2: "Single Substitution lookup 9 subtable" exclam_equal
Substitution2: "Single Substitution lookup 4 subtable" exclam_equal_equal
EndChar
StartChar: quotedbl
Encoding: 34 34 5
Width: 1229
GlyphClass: 2
Flags: W
LayerCount: 2
Fore
SplineSet
660.71040002 929 m 1,0,-1
 507.141039099 929 l 1,1,-1
 592.73194819 1467 l 1,2,-1
 826.989041876 1467 l 1,3,-1
 660.71040002 929 l 1,0,-1
906.904160814 929 m 1,4,-1
 994.723966857 1467 l 1,5,-1
 1226.74070305 1467 l 1,6,-1
 1063.71040002 929 l 1,7,-1
 906.904160814 929 l 1,4,-1
EndSplineSet
EndChar
StartChar: numbersign
Encoding: 35 35 6
Width: 1229
GlyphClass: 2
Flags: W
LayerCount: 2
Fore
SplineSet
1354.30338526 1035 m 1,0,-1
 1319.96761884 888 l 1,1,-1
 1089.08293957 888 l 1,2,-1
 956.3785361 570 l 1,3,-1
 1180.30338526 570 l 1,4,-1
 1145.96761884 423 l 1,5,-1
 895.435150746 423 l 1,6,-1
 718.001357146 -5 l 1,7,-1
 567.093839358 -5 l 1,8,-1
 746.555447742 423 l 1,9,-1
 483.788749594 423 l 1,10,-1
 307.358277433 -5 l 1,11,-1
 162.601129156 -5 l 1,12,-1
 334.601129156 423 l 1,13,-1
 133.741310366 423 l 1,14,-1
 167.004084089 570 l 1,15,-1
 394.87037396 570 l 1,16,-1
 528.557773013 888 l 1,17,-1
 311.741310366 888 l 1,18,-1
 345.004084089 1035 l 1,19,-1
 588.503953798 1035 l 1,20,-1
 766.95165479 1467 l 1,21,-1
 916.806954518 1467 l 1,22,-1
 738.359253526 1035 l 1,23,-1
 1004.21328854 1035 l 1,24,-1
 1182.64434582 1467 l 1,25,-1
 1327.46884181 1467 l 1,26,-1
 1149.46884181 1035 l 1,27,-1
 1354.30338526 1035 l 1,0,-1
677.436538419 888 m 1,28,-1
 544.732134948 570 l 1,29,-1
 808.535025197 570 l 1,30,-1
 941.239428669 888 l 1,31,-1
 677.436538419 888 l 1,28,-1
EndSplineSet
EndChar
StartChar: dollar
Encoding: 36 36 7
Width: 600
GlyphClass: 2
Flags: W
LayerCount: 2
Fore
SplineSet
519 322 m 0,0,1
 537 296 537 296 538 259 c 0,2,3
 538 240 538 240 532 218 c 0,4,5
 500 81 500 81 328 54 c 1,6,-1
 302 -58 l 1,7,-1
 233 -58 l 1,8,-1
 259 49 l 1,9,10
 156 49 156 49 102 84 c 2,11,-1
 100 84 l 1,12,-1
 121 173 l 1,13,-1
 124 171 l 2,14,15
 201 127 201 127 277 127 c 1,16,-1
 325 334 l 1,17,18
 244 365 244 365 218 404 c 0,19,20
 201 429 201 429 201 466 c 0,21,22
 201 488 201 488 206.5 511 c 128,-1,23
 212 534 212 534 221 553 c 0,24,25
 240 591 240 591 275 619 c 0,26,27
 327 661 327 661 405 671 c 1,28,-1
 426 759 l 1,29,-1
 495 759 l 1,30,-1
 475 673 l 1,31,32
 558 668 558 668 617 635 c 2,33,-1
 619 634 l 1,34,-1
 570 560 l 1,35,36
 513 590 513 590 456 595 c 1,37,-1
 408 394 l 1,38,39
 491 361 491 361 519 322 c 0,0,1
290.5 495.5 m 128,-1,41
 290 489 290 489 290 482.5 c 128,-1,42
 290 476 290 476 292 468.5 c 128,-1,43
 294 461 294 461 298 454 c 0,44,45
 311 434 311 434 346 420 c 1,46,-1
 387 594 l 1,47,48
 309 579 309 579 293 512 c 0,49,40
 291 502 291 502 290.5 495.5 c 128,-1,41
388 307 m 1,50,-1
 347 131 l 1,51,52
 431 145 431 145 447 218 c 0,53,54
 449 227 449 227 449 236 c 0,55,56
 450 282 450 282 388 307 c 1,50,-1
EndSplineSet
Validated: 33
EndChar
StartChar: percent
Encoding: 37 37 8
Width: 1229
GlyphClass: 2
Flags: W
LayerCount: 2
Fore
SplineSet
691.97512583 873.060546875 m 128,-1,1
 594.329440875 779 594.329440875 779 462.399482331 779 c 0,2,3
 336.62109375 779 336.62109375 779 282.689453125 875.388671875 c 0,4,5
 251.266601562 931.546875 251.266601562 931.546875 251.266601562 1010.25195312 c 0,6,7
 251.266601562 1065.38378906 251.266601562 1065.38378906 266.69140625 1131.61328125 c 0,8,9
 305.0234375 1295.87109375 305.0234375 1295.87109375 400.282226562 1387.43554688 c 0,10,11
 496.870008115 1479 496.870008115 1479 628.774208377 1479 c 0,12,13
 753.446275564 1479 753.446275564 1479 809.187198214 1384.16503906 c 0,14,15
 842.302442074 1327.82324219 842.302442074 1327.82324219 842.302442074 1247.52832031 c 0,16,17
 842.302442074 1193.83496094 842.302442074 1193.83496094 827.485485598 1129.38085938 c 0,18,0
 789.620810784 967.12109375 789.620810784 967.12109375 691.97512583 873.060546875 c 128,-1,1
452.575669786 914.64453125 m 0,19,20
 469.283878597 908 469.283878597 908 491.8194034 908 c 0,21,22
 618.650212775 908 618.650212775 908 671.512152039 1131.58496094 c 0,23,24
 686.538146882 1194.95410156 686.538146882 1194.95410156 686.538146882 1239.93847656 c 0,25,26
 686.538146882 1348 686.538146882 1348 598.339807271 1348 c 0,27,28
 469.478056416 1348 469.478056416 1348 417.632578595 1129.35546875 c 0,29,30
 402.296875 1064.40039062 402.296875 1064.40039062 402.296875 1018.32910156 c 0,31,32
 402.296875 934.647460938 402.296875 934.647460938 452.575669786 914.64453125 c 0,19,20
317.176757812 -5 m 1,33,-1
 158 -5 l 1,34,-1
 1190.94921875 1467 l 1,35,-1
 1350.12597656 1467 l 1,36,-1
 317.176757812 -5 l 1,33,-1
1109.86035156 76.05859375 m 0,37,38
 1012.29521606 -18 1012.29521606 -18 880.365257519 -18 c 0,39,40
 754.643044982 -18 754.643044982 -18 699.419269381 78.3701171875 c 0,41,42
 667.110457895 134.750976562 667.110457895 134.750976562 667.110457895 213.51171875 c 0,43,44
 667.110457895 268.1640625 667.110457895 268.1640625 682.672423148 333.616210938 c 0,45,46
 721.56148503 497.879882812 721.56148503 497.879882812 818.709836998 589.440429688 c 128,-1,47
 915.858188965 681 915.858188965 681 1046.73998357 681 c 0,48,49
 1170.44140625 681 1170.44140625 681 1225.88964844 586.18359375 c 0,50,51
 1258.60644531 530.23828125 1258.60644531 530.23828125 1258.60644531 450.680664062 c 0,52,53
 1258.60644531 396.515625 1258.60644531 396.515625 1243.43652344 331.377929688 c 0,54,55
 1206.11132812 170.116210938 1206.11132812 170.116210938 1109.86035156 76.05859375 c 0,37,38
843.467508991 137.055664062 m 128,-1,57
 865.679073861 110 865.679073861 110 910.799658625 110 c 0,58,59
 1037.630468 110 1037.630468 110 1090.49240726 333.584960938 c 0,60,61
 1105.50195312 396.954101562 1105.50195312 396.954101562 1105.50195312 441.938476562 c 0,62,63
 1105.50195312 550 1105.50195312 550 1017.3200625 550 c 0,64,65
 888.458311642 550 888.458311642 550 836.61283382 331.35546875 c 0,66,67
 821.255944121 266.400390625 821.255944121 266.400390625 821.255944121 220.329101562 c 0,68,56
 821.255944121 164.110351562 821.255944121 164.110351562 843.467508991 137.055664062 c 128,-1,57
EndSplineSet
EndChar
StartChar: ampersand
Encoding: 38 38 9
Width: 600
GlyphClass: 2
Flags: W
LayerCount: 2
Fore
SplineSet
213 526 m 0,0,1
 213 526 l 0,2,3
 213 548 213 548 218 569 c 0,4,5
 235 642 235 642 289.5 685 c 128,-1,6
 344 728 344 728 428 728 c 0,7,8
 506 728 506 728 540 685 c 0,9,10
 562 657 562 657 562 615 c 0,11,12
 562 593 562 593 556 568 c 0,13,14
 533 468 533 468 366 378 c 1,15,-1
 453 214 l 1,16,17
 498 272 498 272 529 341 c 1,18,-1
 618 341 l 1,19,-1
 616 338 l 2,20,21
 566 224 566 224 491 142 c 1,22,-1
 566 -2 l 1,23,-1
 461 -2 l 1,24,-1
 420 77 l 1,25,26
 258 -13 258 -13 216 -13 c 0,27,28
 212 -13 212 -13 209 -12 c 1,29,30
 121 -12 121 -12 84 41 c 0,31,32
 60 75 60 75 60 125 c 0,33,34
 60 153 60 153 67 187 c 0,35,36
 82 252 82 252 122 299.5 c 128,-1,37
 162 347 162 347 252 396 c 1,38,39
 213 464 213 464 213 526 c 0,0,1
470 571 m 0,40,41
 473 582 473 582 473 593 c 0,42,43
 473 613 473 613 461 628 c 0,44,45
 444 650 444 650 408 649 c 0,46,47
 369 649 369 649 341.5 628 c 128,-1,48
 314 607 314 607 305 568 c 0,49,50
 302 555 302 555 302 541 c 0,51,52
 302 496 302 496 334 441 c 1,53,54
 403 479 403 479 432.5 507.5 c 128,-1,55
 462 536 462 536 470 571 c 0,40,41
160 188 m 0,56,57
 156 171 156 171 156 156 c 0,58,59
 156 126 156 126 170 105 c 0,60,61
 192 72 192 72 234 71 c 0,62,63
 306 71 306 71 385 141 c 1,64,-1
 284 333 l 1,65,66
 180 273 180 273 160 188 c 0,56,57
EndSplineSet
Validated: 37
EndChar
StartChar: quotesingle
Encoding: 39 39 10
Width: 600
GlyphClass: 2
Flags: W
LayerCount: 2
Fore
SplineSet
416 454 m 1,0,-1
 341 454 l 1,1,-1
 383 716 l 1,2,-1
 496 716 l 1,3,-1
 416 454 l 1,0,-1
EndSplineSet
Validated: 1
EndChar
StartChar: parenleft
Encoding: 40 40 11
Width: 600
GlyphClass: 2
Flags: W
LayerCount: 2
Fore
SplineSet
502 716 m 1,0,-1
 597 716 l 1,1,-1
 591 712 l 2,2,3
 342 529 342 529 283 277 c 0,4,5
 267 209 267 209 268 147 c 0,6,7
 268 -24 268 -24 387 -157 c 2,8,-1
 391 -161 l 1,9,-1
 295 -161 l 1,10,-1
 295 -160 l 2,11,12
 177 -34 177 -34 176 141 c 0,13,14
 176 206 176 206 192 277 c 0,15,16
 253 538 253 538 502 716 c 1,0,-1
EndSplineSet
Validated: 33
EndChar
StartChar: parenright
Encoding: 41 41 12
Width: 1229
GlyphClass: 2
Flags: W
LayerCount: 2
Fore
SplineSet
181.871504348 -329 m 1,0,-1
 194.024895574 -319.98218371 l 2,1,2
 699.923502586 49.9182210034 699.923502586 49.9182210034 823.128743629 570.131265748 c 0,3,4
 942.548710794 1085.62745734 942.548710794 1085.62745734 609.166075705 1458.69924614 c 2,5,-1
 601.657901408 1467 l 1,6,-1
 798.197852687 1467 l 1,7,8
 1042.32378855 1200.74784639 1042.32378855 1200.74784639 1042.32378855 843.649745774 c 0,9,10
 1042.32378855 711.101674423 1042.32378855 711.101674423 1008.87144632 565.869554523 c 0,11,12
 883.443819156 24.0222051655 883.443819156 24.0222051655 375.591991359 -329 c 1,13,-1
 181.871504348 -329 l 1,0,-1
EndSplineSet
EndChar
StartChar: asterisk
Encoding: 42 42 13
Width: 1229
GlyphClass: 2
Flags: W
LayerCount: 2
Fore
SplineSet
1038.54761026 1561 m 1,0,-1
 905.350993126 1170.36601241 l 1,1,-1
 1301.73235698 1280.80554428 l 1,2,-1
 1280.54411535 1076.33901252 l 1,3,-1
 921.607487435 1048.5788332 l 1,4,-1
 1077.59693163 724.742345664 l 1,5,-1
 874.471470987 623.633750625 l 1,6,-1
 792.866332838 976.22464244 l 1,7,-1
 563.508830222 624.080203896 l 1,8,-1
 405.299018722 726.014042178 l 1,9,-1
 704.511797118 1048.85177446 l 1,10,-1
 364.035572626 1076.55322108 l 1,11,-1
 438.973473471 1280.25765577 l 1,12,-1
 779.62519349 1169.63683252 l 1,13,-1
 831.577160894 1561 l 1,14,-1
 1038.54761026 1561 l 1,0,-1
EndSplineSet
EndChar
StartChar: plus
Encoding: 43 43 14
Width: 1229
GlyphClass: 2
Flags: W
LayerCount: 2
Fore
SplineSet
553.320318796 257 m 1,0,-1
 644.469854203 642 l 1,1,-1
 281.738932783 642 l 1,2,-1
 318.00559945 802 l 1,3,-1
 681.659313014 802 l 1,4,-1
 773.833000505 1191 l 1,5,-1
 926.70406285 1191 l 1,6,-1
 834.530375359 802 l 1,7,-1
 1197.30189147 802 l 1,8,-1
 1159.96855813 642 l 1,9,-1
 796.316316493 642 l 1,10,-1
 705.166781085 257 l 1,11,-1
 553.320318796 257 l 1,0,-1
EndSplineSet
EndChar
StartChar: comma
Encoding: 44 44 15
Width: 1229
GlyphClass: 2
Flags: W
LayerCount: 2
Fore
SplineSet
326.273994919 -294 m 1,0,1
 474.369728229 35.8960128214 474.369728229 35.8960128214 560.526916431 267 c 1,2,-1
 771.465954082 267 l 1,3,-1
 782.421727219 237.784604969 l 1,4,5
 676.383507318 11.569735848 676.383507318 11.569735848 477.712754968 -294 c 1,6,-1
 326.273994919 -294 l 1,0,1
EndSplineSet
EndChar
StartChar: hyphen
Encoding: 45 45 16
Width: 600
GlyphClass: 2
Flags: W
LayerCount: 2
Fore
SplineSet
196 312 m 1,0,-1
 505 312 l 1,1,-1
 485 225 l 1,2,-1
 176 225 l 1,3,-1
 196 312 l 1,0,-1
EndSplineSet
Validated: 1
Substitution2: "Single Substitution lookup 6 subtable" arrow_right_single
Substitution2: "subspace subtable" space
EndChar
StartChar: period
Encoding: 46 46 17
Width: 600
GlyphClass: 2
Flags: W
LayerCount: 2
Fore
SplineSet
308 149 m 0,0,1
 365 149 365 149 365 97 c 0,2,3
 365 83 365 83 361 65 c 0,4,5
 342 -18 342 -18 271 -18 c 0,6,7
 214 -18 214 -18 214 36 c 0,8,9
 214 50 214 50 218 66 c 0,10,11
 228 107 228 107 250.5 128 c 128,-1,12
 273 149 273 149 308 149 c 0,0,1
EndSplineSet
Validated: 1
EndChar
StartChar: slash
Encoding: 47 47 18
Width: 600
GlyphClass: 2
Flags: W
LayerCount: 2
Fore
SplineSet
89 -2 m 1,0,-1
 547 716 l 1,1,-1
 633 716 l 1,2,-1
 176 -2 l 1,3,-1
 89 -2 l 1,0,-1
EndSplineSet
Validated: 1
Substitution2: "Single Substitution lookup 20 subtable" slash_equal
Substitution2: "Single Substitution lookup 2 subtable" slash_equal
EndChar
StartChar: zero
Encoding: 48 48 19
Width: 600
GlyphClass: 2
Flags: W
LayerCount: 2
Fore
SplineSet
222 119 m 1,0,1
 240 71 240 71 295 71 c 0,2,3
 362 71 362 71 409 138 c 0,4,5
 457 206 457 206 493 361 c 0,6,7
 509 430 509 430 515 481 c 1,8,-1
 222 119 l 1,0,1
582 357 m 0,9,10
 497 -10 497 -10 278 -10 c 0,11,12
 172 -10 172 -10 139 86 c 0,13,14
 125 127 125 127 125 184 c 0,15,16
 125 258 125 258 148 358 c 0,17,18
 233 725 233 725 450 725 c 0,19,20
 558 725 558 725 591 630 c 0,21,22
 605 589 605 589 605 531 c 0,23,24
 605 457 605 457 582 357 c 0,9,10
481 631 m 0,25,26
 462 644 462 644 433 644 c 0,27,28
 367 644 367 644 320 576.5 c 128,-1,29
 273 509 273 509 237 355 c 0,30,31
 219 276 219 276 214 220 c 1,32,-1
 509 592 l 1,33,34
 500 618 500 618 481 631 c 0,25,26
EndSplineSet
Validated: 1
EndChar
StartChar: one
Encoding: 49 49 20
Width: 600
GlyphClass: 2
Flags: W
LayerCount: 2
Fore
SplineSet
347 0 m 1,0,-1
 262 0 l 1,1,-1
 366 446 l 2,2,3
 379 503 379 503 408 613 c 1,4,5
 386 593 386 593 346 564 c 1,6,-1
 263 503 l 1,7,-1
 231 567 l 1,8,-1
 441 714 l 1,9,-1
 513 714 l 1,10,-1
 347 0 l 1,0,-1
EndSplineSet
Validated: 1
EndChar
StartChar: two
Encoding: 50 50 21
Width: 1229
GlyphClass: 2
Flags: W
LayerCount: 2
Fore
SplineSet
1011.27148438 0 m 1,0,-1
 144 0 l 1,1,-1
 181.759765625 162.39453125 l 1,2,3
 629.561504587 568.66796875 629.561504587 568.66796875 656.167951679 593.053710938 c 128,-1,4
 682.774398771 617.439453125 682.774398771 617.439453125 707.364227575 640.47265625 c 128,-1,5
 731.95405638 663.505859375 731.95405638 663.505859375 754.180567497 684.8671875 c 128,-1,6
 776.406085205 706.227539062 776.406085205 706.227539062 796.238482985 725.887695312 c 128,-1,7
 816.069887358 745.546875 816.069887358 745.546875 833.528039962 763.521484375 c 128,-1,8
 850.985199158 781.497070312 850.985199158 781.497070312 866.052218649 797.771484375 c 0,9,10
 896.190231265 830.326171875 896.190231265 830.326171875 916.778612551 856.081054688 c 0,11,12
 998.66015625 958.927734375 998.66015625 958.927734375 1027.41308594 1082.9140625 c 0,13,14
 1037.01269531 1124.32128906 1037.01269531 1124.32128906 1037.01269531 1159.11132812 c 0,15,16
 1037.01269531 1216.77050781 1037.01269531 1216.77050781 1010.61816406 1256.21484375 c 0,17,18
 968.416955018 1319 968.416955018 1319 868.402622033 1319 c 0,19,20
 718.561922816 1319 718.561922816 1319 538.860371822 1183.03515625 c 2,21,-1
 534.240031105 1179.54003906 l 1,22,-1
 459.999669288 1307.2578125 l 1,23,-1
 463.441828089 1309.92773438 l 2,24,25
 686.586105357 1483 686.586105357 1483 907.058115041 1483 c 0,26,27
 1090.78515625 1483 1090.78515625 1483 1171.78808594 1375.71875 c 0,28,29
 1225.23632812 1304.93261719 1225.23632812 1304.93261719 1225.23632812 1202.25097656 c 0,30,31
 1225.23632812 1149.58398438 1225.23632812 1149.58398438 1211.39257812 1089.26855469 c 0,32,33
 1183.85839844 969.303710938 1183.85839844 969.303710938 1099.43945312 844.521484375 c 128,-1,34
 1015.10449219 719.864257812 1015.10449219 719.864257812 737.53303584 471.112304688 c 1,35,-1
 401.976693454 175.131835938 l 1,36,-1
 1051.56054688 174.818359375 l 1,37,-1
 1011.27148438 0 l 1,0,-1
EndSplineSet
EndChar
StartChar: three
Encoding: 51 51 22
Width: 1229
GlyphClass: 2
Flags: W
LayerCount: 2
Fore
SplineSet
889.607136072 96.7197265625 m 0,0,1
 730.132174863 -20 730.132174863 -20 482.358805242 -20 c 0,2,3
 254.111328125 -20 254.111328125 -20 135.84765625 59.853515625 c 2,4,-1
 133 61.7763671875 l 1,5,-1
 174.359375 242.061523438 l 1,6,-1
 180.34375 238.206054688 l 2,7,8
 328.111328125 143 328.111328125 143 513.881609136 143 c 0,9,10
 844.389429566 143 844.389429566 143 911.6077573 425.48046875 c 0,11,12
 920.296786221 461.881835938 920.296786221 461.881835938 920.296786221 492.920898438 c 0,13,14
 920.296786221 675 920.296786221 675 616.584937953 675 c 2,15,-1
 485.153196943 675 l 1,16,-1
 522.01652627 836 l 1,17,-1
 652.175200414 836 l 2,18,19
 801.970086888 836 801.970086888 836 901.784685976 910.208007812 c 0,20,21
 1001.17578125 984.344726562 1001.17578125 984.344726562 1029.7734375 1106.34960938 c 0,22,23
 1037.42480469 1138.53320312 1037.42480469 1138.53320312 1037.42480469 1166.76269531 c 0,24,25
 1037.42480469 1223.46582031 1037.42480469 1223.46582031 1004.81152344 1261.87792969 c 0,26,27
 955.884069587 1319 955.884069587 1319 850.463805555 1319 c 0,28,29
 683.199502306 1319 683.199502306 1319 499.405190438 1198.83300781 c 2,30,-1
 494.409247066 1195.56738281 l 1,31,-1
 433.312960851 1329.68066406 l 1,32,33
 543.540492198 1407.47949219 543.540492198 1407.47949219 656.17314675 1445.23925781 c 128,-1,34
 768.80480827 1483 768.80480827 1483 887.070932658 1483 c 0,35,36
 1082.95507812 1483 1082.95507812 1483 1168.45507812 1382.8984375 c 0,37,38
 1227.4765625 1313.79589844 1227.4765625 1313.79589844 1227.4765625 1213.17871094 c 0,39,40
 1227.4765625 1167.91796875 1227.4765625 1167.91796875 1215.51171875 1116.30761719 c 0,41,42
 1183.17578125 977.778320312 1183.17578125 977.778320312 1084.59082031 884.365234375 c 0,43,44
 989.479492188 794.243164062 989.479492188 794.243164062 845.666468559 766.77734375 c 1,45,46
 1107.640625 724.049804688 1107.640625 724.049804688 1107.72460938 515.076171875 c 0,47,48
 1107.72460938 469.883789062 1107.72460938 469.883789062 1095.70019531 418.030273438 c 128,-1,49
 1083.67578125 366.17578125 1083.67578125 366.17578125 1064.97558594 320.744140625 c 128,-1,50
 1046.27636719 275.311523438 1046.27636719 275.311523438 1020.72851562 235.263671875 c 0,51,52
 969.396254333 155.1171875 969.396254333 155.1171875 889.607136072 96.7197265625 c 0,0,1
EndSplineSet
EndChar
StartChar: four
Encoding: 52 52 23
Width: 600
GlyphClass: 2
Flags: W
LayerCount: 2
Fore
SplineSet
486 244 m 1,0,-1
 582 244 l 1,1,-1
 563 158 l 1,2,-1
 465 158 l 1,3,-1
 424 0 l 1,4,-1
 339 0 l 1,5,-1
 376 158 l 1,6,-1
 64 158 l 1,7,-1
 83 239 l 1,8,-1
 501 718 l 1,9,-1
 591 718 l 1,10,-1
 486 244 l 1,0,-1
429 536 m 2,11,-1
 172 244 l 1,12,-1
 396 244 l 1,13,-1
 435 416 l 2,14,15
 455 500 455 500 488 621 c 1,16,17
 462 573 462 573 429 536 c 2,11,-1
EndSplineSet
Validated: 1
EndChar
StartChar: five
Encoding: 53 53 24
Width: 1229
GlyphClass: 2
Flags: W
LayerCount: 2
Fore
SplineSet
218.859375 239.797851562 m 2,0,1
 329.456054688 145 329.456054688 145 529.583123259 145 c 0,2,3
 686.741311587 145 686.741311587 145 783.181052532 221.642578125 c 128,-1,4
 879.620793477 298.284179688 879.620793477 298.284179688 916.422352065 452.536132812 c 0,5,6
 928.419554822 503.081054688 928.419554822 503.081054688 928.419554822 544.651367188 c 0,7,8
 928.419554822 738 928.419554822 738 664.931287424 738 c 0,9,10
 580.947886717 738 580.947886717 738 439.692551147 711.657226562 c 1,11,-1
 363.836914062 771.987304688 l 1,12,-1
 578.73269744 1462 l 1,13,-1
 1237.91992188 1462 l 1,14,-1
 1196.5703125 1286 l 1,15,-1
 697.149421632 1286 l 1,16,-1
 565.506159047 883.467773438 l 1,17,18
 667.266726993 902 667.266726993 902 760.590892173 902 c 0,19,20
 961.438695112 902 961.438695112 902 1057.47460938 786.296875 c 0,21,22
 1121.72265625 708.458984375 1121.72265625 708.458984375 1121.72265625 592.328125 c 0,23,24
 1121.72265625 535.796875 1121.72265625 535.796875 1106.48046875 470.21484375 c 0,25,26
 1052.09277344 235.80859375 1052.09277344 235.80859375 890.988918256 107.913085938 c 0,27,28
 728.804068932 -20 728.804068932 -20 489.894563842 -20 c 0,29,30
 278.938476562 -20 278.938476562 -20 172.606445312 60.001953125 c 2,31,-1
 170 61.962890625 l 1,32,-1
 212.603515625 245.159179688 l 1,33,-1
 218.859375 239.797851562 l 2,0,1
EndSplineSet
EndChar
StartChar: six
Encoding: 54 54 25
Width: 1229
GlyphClass: 2
Flags: W
LayerCount: 2
Fore
SplineSet
1210.14550781 1299.35546875 m 2,0,1
 1151.03515625 1323 1151.03515625 1323 1063 1323 c 0,2,3
 854.108599673 1323 854.108599673 1323 715.804256985 1185.65722656 c 0,4,5
 577.499914298 1047.65527344 577.499914298 1047.65527344 496.487304688 750 c 1,6,-1
 498.549828191 750 l 1,7,8
 630.292013358 920 630.292013358 920 832.580380107 920 c 0,9,10
 1019.74902344 920 1019.74902344 920 1096.72460938 797.973632812 c 0,11,12
 1143.65625 723.576171875 1143.65625 723.576171875 1143.65625 616.244140625 c 0,13,14
 1143.65625 548.353515625 1143.65625 548.353515625 1124.87011719 467.267578125 c 0,15,16
 1071.52441406 236.454101562 1071.52441406 236.454101562 926.664865329 103 c 0,17,18
 780.518405737 -20 780.518405737 -20 585.744446447 -20 c 0,19,20
 377.86328125 -20 377.86328125 -20 294.99609375 150.1953125 c 0,21,22
 250.944335938 240.669921875 250.944335938 240.669921875 250.944335938 370.84375 c 0,23,24
 250.944335938 483.82421875 250.944335938 483.82421875 284.127929688 626.823242188 c 0,25,26
 483.021484375 1483 483.021484375 1483 1092 1483 c 0,27,28
 1188.78808594 1483 1188.78808594 1483 1248.53222656 1463.76074219 c 2,29,-1
 1252.88476562 1462.35839844 l 1,30,-1
 1215.58691406 1297.1796875 l 1,31,-1
 1210.14550781 1299.35546875 l 2,0,1
951.025928852 474.459960938 m 0,32,33
 965.048705655 534.384765625 965.048705655 534.384765625 965.048705655 582.548828125 c 0,34,35
 965.048705655 648.388671875 965.048705655 648.388671875 938.839918665 692.0859375 c 0,36,37
 893.909858055 767 893.909858055 767 775.926489196 767 c 128,-1,38
 657.94212426 767 657.94212426 767 558.371245046 687.763671875 c 0,39,40
 459.489257812 608.484375 459.489257812 608.484375 435.872070312 506.956054688 c 0,41,42
 421.587890625 445.416015625 421.587890625 445.416015625 421.587890625 390.874023438 c 0,43,44
 421.587890625 313.215820312 421.587890625 313.215820312 450.557617188 249.702148438 c 0,45,46
 499.27696465 143 499.27696465 143 618.965617916 143 c 128,-1,47
 738.653275105 143 738.653275105 143 825.894708996 228.827148438 c 0,48,49
 913.609279623 315.120117188 913.609279623 315.120117188 951.025928852 474.459960938 c 0,32,33
EndSplineSet
EndChar
StartChar: seven
Encoding: 55 55 26
Width: 1229
GlyphClass: 2
Flags: W
LayerCount: 2
Fore
SplineSet
1141 1286 m 1,0,-1
 431.786132812 1286 l 1,1,-1
 473.135742188 1462 l 1,2,-1
 1367.40722656 1462 l 1,3,-1
 1331.77929688 1311.09179688 l 1,4,-1
 499.875 0 l 1,5,-1
 308 -0 l 1,6,-1
 1141 1286 l 1,0,-1
EndSplineSet
EndChar
StartChar: eight
Encoding: 56 56 27
Width: 600
GlyphClass: 2
Flags: W
LayerCount: 2
Fore
SplineSet
302.5 678.5 m 128,-1,1
 368 725 368 725 451 725 c 0,2,3
 536 725 536 725 578 678 c 0,4,5
 607 645 607 645 608 597 c 0,6,7
 608 576 608 576 602 551 c 0,8,9
 576 440 576 440 444 377 c 1,10,11
 543 313 543 313 543 226 c 0,12,13
 543 207 543 207 539 187 c 0,14,15
 518 98 518 98 447 44 c 0,16,17
 375 -10 375 -10 278 -10 c 0,18,19
 178 -10 178 -10 134 41 c 0,20,21
 104 75 104 75 104 129 c 0,22,23
 104 155 104 155 111 184 c 0,24,25
 140 308 140 308 283 374 c 1,26,27
 214 429 214 429 213 507 c 0,28,29
 213 529 213 529 219 553 c 0,30,0
 237 632 237 632 302.5 678.5 c 128,-1,1
515 548 m 0,31,32
 519 564 519 564 519 578 c 0,33,34
 519 585 519 585 518 591 c 128,-1,35
 517 597 517 597 515 602 c 0,36,37
 511 613 511 613 505 621 c 0,38,39
 483 646 483 646 434 646 c 128,-1,40
 385 646 385 646 350.5 620.5 c 128,-1,41
 316 595 316 595 305 547 c 0,42,43
 301 530 301 530 301 515 c 0,44,45
 301 492 301 492 310 474 c 0,46,47
 325 444 325 444 379 414 c 1,48,49
 496 464 496 464 515 548 c 0,31,32
197 183 m 0,50,51
 192 163 192 163 192 146 c 0,52,53
 192 69 192 69 294 69 c 0,54,55
 356 69 356 69 397.5 100.5 c 128,-1,56
 439 132 439 132 452 188 c 0,57,58
 455 202 455 202 455 215 c 0,59,60
 455 242 455 242 441 264 c 0,61,62
 420 297 420 297 360 333 c 1,63,-1
 348 340 l 1,64,65
 220 281 220 281 197 183 c 0,50,51
EndSplineSet
Validated: 1
EndChar
StartChar: nine
Encoding: 57 57 28
Width: 600
GlyphClass: 2
Flags: W
LayerCount: 2
Fore
SplineSet
140 80 m 2,0,1
 167 68 167 68 211 68 c 0,2,3
 313 68 313 68 381 135 c 0,4,5
 448 202 448 202 488 348 c 1,6,-1
 487 348 l 1,7,8
 422 265 422 265 323 265 c 0,9,10
 232 265 232 265 194 324 c 0,11,12
 171 360 171 360 172 413 c 0,13,14
 172 446 172 446 181 486 c 0,15,16
 207 599 207 599 278 664 c 0,17,18
 350 724 350 724 444 724 c 0,19,20
 546 724 546 724 586 640 c 0,21,22
 607 595 607 595 607 532 c 0,23,24
 607 477 607 477 591 408 c 0,25,26
 494 -10 494 -10 197 -10 c 0,27,28
 149 -10 149 -10 120 -1 c 2,29,-1
 118 -0 l 1,30,-1
 137 81 l 1,31,-1
 140 80 l 2,0,1
266 482 m 0,32,33
 259 453 259 453 259 429 c 0,34,35
 259 397 259 397 272 376 c 0,36,37
 294 339 294 339 351 339 c 0,38,39
 409 339 409 339 458 378 c 0,40,41
 506 417 506 417 517 466 c 0,42,43
 524 496 524 496 524 523 c 0,44,45
 524 560 524 560 510 592 c 0,46,47
 487 644 487 644 428 644 c 128,-1,48
 369 644 369 644 327 603 c 0,49,50
 285 561 285 561 266 482 c 0,32,33
EndSplineSet
Validated: 33
EndChar
StartChar: colon
Encoding: 58 58 29
Width: 600
GlyphClass: 2
Flags: W
LayerCount: 2
Fore
SplineSet
401 552 m 0,0,1
 449 552 449 552 449 508 c 0,2,3
 449 496 449 496 445 481 c 0,4,5
 437 446 437 446 418 429 c 128,-1,6
 399 412 399 412 370 412 c 0,7,8
 322 412 322 412 322 456 c 0,9,10
 322 468 322 468 325 482 c 0,11,12
 341 552 341 552 401 552 c 0,0,1
302 125 m 0,13,14
 350 125 350 125 350 80 c 0,15,16
 350 68 350 68 347 54 c 0,17,18
 331 -16 331 -16 271 -17 c 0,19,20
 223 -17 223 -17 223 28 c 0,21,22
 223 40 223 40 227 55 c 0,23,24
 235 90 235 90 253.5 107.5 c 128,-1,25
 272 125 272 125 302 125 c 0,13,14
EndSplineSet
Validated: 1
EndChar
StartChar: semicolon
Encoding: 59 59 30
Width: 600
GlyphClass: 2
Flags: W
LayerCount: 2
Fore
SplineSet
405 552 m 0,0,1
 453 552 453 552 453 508 c 0,2,3
 453 496 453 496 449 481 c 0,4,5
 441 446 441 446 422 429 c 128,-1,6
 403 412 403 412 374 412 c 0,7,8
 326 412 326 412 326 456 c 0,9,10
 326 468 326 468 329 482 c 0,11,12
 345 552 345 552 405 552 c 0,0,1
149 -131 m 1,13,14
 208 -3 208 -3 253 119 c 1,15,-1
 346 119 l 1,16,-1
 351 105 l 1,17,18
 305 8 305 8 216 -131 c 1,19,-1
 149 -131 l 1,13,14
EndSplineSet
Validated: 1
EndChar
StartChar: less
Encoding: 60 60 31
Width: 1229
GlyphClass: 2
Flags: W
LayerCount: 2
Fore
SplineSet
1061.32651608 213.188774582 m 1,0,-1
 287.294128536 669.584280256 l 1,1,-1
 312.68644927 777.501643379 l 1,2,-1
 1297.18827486 1233.88827198 l 1,3,-1
 1257.31928907 1061.48184695 l 1,4,-1
 509.824281558 722.472045109 l 1,5,-1
 1100.70207377 383.461456479 l 1,6,-1
 1061.32651608 213.188774582 l 1,0,-1
EndSplineSet
Substitution2: "Single Substitution lookup 15 subtable" arrow_left_single
EndChar
StartChar: equal
Encoding: 61 61 32
Width: 600
GlyphClass: 2
Flags: W
LayerCount: 2
Fore
SplineSet
608 491 m 1,0,-1
 589 414 l 1,1,-1
 161 414 l 1,2,-1
 178 491 l 1,3,-1
 608 491 l 1,0,-1
561 292 m 1,4,-1
 543 213 l 1,5,-1
 114 213 l 1,6,-1
 132 292 l 1,7,-1
 561 292 l 1,4,-1
EndSplineSet
Validated: 1
Substitution2: "Single Substitution lookup 10 subtable" arrow_right_double
Substitution2: "Single Substitution lookup 9 subtable" equal_equal
Substitution2: "Single Substitution lookup 4 subtable" equal_triple
Substitution2: "subspace subtable" space
EndChar
StartChar: greater
Encoding: 62 62 33
Width: 1229
GlyphClass: 2
Flags: W
LayerCount: 2
Fore
SplineSet
968.188824624 723.528580953 m 1,0,-1
 378.298573625 1062.54134308 l 1,1,-1
 417.674431318 1232.81532229 l 1,2,-1
 1190.67478509 776.431821558 l 1,3,-1
 1166.33959755 668.510555083 l 1,4,-1
 181.811725144 212.111728024 l 1,5,-1
 221.68035323 384.516606233 l 1,6,-1
 968.188824624 723.528580953 l 1,0,-1
EndSplineSet
Substitution2: "Single Substitution lookup 16 subtable" space
Substitution2: "Single Substitution lookup 12 subtable" space
EndChar
StartChar: question
Encoding: 63 63 34
Width: 600
GlyphClass: 2
Flags: W
LayerCount: 2
Fore
SplineSet
531 568 m 0,0,1
 531 596 531 596 512 616 c 0,2,3
 485 643 485 643 425 644 c 0,4,5
 344 644 344 644 244 600 c 2,6,-1
 241 599 l 1,7,-1
 228 678 l 1,8,9
 337 726 337 726 438 727 c 0,10,11
 538 727 538 727 585 678 c 0,12,13
 619 643 619 643 619 592 c 0,14,15
 619 571 619 571 613 548 c 0,16,17
 598 482 598 482 564 441.5 c 128,-1,18
 530 401 530 401 452 348 c 0,19,20
 387 306 387 306 365.5 280 c 128,-1,21
 344 254 344 254 334 210 c 0,22,23
 331 200 l 1,24,-1
 253 200 l 1,25,-1
 258 221 l 1,26,27
 272 280 272 280 301 317 c 0,28,29
 331 354 331 354 395 394 c 0,30,31
 467 441 467 441 492 469 c 0,32,33
 517 497 517 497 528 545 c 0,34,35
 531 557 531 557 531 568 c 0,0,1
278 125 m 0,36,37
 326 125 326 125 326 80 c 0,38,39
 326 68 326 68 322 54 c 0,40,41
 306 -16 306 -16 246 -17 c 0,42,43
 198 -17 198 -17 198 28 c 0,44,45
 198 40 198 40 202 55 c 0,46,47
 218 125 218 125 278 125 c 0,36,37
EndSplineSet
Validated: 1
EndChar
StartChar: at
Encoding: 64 64 35
Width: 1229
GlyphClass: 2
Flags: W
LayerCount: 2
Fore
SplineSet
954.807412922 370.016611193 m 128,-1,1
 964.160546702 355 964.160546702 355 982.783170508 355 c 0,2,3
 1055.50843801 355 1055.50843801 355 1127.41992442 605.674578179 c 0,4,5
 1191.38697318 830.048685137 1191.38697318 830.048685137 1191.38697318 976.812744969 c 0,6,7
 1191.38697318 1087.47530153 1191.38697318 1087.47530153 1158.27987077 1166.13578545 c 128,-1,8
 1125.17276836 1244.79626938 1125.17276836 1244.79626938 1065.86923369 1283.39813469 c 0,9,10
 1006.03334781 1322 1006.03334781 1322 918.645293323 1322 c 0,11,12
 708.030821815 1322 708.030821815 1322 545.261978186 1131.77856028 c 0,13,14
 381.762993059 940.703833381 381.762993059 940.703833381 304.872201979 606.872823989 c 0,15,16
 271.117647059 460.603086004 271.117647059 460.603086004 271.117647059 345.688581315 c 0,17,18
 271.117647059 216.893286601 271.117647059 216.893286601 313.519007654 127.641039917 c 0,19,20
 393.483699555 -40 393.483699555 -40 615.417352845 -40 c 0,21,22
 784.695324071 -40 784.695324071 -40 958.13501865 37.5562189404 c 2,23,-1
 967.49940407 41.7436474734 l 1,24,-1
 933.181953164 -103.436402081 l 1,25,26
 761.624577461 -187 761.624577461 -187 577.894162886 -187 c 0,27,28
 294.96869882 -187 294.96869882 -187 185.564045725 22.6922517646 c 0,29,30
 124.564766839 139.607536296 124.564766839 139.607536296 124.564766839 307.70954925 c 0,31,32
 124.564766839 439.617481369 124.564766839 439.617481369 162.128826346 603.131622751 c 0,33,34
 254.418923368 1001.38345447 254.418923368 1001.38345447 465.42318423 1234.19172723 c 0,35,36
 678.066384915 1467 678.066384915 1467 952.111922205 1467 c 0,37,38
 1188.16246089 1467 1188.16246089 1467 1282.52002446 1268.1388983 c 0,39,40
 1333.28488372 1161.15059275 1333.28488372 1161.15059275 1333.28488372 1012.23989319 c 0,41,42
 1333.28488372 886.124788533 1333.28488372 886.124788533 1296.87360989 729.878942619 c 0,43,44
 1243.67437312 498.010570997 1243.67437312 498.010570997 1151.18703532 357.005285499 c 0,45,46
 1058.29210162 216 1058.29210162 216 947.041220859 216 c 0,47,48
 834.797084054 216 834.797084054 216 834.797084054 362.957006015 c 1,49,-1
 835.58432987 388.482238713 l 1,50,51
 724.944501914 216 724.944501914 216 578.908303156 216 c 0,52,53
 461.866117853 216 461.866117853 216 419.022460212 323.676503874 c 0,54,55
 397.884265111 376.801915476 397.884265111 376.801915476 397.884265111 447.690271056 c 128,-1,56
 397.884265111 518.578626635 397.884265111 518.578626635 418.806163068 607.137455122 c 0,57,58
 467.793254858 814.442376666 467.793254858 814.442376666 589.695950323 942.221188333 c 128,-1,59
 711.598645789 1070 711.598645789 1070 862.867578519 1070 c 0,60,61
 992.796950624 1070 992.796950624 1070 1095.12237286 1022.52782848 c 2,62,-1
 1098.9523757 1020.72772757 l 1,63,64
 971.798583528 570.515534858 971.798583528 570.515534858 968.748969277 558.992715845 c 0,65,66
 964.657233562 543.532291608 964.657233562 543.532291608 961.107221941 524.862797771 c 0,67,68
 945.454279142 458.60655852 945.454279142 458.60655852 945.454279142 421.819890453 c 128,-1,0
 945.454279142 385.033222386 945.454279142 385.033222386 954.807412922 370.016611193 c 128,-1,1
559.524394829 463.276342975 m 0,69,70
 559.524394829 355 559.524394829 355 634.686017959 355 c 0,71,72
 754.536047726 355 754.536047726 355 839.720030944 663.315660215 c 1,73,-1
 911.560049935 912.234868699 l 1,74,75
 868.868609281 931 868.868609281 931 825.344388561 931 c 0,76,77
 743.809120611 931 743.809120611 931 678.423713477 838.964979096 c 128,-1,78
 613.038306342 746.929958192 613.038306342 746.929958192 578.778135203 600.870421776 c 0,79,80
 559.524394829 518.382638915 559.524394829 518.382638915 559.524394829 463.276342975 c 0,69,70
EndSplineSet
EndChar
StartChar: A
Encoding: 65 65 36
Width: 600
GlyphClass: 2
Flags: W
LayerCount: 2
Fore
SplineSet
107 0 m 1,0,-1
 15 0 l 1,1,-1
 406 717 l 1,2,-1
 499 717 l 1,3,-1
 555 0 l 1,4,-1
 462 0 l 1,5,-1
 448 219 l 1,6,-1
 225 219 l 1,7,-1
 107 0 l 1,0,-1
429 509 m 2,8,9
 426 558 426 558 426 599 c 0,10,11
 426 603 426 603 426 607 c 1,12,13
 408 565 408 565 389 529 c 2,14,-1
 271 304 l 1,15,-1
 442 304 l 1,16,-1
 429 509 l 2,8,9
EndSplineSet
Validated: 1
EndChar
StartChar: B
Encoding: 66 66 37
Width: 1229
GlyphClass: 2
Flags: W
LayerCount: 2
Fore
SplineSet
123 -0 m 1,0,-1
 472.3046875 1462 l 1,1,-1
 886.284179688 1462 l 2,2,3
 1153.2421875 1462 1153.2421875 1462 1249.1796875 1373.77246094 c 0,4,5
 1314.80078125 1313.42578125 1314.80078125 1313.42578125 1314.80078125 1203.38867188 c 0,6,7
 1314.80078125 1151.45410156 1314.80078125 1151.45410156 1300.15332031 1088.41113281 c 0,8,9
 1269.80273438 959.797851562 1269.80273438 959.797851562 1176.16601562 874.337890625 c 0,10,11
 1083.78417969 790.022460938 1083.78417969 790.022460938 948.922536861 771.276367188 c 1,12,-1
 948.590914737 769.720703125 l 1,13,14
 1196.31738281 723.942382812 1196.31738281 723.942382812 1196.31738281 522.663085938 c 0,15,16
 1196.31738281 477.671875 1196.31738281 477.671875 1184.15527344 424.958984375 c 0,17,18
 1137.75683594 226.600585938 1137.75683594 226.600585938 988.26955302 113.284179688 c 0,19,20
 835.626266784 0 835.626266784 0 619.284179688 0 c 2,21,-1
 123 -0 l 1,0,-1
513.579101562 847 m 1,22,-1
 771.284179688 847 l 2,23,24
 916.370881033 847 916.370881033 847 998.947889306 900.404296875 c 0,25,26
 1080.84082031 953.807617188 1080.84082031 953.807617188 1109.41015625 1077.53125 c 0,27,28
 1118.24414062 1114.97460938 1118.24414062 1114.97460938 1118.24414062 1146.30371094 c 0,29,30
 1118.24414062 1209.30859375 1118.24414062 1209.30859375 1079.49707031 1242.796875 c 0,31,32
 1018.65202881 1293 1018.65202881 1293 859.284179688 1293 c 2,33,-1
 618.2578125 1293 l 1,34,-1
 513.579101562 847 l 1,22,-1
345.572265625 168 m 1,35,-1
 625.56340751 168 l 2,36,37
 775.221403305 168 775.221403305 168 865.733651618 234.672851562 c 128,-1,38
 956.24589993 301.345703125 956.24589993 301.345703125 988.844944502 435.515625 c 0,39,40
 998.832023649 476.201171875 998.832023649 476.201171875 998.832023649 510.098632812 c 0,41,42
 998.832023649 681 998.832023649 681 740.682584253 681 c 2,43,-1
 465.26171875 681 l 1,44,-1
 345.572265625 168 l 1,35,-1
EndSplineSet
EndChar
StartChar: C
Encoding: 67 67 38
Width: 600
GlyphClass: 2
Flags: W
LayerCount: 2
Fore
SplineSet
522 20 m 1,0,1
 447 -9 447 -9 348 -10 c 0,2,3
 205 -10 205 -10 152 87 c 0,4,5
 122 141 122 141 122 220 c 0,6,7
 122 282 122 282 140 358 c 0,8,9
 179 527 179 527 285 625 c 0,10,11
 391 724 391 724 534 724 c 0,12,13
 636 724 636 724 701 682 c 2,14,-1
 703 680 l 1,15,-1
 647 600 l 1,16,17
 615 620 615 620 583 630 c 0,18,19
 550 639 550 639 516 639 c 0,20,21
 418 639 418 639 341.5 563 c 128,-1,22
 265 487 265 487 234 356 c 0,23,24
 219 292 219 292 219 243 c 0,25,26
 219 185 219 185 239 146 c 0,27,28
 276 74 276 74 381 75 c 0,29,30
 440 75 440 75 542 104 c 1,31,-1
 522 20 l 1,0,1
EndSplineSet
Validated: 33
EndChar
StartChar: D
Encoding: 68 68 39
Width: 600
GlyphClass: 2
Flags: W
LayerCount: 2
Fore
SplineSet
60 0 m 1,0,-1
 231 714 l 1,1,-1
 388 714 l 2,2,3
 538 714 538 714 598 621 c 0,4,5
 634 565 634 565 634 482 c 0,6,7
 634 428 634 428 619 363 c 0,8,9
 578 187 578 187 471 94 c 0,10,11
 362 0 362 0 200 0 c 2,12,-1
 60 0 l 1,0,-1
169 83 m 1,13,-1
 210 83 l 2,14,15
 457 83 457 83 524 361 c 0,16,17
 538 421 538 421 538 468 c 0,18,19
 538 631 538 631 361 631 c 2,20,-1
 302 631 l 1,21,-1
 169 83 l 1,13,-1
EndSplineSet
Validated: 1
EndChar
StartChar: E
Encoding: 69 69 40
Width: 1229
GlyphClass: 2
Flags: W
LayerCount: 2
Fore
SplineSet
999.83033288 -0 m 1,0,-1
 197 -0 l 1,1,-1
 538.784148552 1462 l 1,2,-1
 1340.58105469 1462 l 1,3,-1
 1300.26367188 1288 l 1,4,-1
 683.968704865 1288 l 1,5,-1
 580.685536769 849.599609375 l 1,6,-1
 1162.59863281 849.599609375 l 1,7,-1
 1122.25292969 679 l 1,8,-1
 539.755093641 679 l 1,9,-1
 420.575195312 172.728515625 l 1,10,-1
 1039.69759609 172.728515625 l 1,11,-1
 999.83033288 -0 l 1,0,-1
EndSplineSet
EndChar
StartChar: F
Encoding: 70 70 41
Width: 1229
GlyphClass: 2
Flags: W
LayerCount: 2
Fore
SplineSet
405.264648438 0 m 1,0,-1
 222 0 l 1,1,-1
 563.786445721 1462 l 1,2,-1
 1364.58105469 1462 l 1,3,-1
 1324.26367188 1288 l 1,4,-1
 708.972491665 1288 l 1,5,-1
 590.458816447 787 l 1,6,-1
 1171.54296875 787 l 1,7,-1
 1132.28710938 613 l 1,8,-1
 549.520451576 613 l 1,9,-1
 405.264648438 0 l 1,0,-1
EndSplineSet
EndChar
StartChar: G
Encoding: 71 71 42
Width: 600
GlyphClass: 2
Flags: W
LayerCount: 2
Fore
SplineSet
394 379 m 1,0,-1
 593 379 l 1,1,-1
 511 27 l 1,2,-1
 510 27 l 1,3,4
 356 -10 356 -10 310 -10 c 0,5,6
 308 -10 308 -10 306 -10 c 0,7,8
 184 -10 184 -10 139 88 c 0,9,10
 115 139 115 139 116 212 c 0,11,12
 116 277 116 277 135 358 c 0,13,14
 175 529 175 529 272 627 c 0,15,16
 370 724 370 724 502 724 c 0,17,18
 591 724 591 724 651 682 c 2,19,-1
 653 680 l 1,20,-1
 600 597 l 1,21,-1
 598 599 l 2,22,23
 542 640 542 640 481 639 c 0,24,25
 393 639 393 639 326 564.5 c 128,-1,26
 259 490 259 490 228 356 c 0,27,28
 210 279 210 279 211 224 c 0,29,30
 211 75 211 75 340 75 c 0,31,32
 384 75 384 75 435 88 c 1,33,-1
 483 294 l 1,34,-1
 374 294 l 1,35,-1
 394 379 l 1,0,-1
EndSplineSet
Validated: 33
EndChar
StartChar: H
Encoding: 72 72 43
Width: 600
GlyphClass: 2
Flags: W
LayerCount: 2
Fore
SplineSet
506 0 m 1,0,-1
 416 0 l 1,1,-1
 492 331 l 1,2,-1
 228 331 l 1,3,-1
 150 0 l 1,4,-1
 60 0 l 1,5,-1
 226 714 l 1,6,-1
 316 714 l 1,7,-1
 246 416 l 1,8,-1
 511 416 l 1,9,-1
 581 714 l 1,10,-1
 671 714 l 1,11,-1
 506 0 l 1,0,-1
EndSplineSet
Validated: 1
EndChar
StartChar: I
Encoding: 73 73 44
Width: 600
GlyphClass: 2
Flags: W
LayerCount: 2
Fore
SplineSet
461 0 m 1,0,-1
 100 0 l 1,1,-1
 115 60 l 1,2,-1
 252 70 l 1,3,-1
 386 644 l 1,4,-1
 252 654 l 1,5,-1
 267 714 l 1,6,-1
 628 714 l 1,7,-1
 613 654 l 1,8,-1
 477 644 l 1,9,-1
 343 70 l 1,10,-1
 477 60 l 1,11,-1
 461 0 l 1,0,-1
EndSplineSet
Validated: 1
EndChar
StartChar: J
Encoding: 74 74 45
Width: 1229
GlyphClass: 2
Flags: W
LayerCount: 2
Fore
SplineSet
179.703125 214.551757812 m 2,0,1
 314.720703125 153 314.720703125 153 451.655177909 153 c 0,2,3
 602.108037071 153 602.108037071 153 706.755863792 230.88671875 c 0,4,5
 811.138200036 309.638671875 811.138200036 309.638671875 845.37656526 452.837890625 c 2,6,-1
 1083.65625 1462 l 1,7,-1
 1266.91796875 1462 l 1,8,-1
 1031.76772121 451.686523438 l 2,9,10
 980.649907313 235.454101562 980.649907313 235.454101562 816.957196545 107.725585938 c 128,-1,11
 653.266467049 -20 653.266467049 -20 427.309304877 -20 c 0,12,13
 224.083984375 -20 224.083984375 -20 136.809570312 39.8740234375 c 2,14,-1
 134 41.8017578125 l 1,15,-1
 174.126953125 217.09375 l 1,16,-1
 179.703125 214.551757812 l 2,0,1
EndSplineSet
EndChar
StartChar: K
Encoding: 75 75 46
Width: 600
GlyphClass: 2
Flags: W
LayerCount: 2
Fore
SplineSet
553 0 m 1,0,-1
 453 0 l 1,1,-1
 325 339 l 1,2,-1
 251 286 l 1,3,-1
 183 0 l 1,4,-1
 94 0 l 1,5,-1
 260 714 l 1,6,-1
 349 714 l 1,7,-1
 268 363 l 1,8,-1
 336 438 l 1,9,-1
 610 714 l 1,10,-1
 713 714 l 1,11,-1
 397 402 l 1,12,-1
 553 0 l 1,0,-1
EndSplineSet
Validated: 1
EndChar
StartChar: L
Encoding: 76 76 47
Width: 600
GlyphClass: 2
Flags: W
LayerCount: 2
Fore
SplineSet
275 714 m 1,0,-1
 364 714 l 1,1,-1
 213 85 l 1,2,-1
 512 85 l 1,3,-1
 491 0 l 1,4,-1
 104 0 l 1,5,-1
 275 714 l 1,0,-1
EndSplineSet
Validated: 1
EndChar
StartChar: M
Encoding: 77 77 48
Width: 600
GlyphClass: 2
Flags: W
LayerCount: 2
Fore
SplineSet
320 0 m 1,0,-1
 246 0 l 1,1,-1
 259 617 l 1,2,3
 238 495 238 495 223 429 c 2,4,-1
 124 0 l 1,5,-1
 50 0 l 1,6,-1
 216 714 l 1,7,-1
 333 714 l 1,8,-1
 316 136 l 1,9,-1
 562 714 l 1,10,-1
 681 714 l 1,11,-1
 521 0 l 1,12,-1
 446 0 l 1,13,-1
 541 436 l 2,14,15
 553 484 553 484 589 616 c 1,16,-1
 320 0 l 1,0,-1
EndSplineSet
Validated: 1
EndChar
StartChar: N
Encoding: 78 78 49
Width: 1229
GlyphClass: 2
Flags: W
LayerCount: 2
Fore
SplineSet
1033.26367188 0 m 1,0,-1
 825.244140625 0 l 1,1,-1
 555.391601562 1209.31445312 l 1,2,3
 508.91015625 935.793945312 508.91015625 935.793945312 477.157226562 796.873046875 c 2,4,-1
 293.262695312 -0 l 1,5,-1
 123 -0 l 1,6,-1
 462.3046875 1462 l 1,7,-1
 668.321289062 1462 l 1,8,-1
 937.154296875 263.403320312 l 1,9,10
 992.749023438 558.60546875 992.749023438 558.60546875 1015.41308594 658.12890625 c 2,11,-1
 1201.30761719 1462 l 1,12,-1
 1372.56933594 1462 l 1,13,-1
 1033.26367188 0 l 1,0,-1
EndSplineSet
EndChar
StartChar: P
Encoding: 80 80 51
Width: 1229
GlyphClass: 2
Flags: W
LayerCount: 2
Fore
SplineSet
343.262695312 0 m 1,0,-1
 160 0 l 1,1,-1
 510.311523438 1462 l 1,2,-1
 889.2890625 1462 l 2,3,4
 1300.96191406 1462 1300.96191406 1462 1300.96191406 1163.90917969 c 0,5,6
 1300.96191406 1103.24804688 1300.96191406 1103.24804688 1284.15917969 1030.26660156 c 0,7,8
 1232.76074219 810.778320312 1232.76074219 810.778320312 1074.36816406 687.375 c 0,9,10
 911.989532151 564 911.989532151 564 657.105627855 564 c 2,11,-1
 479.078059334 564 l 1,12,-1
 343.262695312 0 l 1,0,-1
523.576171875 732 m 1,13,-1
 675.2890625 732 l 2,14,15
 857.623046875 732 857.623046875 732 956.333938152 802.375 c 0,16,17
 1056.8359375 872.65625 1056.8359375 872.65625 1092.42089844 1022.55859375 c 0,18,19
 1103.125 1068.80566406 1103.125 1068.80566406 1103.125 1107.13476562 c 0,20,21
 1103.125 1293 1103.125 1293 837.2890625 1293 c 2,22,-1
 654.266601562 1293 l 1,23,-1
 523.576171875 732 l 1,13,-1
EndSplineSet
EndChar
StartChar: Q
Encoding: 81 81 52
Width: 600
GlyphClass: 2
Flags: W
LayerCount: 2
Fore
SplineSet
280 -10 m 0,0,1
 98 -10 98 -10 98 193 c 0,2,3
 98 264 98 264 120 359 c 0,4,5
 205 725 205 725 454 725 c 0,6,7
 573 725 573 725 613 629 c 0,8,9
 633 582 633 582 633 514 c 0,10,11
 633 446 633 446 612 357 c 0,12,13
 553 102 553 102 403 19 c 1,14,15
 422 -66 422 -66 495 -129 c 2,16,-1
 497 -130 l 1,17,-1
 421 -203 l 1,18,-1
 420 -201 l 2,19,20
 331 -118 331 -118 314 -7 c 1,21,22
 297 -10 297 -10 280 -10 c 0,0,1
194 210 m 0,23,24
 194 75 194 75 299 75 c 0,25,26
 378 75 378 75 431 144.5 c 128,-1,27
 484 214 484 214 518 358 c 0,28,29
 539 449 539 449 539 510 c 0,30,31
 539 547 539 547 531 573 c 0,32,33
 510 640 510 640 435 640 c 0,34,35
 282 640 282 640 214 357 c 0,36,37
 194 270 194 270 194 210 c 0,23,24
EndSplineSet
Validated: 1
EndChar
StartChar: R
Encoding: 82 82 53
Width: 1229
GlyphClass: 2
Flags: W
LayerCount: 2
Fore
SplineSet
353.263671875 -0 m 1,0,-1
 169 -0 l 1,1,-1
 512.248441266 1462 l 1,2,-1
 854.549287024 1462 l 2,3,4
 1058.53515625 1462 1058.53515625 1462 1161.35644531 1388.93554688 c 128,-1,5
 1264.17871094 1315.87109375 1264.17871094 1315.87109375 1264.17871094 1170.00683594 c 0,6,7
 1264.17871094 1112.50585938 1264.17871094 1112.50585938 1248.16210938 1043.73730469 c 0,8,9
 1182.0703125 758.291992188 1182.0703125 758.291992188 889.479711284 652.487304688 c 1,10,-1
 1108.22363281 0 l 1,11,-1
 894.595703125 0 l 1,12,-1
 705.095067194 599 l 1,13,-1
 495.898559135 599 l 1,14,-1
 353.263671875 -0 l 1,0,-1
534.932124265 767 m 1,15,-1
 684.406242935 767 l 2,16,17
 844.739158757 767 844.739158757 767 934.74609375 831.356445312 c 0,18,19
 1023.83105469 895.713867188 1023.83105469 895.713867188 1056.41503906 1036.55761719 c 0,20,21
 1067.93554688 1085.3203125 1067.93554688 1085.3203125 1067.93554688 1122.52929688 c 0,22,23
 1067.93554688 1194.78222656 1067.93554688 1194.78222656 1030.2109375 1233.07910156 c 0,24,25
 971.182617188 1293 971.182617188 1293 806.66471773 1293 c 2,26,-1
 659.93166431 1293 l 1,27,-1
 534.932124265 767 l 1,15,-1
EndSplineSet
EndChar
StartChar: S
Encoding: 83 83 54
Width: 1229
GlyphClass: 2
Flags: W
LayerCount: 2
Fore
SplineSet
188.904296875 236.495117188 m 2,0,1
 363.87109375 151 363.87109375 151 554.132133245 151 c 0,2,3
 880.84014336 151 880.84014336 151 935.740968086 385.3671875 c 0,4,5
 943.250187385 417.202148438 943.250187385 417.202148438 943.250187385 440.598632812 c 128,-1,6
 943.250187385 463.994140625 943.250187385 463.994140625 939.321693584 481.129882812 c 0,7,8
 931.510282453 515.202148438 931.510282453 515.202148438 908.068122719 539.6640625 c 0,9,10
 855.545200925 594.47265625 855.545200925 594.47265625 670.905992251 670.475585938 c 0,11,12
 489.765273266 743.561523438 489.765273266 743.561523438 427.515737688 845.729492188 c 0,13,14
 389.101706621 908.776367188 389.101706621 908.776367188 389.101706621 994.67578125 c 0,15,16
 389.101706621 1048.34765625 389.101706621 1048.34765625 404.104292534 1110.91699219 c 0,17,18
 445.126090483 1285.48730469 445.126090483 1285.48730469 590.654740689 1384.24316406 c 128,-1,19
 736.183390895 1483 736.183390895 1483 951.650129491 1483 c 0,20,21
 1165.89550781 1483 1165.89550781 1483 1322.9453125 1404.47460938 c 2,22,-1
 1327.77148438 1402.0625 l 1,23,-1
 1224.65625 1229.50292969 l 1,24,-1
 1220.5390625 1231.49707031 l 2,25,26
 1060.25291955 1309 1060.25291955 1309 903.144872858 1309 c 0,27,28
 766.461030765 1309 766.461030765 1309 686.905315809 1258.15917969 c 128,-1,29
 607.350591647 1207.31738281 607.350591647 1207.31738281 583.41997102 1105.38378906 c 0,30,31
 575.26574555 1071.47949219 575.26574555 1071.47949219 575.26574555 1042.734375 c 128,-1,32
 575.26574555 1013.98925781 575.26574555 1013.98925781 582.794780707 990.168945312 c 128,-1,33
 590.323815864 966.348632812 590.323815864 966.348632812 605.370987457 946.721679688 c 128,-1,34
 620.567768775 926.899414062 620.567768775 926.899414062 650.250932912 905.787109375 c 0,35,36
 710.436646903 862.979492188 710.436646903 862.979492188 828.011066563 816.314453125 c 0,37,38
 1040.58964389 728.331054688 1040.58964389 728.331054688 1097.02734375 634.108398438 c 0,39,40
 1131.703125 575.599609375 1131.703125 575.599609375 1131.703125 496.619140625 c 0,41,42
 1131.703125 448.060546875 1131.703125 448.060546875 1118.58789062 391.782226562 c 0,43,44
 1074.04971052 199.37890625 1074.04971052 199.37890625 916.357096022 89.689453125 c 128,-1,45
 758.66547232 -20 758.66547232 -20 516.592972299 -20 c 0,46,47
 267.407226562 -20 267.407226562 -20 143.2734375 49.6357421875 c 2,48,-1
 140 51.47265625 l 1,49,-1
 183.25390625 239.256835938 l 1,50,-1
 188.904296875 236.495117188 l 2,0,1
EndSplineSet
EndChar
StartChar: T
Encoding: 84 84 55
Width: 1229
GlyphClass: 2
Flags: W
LayerCount: 2
Fore
SplineSet
665.268554688 -0 m 1,0,-1
 482.0078125 -0 l 1,1,-1
 783.816240793 1288 l 1,2,-1
 392 1288 l 1,3,-1
 432.317382812 1462 l 1,4,-1
 1403.58398438 1462 l 1,5,-1
 1363.26660156 1288 l 1,6,-1
 971.689485487 1288 l 1,7,-1
 665.268554688 -0 l 1,0,-1
EndSplineSet
EndChar
StartChar: U
Encoding: 85 85 56
Width: 1229
GlyphClass: 2
Flags: W
LayerCount: 2
Fore
SplineSet
949.498160637 118.2578125 m 128,-1,1
 796.98652387 -20 796.98652387 -20 564.636494141 -20 c 0,2,3
 206.778320312 -20 206.778320312 -20 206.778320312 313.168945312 c 0,4,5
 206.778320312 405.110351562 206.778320312 405.110351562 234.126953125 522.46484375 c 2,6,-1
 452.01953125 1462 l 1,7,-1
 635.286132812 1462 l 1,8,-1
 418.873046875 530.989257812 l 2,9,10
 397.821289062 440.141601562 397.821289062 440.141601562 397.821289062 371.0625 c 0,11,12
 397.821289062 261.24609375 397.821289062 261.24609375 450.526367188 207.123046875 c 0,13,14
 503.982465959 153 503.982465959 153 612.332800995 153 c 0,15,16
 886.407188917 153 886.407188917 153 981.855300322 535.2109375 c 1,17,-1
 1200.02148438 1464 l 1,18,-1
 1383.28808594 1464 l 1,19,-1
 1162.87207031 516.258789062 l 2,20,0
 1102.00880637 256.516601562 1102.00880637 256.516601562 949.498160637 118.2578125 c 128,-1,1
EndSplineSet
EndChar
StartChar: V
Encoding: 86 86 57
Width: 1229
GlyphClass: 2
Flags: W
LayerCount: 2
Fore
SplineSet
784.106864316 538.321289062 m 2,0,-1
 1276.38769531 1462 l 1,1,-1
 1472.8046875 1462 l 1,2,-1
 666.877476352 -0 l 1,3,-1
 483.786132812 -0 l 1,4,-1
 368 1462 l 1,5,-1
 560.095703125 1462 l 1,6,-1
 621.250249984 530.357421875 l 2,7,8
 627.581807574 442.256835938 627.581807574 442.256835938 627.581807574 315.810546875 c 0,9,10
 627.581807574 270.903320312 627.581807574 270.903320312 626.78355395 221.165039062 c 1,11,12
 687.795484776 358.529296875 687.795484776 358.529296875 784.106864316 538.321289062 c 2,0,-1
EndSplineSet
EndChar
StartChar: W
Encoding: 87 87 58
Width: 600
GlyphClass: 2
Flags: W
LayerCount: 2
Fore
SplineSet
356 492 m 1,0,-1
 441 492 l 1,1,-1
 451 235 l 2,2,3
 453 152 453 152 451 108 c 1,4,5
 470 169 470 169 542 388 c 1,6,-1
 650 714 l 1,7,-1
 733 714 l 1,8,-1
 481 0 l 1,9,-1
 391 0 l 1,10,-1
 380 286 l 2,11,12
 378 346 378 346 378 409 c 1,13,14
 349 334 349 334 324 284 c 1,15,-1
 183 0 l 1,16,-1
 93 0 l 1,17,-1
 166 714 l 1,18,-1
 248 714 l 1,19,-1
 213 387 l 2,20,21
 204 301 204 301 189 203 c 0,22,23
 179 142 179 142 174 111 c 1,24,25
 199 173 199 173 233 239 c 1,26,-1
 356 492 l 1,0,-1
EndSplineSet
Validated: 33
EndChar
StartChar: X
Encoding: 88 88 59
Width: 600
GlyphClass: 2
Flags: W
LayerCount: 2
Fore
SplineSet
546 0 m 1,0,-1
 445 0 l 1,1,-1
 355 307 l 1,2,-1
 116 0 l 1,3,-1
 23 0 l 1,4,-1
 318 373 l 1,5,-1
 204 714 l 1,6,-1
 300 714 l 1,7,-1
 387 444 l 1,8,-1
 603 714 l 1,9,-1
 697 714 l 1,10,-1
 422 375 l 1,11,-1
 546 0 l 1,0,-1
EndSplineSet
Validated: 1
EndChar
StartChar: Y
Encoding: 89 89 60
Width: 600
GlyphClass: 2
Flags: W
LayerCount: 2
Fore
SplineSet
300 273 m 1,0,-1
 180 714 l 1,1,-1
 277 714 l 1,2,-1
 364 356 l 1,3,-1
 622 714 l 1,4,-1
 719 714 l 1,5,-1
 392 277 l 1,6,-1
 327 0 l 1,7,-1
 236 0 l 1,8,-1
 300 273 l 1,0,-1
EndSplineSet
Validated: 1
EndChar
StartChar: Z
Encoding: 90 90 61
Width: 600
GlyphClass: 2
Flags: W
LayerCount: 2
Fore
SplineSet
519 0 m 1,0,-1
 45 0 l 1,1,-1
 62 74 l 1,2,-1
 554 628 l 1,3,-1
 202 628 l 1,4,-1
 222 714 l 1,5,-1
 676 714 l 1,6,-1
 659 640 l 1,7,-1
 168 85 l 1,8,-1
 539 85 l 1,9,-1
 519 0 l 1,0,-1
EndSplineSet
Validated: 1
EndChar
StartChar: bracketleft
Encoding: 91 91 62
Width: 1229
GlyphClass: 2
Flags: W
LayerCount: 2
Fore
SplineSet
293.714362105 -329 m 1,0,-1
 711.996016608 1467 l 1,1,-1
 1219.27036483 1467 l 1,2,-1
 1182.98848564 1308 l 1,3,-1
 858.325054824 1308 l 1,4,-1
 510.285531776 -169 l 1,5,-1
 839.207614741 -169 l 1,6,-1
 800.993853022 -329 l 1,7,-1
 293.714362105 -329 l 1,0,-1
EndSplineSet
EndChar
StartChar: backslash
Encoding: 92 92 63
Width: 1229
GlyphClass: 2
Flags: W
LayerCount: 2
Fore
SplineSet
770.767505621 -5 m 1,0,-1
 524.091719028 1467 l 1,1,-1
 699.229643948 1467 l 1,2,-1
 946.912270487 -5 l 1,3,-1
 770.767505621 -5 l 1,0,-1
EndSplineSet
EndChar
StartChar: bracketright
Encoding: 93 93 64
Width: 600
GlyphClass: 2
Flags: W
LayerCount: 2
Fore
SplineSet
275 639 m 1,0,-1
 293 716 l 1,1,-1
 541 716 l 1,2,-1
 336 -161 l 1,3,-1
 89 -161 l 1,4,-1
 107 -83 l 1,5,-1
 265 -83 l 1,6,-1
 435 639 l 1,7,-1
 275 639 l 1,0,-1
EndSplineSet
Validated: 1
EndChar
StartChar: asciicircum
Encoding: 94 94 65
Width: 600
GlyphClass: 2
Flags: W
LayerCount: 2
Fore
SplineSet
410 722 m 1,0,-1
 461 722 l 1,1,-1
 576 266 l 1,2,-1
 498 266 l 1,3,-1
 414 621 l 1,4,-1
 185 266 l 1,5,-1
 107 266 l 1,6,-1
 410 722 l 1,0,-1
EndSplineSet
Validated: 1
EndChar
StartChar: underscore
Encoding: 95 95 66
Width: 1229
GlyphClass: 2
Flags: W
LayerCount: 2
Fore
SplineSet
1258 -329 m 1,0,-1
 -21 -329 l 1,1,-1
 -21 -179 l 1,2,-1
 1258 -179 l 1,3,-1
 1258 -329 l 1,0,-1
EndSplineSet
EndChar
StartChar: grave
Encoding: 96 96 67
Width: 600
GlyphClass: 2
Flags: W
LayerCount: 2
Fore
SplineSet
448 604 m 1,0,1
 387 675 387 675 358 756 c 1,2,-1
 361 769 l 1,3,-1
 464 769 l 1,4,5
 483 680 483 680 510 619 c 1,6,-1
 506 604 l 1,7,-1
 448 604 l 1,0,1
EndSplineSet
Validated: 1
EndChar
StartChar: a
Encoding: 97 97 68
Width: 600
GlyphClass: 2
Flags: W
LayerCount: 2
Fore
SplineSet
441 338 m 2,0,1
 446 358 446 358 446 374 c 0,2,3
 446 440 446 440 365 440 c 0,4,5
 303 440 303 440 216 404 c 2,6,-1
 213 402 l 1,7,-1
 200 471 l 1,8,9
 298 519 298 519 380 519 c 0,10,11
 478 519 478 519 512 478 c 0,12,13
 534 453 534 453 534 408 c 0,14,15
 534 381 534 381 526 348 c 2,16,-1
 444 0 l 1,17,-1
 383 0 l 1,18,-1
 384 73 l 1,19,20
 340 27 340 27 300 8.5 c 128,-1,21
 260 -10 260 -10 204 -10 c 0,22,23
 134 -10 134 -10 104 31 c 0,24,25
 84 57 84 57 84 96 c 0,26,27
 84 118 84 118 90 144 c 0,28,29
 126 299 126 299 348 306 c 1,30,-1
 435 309 l 1,31,-1
 441 338 l 2,0,1
177 144 m 0,32,33
 174 130 174 130 173 118 c 0,34,35
 173 67 173 67 240 67 c 0,36,37
 302 67 302 67 348 103 c 0,38,39
 393 139 393 139 409 206 c 2,40,-1
 418 247 l 1,41,-1
 352 244 l 1,42,43
 268 241 268 241 228 217 c 0,44,45
 188 193 188 193 177 144 c 0,32,33
EndSplineSet
Validated: 1
EndChar
StartChar: b
Encoding: 98 98 69
Width: 600
GlyphClass: 2
Flags: W
LayerCount: 2
Fore
SplineSet
529 449 m 0,0,1
 546 412 546 412 546 360 c 0,2,3
 546 314 546 314 532 255 c 0,4,5
 503 130 503 130 438 60 c 0,6,7
 371 -10 371 -10 284 -10 c 0,8,9
 194 -10 194 -10 163 67 c 1,10,-1
 161 67 l 1,11,-1
 129 0 l 1,12,-1
 67 0 l 1,13,-1
 244 760 l 1,14,-1
 330 760 l 1,15,16
 278 540 278 540 275.5 529.5 c 128,-1,17
 273 519 273 519 271.5 513 c 128,-1,18
 270 507 270 507 268 500.5 c 128,-1,19
 266 494 266 494 264.5 487 c 128,-1,20
 263 480 263 480 260 472 c 0,21,22
 256 457 256 457 252 441 c 1,23,24
 317 519 317 519 409 519 c 0,25,26
 496 519 496 519 529 449 c 0,0,1
211 255 m 0,27,28
 197 198 197 198 197 160 c 0,29,30
 197 130 197 130 205 111 c 0,31,32
 224 69 224 69 287 69 c 0,33,34
 401 69 401 69 446 257 c 0,35,36
 458 308 458 308 458 345 c 0,37,38
 458 441 458 441 376 440 c 0,39,40
 311 440 311 440 273 398.5 c 128,-1,41
 235 357 235 357 211 255 c 0,27,28
EndSplineSet
Validated: 33
EndChar
StartChar: c
Encoding: 99 99 70
Width: 1229
GlyphClass: 2
Flags: W
LayerCount: 2
Fore
SplineSet
1071.92675781 840.44921875 m 2,0,1
 956.91015625 893 956.91015625 893 855.435366028 893 c 0,2,3
 535.018973415 893 535.018973415 893 445.873046875 516.932617188 c 0,4,5
 426.837890625 435.108398438 426.837890625 435.108398438 426.837890625 371.444335938 c 0,6,7
 426.837890625 149 426.837890625 149 666.066055197 149 c 0,8,9
 802.296202206 149 802.296202206 149 958.240234375 206.680664062 c 2,10,-1
 966.971679688 209.969726562 l 1,11,-1
 928.326171875 42.505859375 l 1,12,13
 792.090012048 -20 792.090012048 -20 618.979631963 -20 c 0,14,15
 391.294921875 -20 391.294921875 -20 299.311523438 119.482421875 c 0,16,17
 244.080078125 203.234375 244.080078125 203.234375 244.080078125 330.405273438 c 0,18,19
 244.080078125 414.309570312 244.080078125 414.309570312 268.12890625 517.173828125 c 0,20,21
 330.487304688 783.256835938 330.487304688 783.256835938 488.791015625 923.127929688 c 0,22,23
 650.809750183 1063 650.809750183 1063 885.120285024 1063 c 0,24,25
 1040.13867188 1063 1040.13867188 1063 1164.15820312 1003.51074219 c 2,26,-1
 1169.0078125 1001.18457031 l 1,27,-1
 1076.07519531 838.553710938 l 1,28,-1
 1071.92675781 840.44921875 l 2,0,1
EndSplineSet
EndChar
StartChar: d
Encoding: 100 100 71
Width: 1229
GlyphClass: 2
Flags: W
LayerCount: 2
Fore
SplineSet
809.682617188 -0 m 1,0,-1
 818.627929688 145.11328125 l 1,1,2
 678.146333103 -20 678.146333103 -20 491.994475277 -20 c 0,3,4
 313.8046875 -20 313.8046875 -20 246.459960938 124.072265625 c 0,5,6
 211.15234375 199.609375 211.15234375 199.609375 211.15234375 306.330078125 c 0,7,8
 211.15234375 401.32421875 211.15234375 401.32421875 239.126953125 521.125 c 0,9,10
 298.423828125 777.056640625 298.423828125 777.056640625 432.12109375 920.028320312 c 0,11,12
 567.639714242 1063 567.639714242 1063 745.753699822 1063 c 0,13,14
 928.354616454 1063 928.354616454 1063 994.222843747 904 c 1,15,-1
 997.61857382 904 l 1,16,17
 1019.46443729 1041.46777344 1019.46443729 1041.46777344 1027.51887073 1076.12890625 c 2,18,-1
 1139.02246094 1556 l 1,19,-1
 1310.28613281 1556 l 1,20,-1
 948.978515625 -0 l 1,21,-1
 809.682617188 -0 l 1,0,-1
898.127929688 521.133789062 m 1,22,23
 923.113078718 637.766601562 923.113078718 637.766601562 923.113078718 716.6171875 c 0,24,25
 923.113078718 778.002929688 923.113078718 778.002929688 906.296271626 816.165039062 c 0,26,27
 868.473597449 902 868.473597449 902 739.653300532 902 c 0,28,29
 506.798557523 902 506.798557523 902 415.872070312 516.931640625 c 0,30,31
 391.4765625 412.229492188 391.4765625 412.229492188 391.4765625 336.54296875 c 0,32,33
 391.4765625 141 391.4765625 141 558.890789077 141 c 0,34,35
 690.439133795 141 690.439133795 141 767.94377981 221.162109375 c 0,36,37
 844.435546875 301.323242188 844.435546875 301.323242188 890.123046875 482.620117188 c 1,38,-1
 898.127929688 521.133789062 l 1,22,23
EndSplineSet
EndChar
StartChar: e
Encoding: 101 101 72
Width: 600
GlyphClass: 2
Flags: W
LayerCount: 2
Fore
SplineSet
197 234 m 1,0,1
 190 202 190 202 191 176 c 0,2,3
 191 72 191 72 303 73 c 0,4,5
 387 73 387 73 469 107 c 2,6,-1
 473 109 l 1,7,-1
 455 28 l 1,8,9
 373 -9 373 -9 286 -10 c 0,10,11
 179 -10 179 -10 132 60 c 0,12,13
 103 103 103 103 103 167 c 0,14,15
 103 206 103 206 114 252 c 0,16,17
 142 375 142 375 218 447 c 0,18,19
 294 519 294 519 394 519 c 0,20,21
 486 519 486 519 526 456 c 0,22,23
 551 417 551 417 551 361 c 0,24,25
 551 327 551 327 541 288 c 2,26,-1
 529 234 l 1,27,-1
 197 234 l 1,0,1
217 311 m 1,28,-1
 456 311 l 1,29,30
 462 339 462 339 462 361 c 0,31,32
 462 414 462 414 424 432 c 0,33,34
 404 441 404 441 375 440 c 0,35,36
 260 440 260 440 217 311 c 1,28,-1
EndSplineSet
Validated: 33
EndChar
StartChar: f
Encoding: 102 102 73
Width: 1229
GlyphClass: 2
Flags: W
LayerCount: 2
Fore
SplineSet
826.787257262 1046 m 1,0,-1
 1164.58789062 1046 l 1,1,-1
 1130.25195312 899 l 1,2,-1
 792.859839488 899 l 1,3,-1
 464.26171875 -492 l 1,4,-1
 293 -492 l 1,5,-1
 617.423472542 899 l 1,6,-1
 345.020507812 899 l 1,7,-1
 372.1875 1018.53808594 l 1,8,-1
 653.290281887 1052.54199219 l 1,9,-1
 677.929505876 1155.11914062 l 1,10,11
 728.168698601 1370.5625 728.168698601 1370.5625 831.806800472 1468.78125 c 128,-1,12
 935.444902343 1567 935.444902343 1567 1120.28515625 1567 c 0,13,14
 1233.15332031 1567 1233.15332031 1567 1331.96484375 1531.70996094 c 2,15,-1
 1337.13671875 1529.86328125 l 1,16,-1
 1263.80566406 1372.57324219 l 1,17,18
 1179.30371094 1407 1179.30371094 1407 1091.28346883 1407 c 0,19,20
 986.649812614 1407 986.649812614 1407 936.233588248 1350.70117188 c 0,21,22
 885.142057792 1293.6484375 885.142057792 1293.6484375 853.858179913 1160.87011719 c 2,23,-1
 826.787257262 1046 l 1,0,-1
EndSplineSet
EndChar
StartChar: g
Encoding: 103 103 74
Width: 600
GlyphClass: 2
Flags: W
LayerCount: 2
Fore
SplineSet
595 450 m 1,0,-1
 509 438 l 1,1,2
 519 415 519 415 519 387 c 0,3,4
 519 365 519 365 513 340 c 0,5,6
 495 265 495 265 439 220 c 0,7,8
 382 175 382 175 299 175 c 0,9,10
 276 175 276 175 263 178 c 1,11,12
 216 153 216 153 208 119 c 0,13,14
 207 115 207 115 207 111 c 0,15,16
 207 84 207 84 264 84 c 0,17,18
 265 84 265 84 266 84 c 2,19,-1
 347 84 l 2,20,21
 423 84 423 84 455 47 c 0,22,23
 476 22 476 22 476 -17 c 0,24,25
 476 -37 476 -37 470 -60 c 0,26,27
 427 -241 427 -241 181 -240 c 0,28,29
 86 -240 86 -240 46 -201 c 0,30,31
 17 -173 17 -173 17 -130 c 0,32,33
 17 -113 17 -113 21 -93 c 0,34,35
 44 5 44 5 152 34 c 1,36,37
 128 51 128 51 127 83 c 0,38,39
 127 94 127 94 130 106 c 0,40,41
 142 158 142 158 207 195 c 1,42,43
 167 217 167 217 157 270 c 0,44,45
 154 284 154 284 154 297 c 0,46,47
 154 318 154 318 160 340 c 0,48,49
 180 426 180 426 237.5 472.5 c 128,-1,50
 295 519 295 519 381 519 c 0,51,52
 418 519 418 519 444 509 c 1,53,-1
 609 509 l 1,54,-1
 595 450 l 1,0,-1
239 305 m 0,55,56
 239 241 239 241 313 241 c 0,57,58
 406 241 406 241 430 344 c 0,59,60
 435 367 435 367 435.5 387 c 128,-1,61
 436 407 436 407 428 421 c 0,62,63
 412 450 412 450 364 450 c 0,64,65
 363 450 l 0,66,67
 269 450 269 450 244 342 c 0,68,69
 239 321 239 321 239 305 c 0,55,56
380 -14 m 0,70,71
 363 0 363 0 300 -0 c 2,72,-1
 219 -0 l 2,73,74
 122 0 122 0 102 -90 c 0,75,76
 99 -101 99 -101 99 -111 c 0,77,78
 99 -168 99 -168 196 -168 c 0,79,80
 371 -168 371 -168 390 -58 c 0,81,82
 391 -50 391 -50 391 -43 c 0,83,84
 391 -23 391 -23 380 -14 c 0,70,71
EndSplineSet
Validated: 33
EndChar
StartChar: h
Encoding: 104 104 75
Width: 1229
GlyphClass: 2
Flags: W
LayerCount: 2
Fore
SplineSet
932.419921875 665.754882812 m 2,0,1
 944.73828125 718.122070312 944.73828125 718.122070312 944.73828125 758.913085938 c 0,2,3
 944.73828125 902 944.73828125 902 790.290039062 902 c 0,4,5
 525.883329474 902 525.883329474 902 437.896614835 534.94140625 c 2,6,-1
 310.267578125 0 l 1,7,-1
 138 0 l 1,8,-1
 504.47443975 1556 l 1,9,-1
 680.519720987 1556 l 1,10,-1
 559.455159017 1046.67675781 l 1,11,-1
 517.288038969 896.028320312 l 1,12,13
 649.296053356 1063 649.296053356 1063 854.290039062 1063 c 0,14,15
 1125.55371094 1063 1125.55371094 1063 1125.55371094 821.015625 c 0,16,17
 1125.55371094 758.3671875 1125.55371094 758.3671875 1107.16113281 679.4765625 c 2,18,-1
 948.264648438 -0 l 1,19,-1
 777.002929688 0 l 1,20,-1
 932.419921875 665.754882812 l 2,0,1
EndSplineSet
EndChar
StartChar: i
Encoding: 105 105 76
Width: 1229
GlyphClass: 2
Flags: W
LayerCount: 2
Fore
SplineSet
994.2421875 147.447265625 m 1,0,1
 907.305664062 129 907.305664062 129 814.852539062 129 c 0,2,3
 678.005859375 129 678.005859375 129 678.005859375 250.076171875 c 0,4,5
 678.005859375 280.723632812 678.005859375 280.723632812 686.983398438 319.140625 c 2,6,-1
 854.565429688 1043 l 1,7,-1
 472.842773438 1043 l 1,8,-1
 447 929.475585938 l 1,9,-1
 673.017578125 909.474609375 l 1,10,-1
 533.72265625 310.86328125 l 2,11,12
 519.026367188 247.7734375 519.026367188 247.7734375 519.026367188 197.092773438 c 0,13,14
 519.026367188 -10 519.026367188 -10 767.852539062 -10 c 0,15,16
 879.306640625 -10 879.306640625 -10 965.579101562 20.7763671875 c 1,17,-1
 994.2421875 147.447265625 l 1,0,1
839.833984375 1536.63378906 m 0,18,19
 864.962890625 1550 864.962890625 1550 897.852539062 1550 c 0,20,21
 976.485351562 1550 976.485351562 1550 976.485351562 1475.04785156 c 0,22,23
 976.485351562 1455.1328125 976.485351562 1455.1328125 970.282226562 1427.67675781 c 0,24,25
 957.287109375 1370.1640625 957.287109375 1370.1640625 921.005859375 1340.62109375 c 128,-1,26
 884.62890625 1311 884.62890625 1311 844.852539062 1311 c 0,27,28
 786.421875 1311 786.421875 1311 770.987304688 1353.36328125 c 0,29,30
 765.876953125 1367.390625 765.876953125 1367.390625 765.876953125 1385.73046875 c 0,31,32
 765.876953125 1406.13183594 765.876953125 1406.13183594 771.977539062 1432.11523438 c 0,33,34
 789.737304688 1509.98632812 789.737304688 1509.98632812 839.833984375 1536.63378906 c 0,18,19
EndSplineSet
EndChar
StartChar: j
Encoding: 106 106 77
Width: 1229
GlyphClass: 2
Flags: W
LayerCount: 2
Fore
SplineSet
933.665039062 1520.18554688 m 128,-1,1
 965.045898438 1550 965.045898438 1550 1013.87207031 1550 c 0,2,3
 1093.45800781 1550 1093.45800781 1550 1093.45800781 1474.72851562 c 0,4,5
 1093.45800781 1454.9296875 1093.45800781 1454.9296875 1087.73925781 1429.85449219 c 0,6,7
 1059.83496094 1311 1059.83496094 1311 961.872070312 1311 c 0,8,9
 883.23828125 1311 883.23828125 1311 883.23828125 1386.56542969 c 0,10,11
 883.23828125 1406.64550781 883.23828125 1406.64550781 888.997070312 1432.11523438 c 0,12,0
 902.283203125 1490.37109375 902.283203125 1490.37109375 933.665039062 1520.18554688 c 128,-1,1
53.517578125 -295.278320312 m 2,13,14
 158.721679688 -332 158.721679688 -332 292.476473361 -332 c 0,15,16
 392.432604317 -332 392.432604317 -332 461.236570591 -278.57421875 c 128,-1,17
 530.008748942 -225.172851562 530.008748942 -225.172851562 551.996058032 -129.872070312 c 2,18,-1
 794.767380696 894.627929688 l 1,19,-1
 432.658234311 914.458007812 l 1,20,-1
 463.37728854 1046 l 1,21,-1
 1002.15722656 1046 l 1,22,-1
 727.714730313 -125.123046875 l 2,23,24
 686.626852903 -300.830078125 686.626852903 -300.830078125 563.663219199 -396.423828125 c 128,-1,25
 440.721439692 -492 440.721439692 -492 257.89121298 -492 c 0,26,27
 114.002929688 -492 114.002929688 -492 15.19140625 -456.709960938 c 2,28,-1
 11 -455.212890625 l 1,29,-1
 48.2509765625 -293.439453125 l 1,30,-1
 53.517578125 -295.278320312 l 2,13,14
EndSplineSet
EndChar
StartChar: k
Encoding: 107 107 78
Width: 1229
GlyphClass: 2
Flags: W
LayerCount: 2
Fore
SplineSet
356.267578125 0 m 1,0,-1
 186 0 l 1,1,-1
 551.390495708 1556 l 1,2,-1
 725.29600906 1556 l 1,3,-1
 555.273504108 835.6640625 l 1,4,-1
 477.580420814 560.887695312 l 1,5,-1
 622.388805722 703.60546875 l 1,6,-1
 1056.33984375 1098 l 1,7,-1
 1261.39160156 1098 l 1,8,-1
 720.047514275 621.131835938 l 1,9,-1
 1027.27832031 -0 l 1,10,-1
 834.172851562 -0 l 1,11,-1
 581.975794851 501.805664062 l 1,12,-1
 455.780515451 423.872070312 l 1,13,-1
 356.267578125 0 l 1,0,-1
EndSplineSet
EndChar
StartChar: l
Encoding: 108 108 79
Width: 600
GlyphClass: 2
Flags: W
LayerCount: 2
Fore
SplineSet
343 154 m 2,0,1
 339 136 339 136 339 122 c 0,2,3
 339 68 339 68 400 68 c 0,4,5
 447 68 447 68 491 78 c 2,6,-1
 494 78 l 1,7,-1
 478 6 l 1,8,9
 433 -10 433 -10 377 -10 c 0,10,11
 251 -10 251 -10 251 96 c 0,12,13
 251 121 251 121 258 152 c 2,14,-1
 298 325 l 1,15,-1
 382 685 l 1,16,-1
 272 696 l 1,17,-1
 287 760 l 1,18,-1
 484 760 l 1,19,-1
 343 154 l 2,0,1
EndSplineSet
Validated: 1
EndChar
StartChar: m
Encoding: 109 109 80
Width: 600
GlyphClass: 2
Flags: W
LayerCount: 2
Fore
SplineSet
500 325 m 2,0,1
 512 375 512 375 511 402 c 0,2,3
 511 411 511 411 510 417 c 0,4,5
 505 441 505 441 482 440 c 0,6,7
 447 440 447 440 422 404 c 0,8,9
 396 367 396 367 374 278 c 2,10,-1
 306 0 l 1,11,-1
 231 0 l 1,12,-1
 307 325 l 2,13,14
 317 366 317 366 317 391.5 c 128,-1,15
 317 417 317 417 309 429 c 0,16,17
 301 441 301 441 285 440 c 0,18,19
 252 440 252 440 228 405 c 0,20,21
 204 370 204 370 178 261 c 2,22,-1
 114 0 l 1,23,-1
 39 0 l 1,24,-1
 159 509 l 1,25,-1
 222 509 l 1,26,-1
 217 438 l 1,27,28
 265 519 265 519 324 519 c 0,29,30
 397 519 397 519 399 432 c 1,31,32
 453 519 453 519 513 519 c 0,33,34
 569 519 569 519 585 475 c 0,35,36
 591 458 591 458 591 432 c 0,37,38
 591 392 591 392 576 332 c 2,39,-1
 499 0 l 1,40,-1
 424 0 l 1,41,-1
 500 325 l 2,0,1
EndSplineSet
Validated: 33
EndChar
StartChar: n
Encoding: 110 110 81
Width: 1229
GlyphClass: 2
Flags: W
LayerCount: 2
Fore
SplineSet
932.41796875 665.754882812 m 2,0,1
 944.736328125 718.122070312 944.736328125 718.122070312 944.736328125 758.913085938 c 0,2,3
 944.736328125 902 944.736328125 902 790.288085938 902 c 0,4,5
 525.881376349 902 525.881376349 902 437.89466171 534.94140625 c 2,6,-1
 310.265625 0 l 1,7,-1
 138 0 l 1,8,-1
 382.866041137 1043 l 1,9,-1
 526.267580624 1043 l 1,10,-1
 516.048635453 896 l 1,11,-1
 517.263133136 896 l 1,12,13
 649.277135186 1063 649.277135186 1063 854.288085938 1063 c 0,14,15
 1125.55175781 1063 1125.55175781 1063 1125.55175781 821.015625 c 0,16,17
 1125.55175781 758.3671875 1125.55175781 758.3671875 1107.15917969 679.4765625 c 2,18,-1
 948.262695312 -0 l 1,19,-1
 777.000976562 0 l 1,20,-1
 932.41796875 665.754882812 l 2,0,1
EndSplineSet
EndChar
StartChar: o
Encoding: 111 111 82
Width: 1229
GlyphClass: 2
Flags: W
LayerCount: 2
Fore
SplineSet
250.686523438 129.094726562 m 0,0,1
 197.4375 218.850585938 197.4375 218.850585938 197.4375 344.603515625 c 0,2,3
 197.4375 426.677734375 197.4375 426.677734375 220.12890625 524.108398438 c 0,4,5
 278.463867188 773.25 278.463867188 773.25 430.7265625 918.125 c 0,6,7
 586.247432248 1063 586.247432248 1063 792.966508077 1063 c 0,8,9
 986.864257812 1063 986.864257812 1063 1074.81640625 914.396484375 c 0,10,11
 1128.00683594 824.525390625 1128.00683594 824.525390625 1128.00683594 698.866210938 c 0,12,13
 1128.00683594 617.823242188 1128.00683594 617.823242188 1105.87304688 521.872070312 c 0,14,15
 1047.53808594 270.735351562 1047.53808594 270.735351562 893.76953125 125.368164062 c 0,16,17
 736.68560354 -20 736.68560354 -20 532.023135633 -20 c 0,18,19
 339.139648438 -20 339.139648438 -20 250.686523438 129.094726562 c 0,0,1
374.803710938 350.869140625 m 0,20,21
 374.803710938 141 374.803710938 141 570.908814664 141 c 0,22,23
 838.019012901 141 838.019012901 141 929.12890625 524.099609375 c 0,24,25
 951.689453125 620.342773438 951.689453125 620.342773438 951.689453125 691.555664062 c 128,-1,26
 951.689453125 762.767578125 951.689453125 762.767578125 930.166992188 809.337890625 c 0,27,28
 887.344726562 902 887.344726562 902 754.080829046 902 c 0,29,30
 487.996936122 902 487.996936122 902 397.87109375 521.865234375 c 0,31,32
 374.936523438 423.51171875 374.936523438 423.51171875 374.803710938 350.869140625 c 0,20,21
EndSplineSet
EndChar
StartChar: p
Encoding: 112 112 83
Width: 600
GlyphClass: 2
Flags: W
LayerCount: 2
Fore
SplineSet
254 439 m 1,0,1
 321 519 321 519 414 519 c 0,2,3
 501 519 501 519 534 449 c 0,4,5
 551 412 551 412 551 360 c 0,6,7
 551 314 551 314 537 255 c 0,8,9
 508 130 508 130 443 60 c 0,10,11
 375 -10 375 -10 287 -10 c 0,12,13
 196 -10 196 -10 164 67 c 1,14,-1
 162 67 l 1,15,16
 153 6 153 6 149 -9 c 2,17,-1
 95 -240 l 1,18,-1
 11 -240 l 1,19,-1
 191 509 l 1,20,-1
 259 509 l 1,21,-1
 254 439 l 1,0,1
199 157.5 m 128,-1,23
 199 130 199 130 208 111 c 0,24,25
 227 69 227 69 290 69 c 0,26,27
 406 69 406 69 451 257 c 0,28,29
 463 308 463 308 463 345 c 0,30,31
 463 441 463 441 381 440 c 0,32,33
 317 440 317 440 279 402 c 0,34,35
 242 363 242 363 219 274 c 1,36,37
 208 236 208 236 205 219 c 0,38,22
 199 185 199 185 199 157.5 c 128,-1,23
EndSplineSet
Validated: 33
EndChar
StartChar: q
Encoding: 113 113 84
Width: 600
GlyphClass: 2
Flags: W
LayerCount: 2
Fore
SplineSet
398 71 m 1,0,1
 330 -10 330 -10 240 -10 c 0,2,3
 153 -10 153 -10 120 61 c 0,4,5
 103 98 103 98 103 150 c 0,6,7
 103 196 103 196 117 254 c 0,8,9
 146 379 146 379 211 449 c 0,10,11
 277 519 277 519 364 519 c 0,12,13
 453 520 453 520 485 438 c 1,14,-1
 485 438 l 1,15,-1
 513 509 l 1,16,-1
 582 509 l 1,17,-1
 406 -240 l 1,18,-1
 321 -240 l 1,19,-1
 375 -9 l 2,20,21
 379 11 379 11 399 71 c 1,22,-1
 398 71 l 1,0,1
437 254 m 1,23,24
 451 311 451 311 451 350 c 0,25,26
 451 380 451 380 443 399 c 0,27,28
 425 441 425 441 361 440 c 0,29,30
 247 440 247 440 203 252 c 0,31,32
 191 201 191 201 191 164 c 0,33,34
 191 69 191 69 272 69 c 0,35,36
 335 69 335 69 373 108 c 128,-1,37
 411 147 411 147 433 236 c 1,38,-1
 437 254 l 1,23,24
EndSplineSet
Validated: 37
EndChar
StartChar: r
Encoding: 114 114 85
Width: 1229
GlyphClass: 2
Flags: W
LayerCount: 2
Fore
SplineSet
1084.27050781 845.424804688 m 2,0,1
 990.23046875 887 990.23046875 887 903.564829048 887 c 0,2,3
 761.971166889 887 761.971166889 887 664.281093029 802.25 c 0,4,5
 567.809570312 717.264648438 567.809570312 717.264648438 530.16015625 555.607421875 c 2,6,-1
 400.264648438 -0 l 1,7,-1
 228 -0 l 1,8,-1
 471.310546875 1043 l 1,9,-1
 612.98828125 1043 l 1,10,-1
 587.211914062 846.705078125 l 1,11,12
 680.431464076 961.618164062 680.431464076 961.618164062 768.733945621 1011.81445312 c 0,13,14
 858.775542698 1063 858.775542698 1063 971.288085938 1063 c 0,15,16
 1072.42480469 1063 1072.42480469 1063 1167.44238281 1017.51269531 c 2,17,-1
 1171.97949219 1015.34082031 l 1,18,-1
 1088.68164062 843.473632812 l 1,19,-1
 1084.27050781 845.424804688 l 2,0,1
EndSplineSet
EndChar
StartChar: s
Encoding: 115 115 86
Width: 600
GlyphClass: 2
Flags: W
LayerCount: 2
Fore
SplineSet
113 107 m 2,0,1
 185 68 185 68 260 68 c 0,2,3
 377 68 377 68 395 140 c 0,4,5
 397 147 397 147 396 153 c 0,6,7
 396 170 396 170 385 183 c 0,8,9
 369 202 369 202 299 231 c 0,10,11
 207 271 207 271 189 305 c 0,12,13
 178 326 178 326 178 352 c 0,14,15
 178 367 178 367 182 384 c 0,16,17
 197 447 197 447 254 483 c 0,18,19
 312 519 312 519 398 519 c 0,20,21
 483 519 483 519 548 483 c 2,22,-1
 550 481 l 1,23,-1
 506 407 l 1,24,-1
 504 408 l 2,25,26
 436 440 436 440 377 440 c 0,27,28
 278 440 278 440 263 381 c 0,29,30
 261 374 261 374 261 367 c 0,31,32
 261 351 261 351 274 339 c 0,33,34
 291 323 291 323 362 294 c 0,35,36
 445 258 445 258 467 224 c 0,37,38
 481 201 481 201 481 171 c 0,39,40
 481 156 481 156 477 138 c 0,41,42
 461 68 461 68 401 30 c 0,43,44
 340 -9 340 -9 246 -10 c 0,45,46
 139 -10 139 -10 93 24 c 2,47,-1
 91 25 l 1,48,-1
 110 108 l 1,49,-1
 113 107 l 2,0,1
EndSplineSet
Validated: 1
EndChar
StartChar: t
Encoding: 116 116 87
Width: 600
GlyphClass: 2
Flags: W
LayerCount: 2
Fore
SplineSet
441 6 m 1,0,1
 379 -10 379 -10 325 -10 c 0,2,3
 198 -10 198 -10 198 95 c 0,4,5
 198 120 198 120 205 150 c 2,6,-1
 272 438 l 1,7,-1
 161 438 l 1,8,-1
 172 488 l 1,9,-1
 290 512 l 1,10,-1
 364 679 l 1,11,-1
 417 679 l 1,12,-1
 376 509 l 1,13,-1
 561 509 l 1,14,-1
 544 438 l 1,15,-1
 359 438 l 1,16,-1
 290 153 l 2,17,18
 286 135 286 135 286 121 c 0,19,20
 286 68 286 68 349 68 c 0,21,22
 389 68 389 68 457 78 c 1,23,-1
 441 6 l 1,0,1
EndSplineSet
Validated: 1
EndChar
StartChar: u
Encoding: 117 117 88
Width: 1229
GlyphClass: 2
Flags: W
LayerCount: 2
Fore
SplineSet
222.126953125 363.516601562 m 2,0,-1
 380.01953125 1043 l 1,1,-1
 552.287109375 1043 l 1,2,-1
 396.870117188 377.245117188 l 2,3,4
 384.50390625 324.673828125 384.50390625 324.673828125 384.50390625 283.76953125 c 0,5,6
 384.50390625 141 384.50390625 141 538 141 c 0,7,8
 676.523108489 141 676.523108489 141 760.099890048 225.788085938 c 128,-1,9
 843.676671607 310.575195312 843.676671607 310.575195312 890.37344816 507.076171875 c 2,10,-1
 1019.02734375 1043 l 1,11,-1
 1190.28808594 1043 l 1,12,-1
 945.400060241 0 l 1,13,-1
 803.017454052 0 l 1,14,-1
 813.236396883 146 l 1,15,-1
 812.003936493 146 l 1,16,17
 678.995014875 -20 678.995014875 -20 477 -20 c 0,18,19
 203.821289062 -20 203.821289062 -20 203.821289062 222.567382812 c 0,20,21
 203.821289062 238.209960938 203.821289062 238.209960938 204.967773438 254.844726562 c 128,-1,22
 206.114257812 271.479492188 206.114257812 271.479492188 208.40625 289.09765625 c 0,23,24
 212.984375 324.302734375 212.984375 324.302734375 222.126953125 363.516601562 c 2,0,-1
EndSplineSet
EndChar
StartChar: v
Encoding: 118 118 89
Width: 1229
GlyphClass: 2
Flags: W
LayerCount: 2
Fore
SplineSet
428.102539062 0 m 1,0,-1
 312 1043 l 1,1,-1
 482.099609375 1043 l 1,2,-1
 546.651571724 419.504882812 l 2,3,4
 563.088579558 258.653320312 563.088579558 258.653320312 563.088579558 167.172851562 c 0,5,6
 563.088579558 144.088867188 563.088579558 144.088867188 562.044502728 125.41015625 c 1,7,8
 589.736877342 185.829101562 589.736877342 185.829101562 717.205644607 421.439453125 c 1,9,-1
 1071.65234375 1043 l 1,10,-1
 1245.20507812 1043 l 1,11,-1
 635.076236554 0 l 1,12,-1
 428.102539062 0 l 1,0,-1
EndSplineSet
EndChar
StartChar: w
Encoding: 119 119 90
Width: 600
GlyphClass: 2
Flags: W
LayerCount: 2
Fore
SplineSet
175 0 m 1,0,-1
 91 0 l 1,1,-1
 116 509 l 1,2,-1
 189 509 l 1,3,-1
 172 255 l 2,4,5
 166 173 166 173 154 83 c 1,6,7
 185 164 185 164 219 240 c 1,8,-1
 340 509 l 1,9,-1
 425 509 l 1,10,-1
 416 239 l 2,11,12
 413 155 413 155 407 83 c 1,13,14
 444 189 444 189 473 256 c 2,15,-1
 577 509 l 1,16,-1
 648 509 l 1,17,-1
 430 0 l 1,18,-1
 344 0 l 1,19,-1
 354 279 l 1,20,-1
 360 425 l 1,21,-1
 298 276 l 1,22,-1
 175 0 l 1,0,-1
EndSplineSet
Validated: 1
EndChar
StartChar: x
Encoding: 120 120 91
Width: 1229
GlyphClass: 2
Flags: W
LayerCount: 2
Fore
SplineSet
273.423828125 0 m 1,0,-1
 83 0 l 1,1,-1
 565.952506369 535.813476562 l 1,2,-1
 345.568359375 1043 l 1,3,-1
 533.522460938 1043 l 1,4,-1
 692.908571273 658.415039062 l 1,5,-1
 1034.88183594 1043 l 1,6,-1
 1224.34472656 1043 l 1,7,-1
 758.497057736 533.924804688 l 1,8,-1
 995.748046875 -0 l 1,9,-1
 808.794921875 0 l 1,10,-1
 638.404249279 409.611328125 l 1,11,-1
 273.423828125 0 l 1,0,-1
EndSplineSet
EndChar
StartChar: y
Encoding: 121 121 92
Width: 1229
GlyphClass: 2
Flags: W
LayerCount: 2
Fore
SplineSet
456.767578125 -16.98046875 m 1,0,-1
 312.229492188 1043 l 1,1,-1
 482.362304688 1043 l 1,2,-1
 563.283493867 409.634765625 l 2,3,4
 580.055234358 279.71484375 580.055234358 279.71484375 580.055234358 199.564453125 c 0,5,6
 580.055234358 170.6640625 580.055234358 170.6640625 577.880659938 148.221679688 c 1,7,8
 623.987796787 252.922851562 623.987796787 252.922851562 715.533505575 413.426757812 c 2,9,-1
 1072.01171875 1043 l 1,10,-1
 1245.55761719 1043 l 1,11,-1
 549.432378682 -152.475585938 l 2,12,13
 451.883789062 -321.1953125 451.883789062 -321.1953125 355.76171875 -406.245117188 c 0,14,15
 258.84375 -492 258.84375 -492 121.951171875 -492 c 0,16,17
 47.3037109375 -492 47.3037109375 -492 -23 -473.612304688 c 1,18,-1
 12.197265625 -318.956054688 l 1,19,20
 66.546875 -332 66.546875 -332 129.951171875 -332 c 0,21,22
 210.330078125 -332 210.330078125 -332 263.521484375 -293.44921875 c 0,23,24
 317.197265625 -254.545898438 317.197265625 -254.545898438 374.616210938 -159.508789062 c 1,25,-1
 456.767578125 -16.98046875 l 1,0,-1
EndSplineSet
EndChar
StartChar: z
Encoding: 122 122 93
Width: 600
GlyphClass: 2
Flags: W
LayerCount: 2
Fore
SplineSet
446 0 m 1,0,-1
 77 0 l 1,1,-1
 92 60 l 1,2,-1
 457 438 l 1,3,-1
 193 438 l 1,4,-1
 209 509 l 1,5,-1
 558 509 l 1,6,-1
 540 436 l 1,7,-1
 183 71 l 1,8,-1
 463 71 l 1,9,-1
 446 0 l 1,0,-1
EndSplineSet
Validated: 1
EndChar
StartChar: braceleft
Encoding: 123 123 94
Width: 1229
GlyphClass: 2
Flags: W
LayerCount: 2
Fore
SplineSet
590.076343986 346.489606691 m 0,0,1
 590.076343986 487 590.076343986 487 318 487 c 2,2,-1
 311.704706893 487 l 1,3,-1
 350.027287538 652 l 1,4,-1
 354 652 l 2,5,6
 666.310976736 652 666.310976736 652 710.332616906 837.129296929 c 2,7,-1
 788.979833848 1170.12348312 l 2,8,9
 857.289821013 1460.94194253 857.289821013 1460.94194253 1273.92533177 1466.99945263 c 2,10,-1
 1280.29155085 1467.09284459 l 1,11,-1
 1244.00198612 1308.05916389 l 1,12,13
 1107.448024 1306.02104505 1107.448024 1306.02104505 1047.6132122 1269.23734927 c 0,14,15
 987.40562406 1232.8317581 987.40562406 1232.8317581 968.486575219 1153.867507 c 2,16,-1
 889.838036358 821.867707274 l 2,17,18
 840.433061571 613.274772397 840.433061571 613.274772397 609.445831037 570.719605609 c 1,19,-1
 608.801541877 566.934901955 l 1,20,21
 693.571609682 549.476142999 693.571609682 549.476142999 736.632568064 504.322464234 c 128,-1,22
 779.693526447 459.168785469 779.693526447 459.168785469 779.693526447 387.047612457 c 0,23,24
 779.693526447 353.388697874 779.693526447 353.388697874 770.335505456 313.878161304 c 2,25,-1
 692.70293497 -17.14459457 l 2,26,27
 686.937943298 -41.2064939697 686.937943298 -41.2064939697 686.937943298 -61.227904 c 0,28,29
 686.937943298 -106.110058546 686.937943298 -106.110058546 716.086999138 -130.711825912 c 0,30,31
 759.115495822 -167.027824323 759.115495822 -167.027824323 893.112185054 -169.000575119 c 2,32,-1
 899.40753717 -169.093257714 l 1,33,-1
 862.372235056 -329.059387745 l 1,34,35
 497.771186441 -323.765647554 497.771186441 -323.765647554 497.771186441 -105.768439385 c 0,36,37
 497.771186441 -70.559904513 497.771186441 -70.559904513 507.127554096 -29.8738815255 c 2,38,-1
 584.700870989 304.13651308 l 2,39,40
 590.076343986 326.742611641 590.076343986 326.742611641 590.076343986 346.489606691 c 0,0,1
EndSplineSet
EndChar
StartChar: bar
Encoding: 124 124 95
Width: 600
GlyphClass: 2
Flags: W
LayerCount: 2
Fore
SplineSet
261 762 m 1,0,-1
 338 762 l 1,1,-1
 338 -243 l 1,2,-1
 261 -243 l 1,3,-1
 261 762 l 1,0,-1
EndSplineSet
Validated: 1
Substitution2: "Single Substitution lookup 8 subtable" bar_greater
EndChar
StartChar: braceright
Encoding: 125 125 96
Width: 1229
GlyphClass: 2
Flags: W
LayerCount: 2
Fore
SplineSet
637.2103847 685.674647767 m 0,0,1
 626.331014325 715.111039848 626.331014325 715.111039848 626.331014325 749.937255953 c 128,-1,2
 626.331014325 784.763472058 626.331014325 784.763472058 635.651827724 824.118660008 c 2,3,-1
 713.281698947 1156.14459457 l 2,4,5
 718.999614235 1180.0110654 718.999614235 1180.0110654 718.999614235 1199.94608214 c 0,6,7
 718.999614235 1245.17309738 718.999614235 1245.17309738 689.384492273 1270.21478045 c 0,8,9
 645.86444866 1307.01405958 645.86444866 1307.01405958 512.920093334 1308.00014614 c 2,10,-1
 506.566197361 1308.04727482 l 1,11,-1
 543.626003745 1467.05915273 l 1,12,-1
 547.762554283 1466.99944724 l 2,13,14
 909.209302326 1461.76405263 909.209302326 1461.76405263 909.209302326 1243.62195782 c 0,15,16
 909.209302326 1208.47507292 909.209302326 1208.47507292 899.871712046 1167.87070307 c 0,17,18
 820.920626827 829.021501682 820.920626827 829.021501682 819.942858358 823.706369844 c 128,-1,19
 818.933008377 818.216843475 818.933008377 818.216843475 818.263245519 812.922953102 c 0,20,21
 816.925102583 802.346102031 816.925102583 802.346102031 816.925102583 792.510393309 c 0,22,23
 816.925102583 652 816.925102583 652 1089 652 c 2,24,-1
 1095.29529311 652 l 1,25,-1
 1056.97271246 487 l 1,26,-1
 1053 487 l 2,27,28
 740.693845176 487 740.693845176 487 696.67491346 301.873881525 c 2,29,-1
 618.030435571 -32.1234831177 l 2,30,31
 549.723445405 -322.942083273 549.723445405 -322.942083273 132.074486438 -328.999455291 c 2,32,-1
 125.717971224 -329.092477465 l 1,33,-1
 161.998813032 -169.029940078 l 1,34,35
 297.562849892 -168.010661605 297.562849892 -168.010661605 357.583960621 -130.924446846 c 0,36,37
 418.590572441 -93.8382320867 418.590572441 -93.8382320867 437.507780564 -14.8781613038 c 2,38,-1
 515.133977065 316.132292726 l 2,39,40
 564.570033162 524.865715005 564.570033162 524.865715005 796.826763802 567.336646747 c 1,41,-1
 797.79866726 571.142939497 l 1,42,43
 669.797774185 597.502709435 669.797774185 597.502709435 637.2103847 685.674647767 c 0,0,1
EndSplineSet
EndChar
StartChar: asciitilde
Encoding: 126 126 97
Width: 600
GlyphClass: 2
Flags: W
LayerCount: 2
Fore
SplineSet
277 420 m 0,0,1
 324 420 324 420 386 389 c 0,2,3
 439 362 439 362 472 362 c 0,4,5
 520 362 520 362 587 421 c 2,6,-1
 592 426 l 1,7,-1
 572 339 l 1,8,9
 514 285 514 285 445 285 c 0,10,11
 398 285 398 285 336 316 c 0,12,13
 282 343 282 343 251 343 c 0,14,15
 203 343 203 343 135 284 c 2,16,-1
 130 279 l 1,17,-1
 150 367 l 1,18,19
 208 420 208 420 277 420 c 0,0,1
EndSplineSet
Validated: 1
EndChar
StartChar: exclamdown
Encoding: 161 161 99
Width: 600
GlyphClass: 2
Flags: W
LayerCount: 2
Fore
SplineSet
369 408 m 0,0,1
 321 408 321 408 321 452 c 0,2,3
 321 464 321 464 324 479 c 0,4,5
 340 549 340 549 400 548 c 0,6,7
 448 548 448 548 448 504 c 0,8,9
 448 492 448 492 444 477 c 0,10,11
 436 442 436 442 417.5 425 c 128,-1,12
 399 408 399 408 369 408 c 0,0,1
321 333 m 1,13,-1
 380 333 l 1,14,-1
 284 -185 l 1,15,-1
 178 -185 l 1,16,-1
 321 333 l 1,13,-1
EndSplineSet
Validated: 33
EndChar
StartChar: cent
Encoding: 162 162 100
Width: 600
GlyphClass: 2
Flags: W
LayerCount: 2
Fore
SplineSet
511 727 m 1,0,-1
 492 646 l 1,1,2
 564 644 564 644 628 617 c 2,3,-1
 630 616 l 1,4,-1
 582 535 l 1,5,6
 519 564 519 564 465 563 c 0,7,8
 295 563 295 563 248 363 c 0,9,10
 238 320 238 320 238 287 c 0,11,12
 238 169 238 169 366 168 c 0,13,14
 436 168 436 168 521 198 c 2,15,-1
 525 200 l 1,16,-1
 505 116 l 1,17,18
 441 87 441 87 360 85 c 1,19,-1
 337 -12 l 1,20,-1
 268 -12 l 1,21,-1
 292 89 l 1,22,23
 219 103 219 103 182 147 c 128,-1,24
 145 191 145 191 145 266 c 0,25,26
 145 310 145 310 158 363 c 0,27,28
 214 605 214 605 423 642 c 1,29,-1
 443 727 l 1,30,-1
 511 727 l 1,0,-1
EndSplineSet
Validated: 33
EndChar
StartChar: sterling
Encoding: 163 163 101
Width: 1229
GlyphClass: 2
Flags: W
LayerCount: 2
Fore
SplineSet
987.726008724 1324 m 0,0,1
 781.895654912 1324 781.895654912 1324 725.01447888 1081.85847249 c 2,2,-1
 656.517451304 793 l 1,3,-1
 1012.36519223 793 l 1,4,-1
 977.555010823 646 l 1,5,-1
 622.724367824 646 l 1,6,-1
 573.960398313 438.878232134 l 2,7,8
 530.466733399 252.020952796 530.466733399 252.020952796 392.745253265 171 c 1,9,-1
 1084.27481643 171 l 1,10,-1
 1043.4714017 -5 l 1,11,-1
 101.695450556 -5 l 1,12,-1
 139.826268802 158.115166942 l 1,13,-1
 142.790870158 158.852555096 l 2,14,15
 336.813738045 207.112050154 336.813738045 207.112050154 390.721697141 439.1453908 c 1,16,-1
 439.95003176 646 l 1,17,-1
 253.69661474 646 l 1,18,-1
 288.032381163 793 l 1,19,-1
 473.745443127 793 l 1,20,-1
 548.874319784 1113.13347997 l 2,21,22
 588.805654812 1282.80109859 588.805654812 1282.80109859 715.876217679 1384.38614647 c 128,-1,23
 842.982812922 1486 842.982812922 1486 1015.09906592 1486 c 0,24,25
 1196.46262776 1486 1196.46262776 1486 1322.69004518 1405.21445285 c 2,26,-1
 1326.96507011 1402.4784369 l 1,27,-1
 1226.48477125 1250.17145757 l 1,28,29
 1165.39438326 1288.41935266 1165.39438326 1288.41935266 1107.08188306 1306.20967633 c 0,30,31
 1048.32122114 1324 1048.32122114 1324 987.726008724 1324 c 0,0,1
EndSplineSet
EndChar
StartChar: currency
Encoding: 164 164 102
Width: 600
GlyphClass: 2
Flags: W
LayerCount: 2
Fore
SplineSet
190 250 m 1,0,1
 179 277 179 277 180 307 c 0,2,3
 180 340 180 340 192 375 c 0,4,5
 206 418 206 418 238 457 c 1,6,-1
 194 520 l 1,7,-1
 254 572 l 1,8,-1
 298 508 l 1,9,10
 352 540 352 540 404.5 540.5 c 128,-1,11
 457 541 457 541 495 508 c 1,12,-1
 569 571 l 1,13,-1
 606 521 l 1,14,-1
 532 457 l 1,15,16
 543 428 543 428 543 397 c 0,17,18
 543 375 543 375 538 352 c 0,19,20
 524 294 524 294 484 248 c 1,21,-1
 528 186 l 1,22,-1
 468 136 l 1,23,-1
 423 198 l 1,24,25
 370 167 370 167 316.5 167 c 128,-1,26
 263 167 263 167 226 199 c 1,27,-1
 154 137 l 1,28,-1
 118 187 l 1,29,-1
 190 250 l 1,0,1
419.5 272 m 128,-1,31
 460 306 460 306 471 354 c 0,32,33
 475 369 475 369 475 383 c 0,34,35
 475 413 475 413 459 436 c 0,36,37
 435 470 435 470 389.5 470 c 128,-1,38
 344 470 344 470 304 436 c 128,-1,39
 264 402 264 402 253 352 c 0,40,41
 249 337 249 337 249 325.5 c 128,-1,42
 249 314 249 314 251 305 c 0,43,44
 255 287 255 287 265 271 c 0,45,46
 289 238 289 238 334 238 c 128,-1,30
 379 238 379 238 419.5 272 c 128,-1,31
EndSplineSet
Validated: 33
EndChar
StartChar: yen
Encoding: 165 165 103
Width: 600
GlyphClass: 2
Flags: W
LayerCount: 2
Fore
SplineSet
197 716 m 1,0,-1
 289 716 l 1,1,-1
 362 359 l 1,2,-1
 603 716 l 1,3,-1
 696 716 l 1,4,-1
 432 341 l 1,5,-1
 541 341 l 1,6,-1
 524 270 l 1,7,-1
 385 270 l 1,8,-1
 368 197 l 1,9,-1
 507 197 l 1,10,-1
 490 125 l 1,11,-1
 351 125 l 1,12,-1
 321 -2 l 1,13,-1
 234 -2 l 1,14,-1
 264 125 l 1,15,-1
 127 125 l 1,16,-1
 144 197 l 1,17,-1
 281 197 l 1,18,-1
 297 270 l 1,19,-1
 160 270 l 1,20,-1
 177 341 l 1,21,-1
 283 341 l 1,22,-1
 197 716 l 1,0,-1
EndSplineSet
Validated: 1
EndChar
StartChar: brokenbar
Encoding: 166 166 104
Width: 1229
GlyphClass: 2
Flags: W
LayerCount: 2
Fore
SplineSet
994.286132812 1561 m 1,0,-1
 811.978515625 771 l 1,1,-1
 663.713867188 771 l 1,2,-1
 846.021484375 1561 l 1,3,-1
 994.286132812 1561 l 1,0,-1
553.020507812 294 m 1,4,-1
 702.291992188 294 l 1,5,-1
 518.974609375 -497 l 1,6,-1
 370.715820312 -497 l 1,7,-1
 553.020507812 294 l 1,4,-1
EndSplineSet
EndChar
StartChar: section
Encoding: 167 167 105
Width: 600
GlyphClass: 2
Flags: W
LayerCount: 2
Fore
SplineSet
254 -7 m 0,0,1
 160 -7 160 -7 113 25 c 2,2,-1
 112 26 l 1,3,-1
 131 108 l 1,4,-1
 134 106 l 2,5,6
 202 66 202 66 271 66 c 0,7,8
 380 66 380 66 395 133 c 0,9,10
 397 141 397 141 397 149 c 0,11,12
 397 166 397 166 387 179 c 0,13,14
 372 198 372 198 309 228 c 0,15,16
 227 269 227 269 210 307 c 0,17,18
 200 329 200 329 200 356 c 0,19,20
 200 375 200 375 205 396 c 0,21,22
 225 482 225 482 305 521 c 1,23,24
 257 552 257 552 257 605 c 0,25,26
 257 605 l 0,27,28
 257 620 257 620 261 637 c 0,29,30
 275 697 275 697 332 732.5 c 128,-1,31
 389 768 389 768 470 768 c 0,32,33
 545 768 545 768 611 732 c 2,34,-1
 614 731 l 1,35,-1
 570 659 l 1,36,37
 505 692 505 692 450 692 c 0,38,39
 359 692 359 692 346 638 c 0,40,41
 345 632 345 632 345 626 c 0,42,43
 345 608 345 608 358 594 c 0,44,45
 376 575 376 575 437 546 c 0,46,47
 503 515 503 515 528 477 c 0,48,49
 545 451 545 451 545 418 c 0,50,51
 545 401 545 401 540 382 c 0,52,53
 520 294 520 294 446 251 c 1,54,55
 489 220 489 220 488 171 c 0,56,57
 488 157 488 157 485 141 c 0,58,59
 469 73 469 73 407.5 33 c 128,-1,60
 346 -7 346 -7 254 -7 c 0,0,1
280 386 m 0,61,62
 280 364 280 364 294 345 c 0,63,64
 314 319 314 319 375 289 c 1,65,-1
 389 283 l 1,66,67
 449 319 449 319 460 371 c 0,68,69
 463 383 463 383 463 393 c 0,70,71
 463 420 463 420 444 439 c 0,72,73
 417 466 417 466 362 489 c 1,74,75
 297 466 297 466 283 405 c 0,76,77
 280 395 280 395 280 386 c 0,61,62
EndSplineSet
Validated: 37
EndChar
StartChar: dieresis
Encoding: 168 168 106
Width: 600
GlyphClass: 2
Flags: W
LayerCount: 2
Fore
SplineSet
359 733 m 0,0,1
 377 733 377 733 386.5 724.5 c 128,-1,2
 396 716 396 716 396 700 c 0,3,4
 396 692 396 692 393 681 c 0,5,6
 387 655 387 655 373 641.5 c 128,-1,7
 359 628 359 628 336 628 c 0,8,9
 299 628 299 628 299 663 c 0,10,11
 299 671 299 671 301 682 c 0,12,13
 309 716 309 716 332 728 c 0,14,15
 344 733 344 733 359 733 c 0,0,1
529 733 m 0,16,17
 566 733 566 733 566 700 c 0,18,19
 566 692 566 692 564 681 c 0,20,21
 558 655 558 655 543.5 641.5 c 128,-1,22
 529 628 529 628 506 628 c 0,23,24
 469 628 469 628 469 663 c 0,25,26
 469 671 469 671 472 682 c 0,27,28
 478 708 478 708 492 720.5 c 128,-1,29
 506 733 506 733 529 733 c 0,16,17
EndSplineSet
Validated: 1
EndChar
StartChar: copyright
Encoding: 169 169 107
Width: 1229
GlyphClass: 2
Flags: W
LayerCount: 2
Fore
SplineSet
920.406251501 1488 m 0,0,1
 1192.07712704 1488 1192.07712704 1488 1296.46629417 1281.24863986 c 0,2,3
 1355.29120879 1164.74104197 1355.29120879 1164.74104197 1355.29120879 1003.25950972 c 0,4,5
 1355.29120879 879.748030223 1355.29120879 879.748030223 1320.87101835 729.867707274 c 0,6,7
 1240.55748703 383.515603473 1240.55748703 383.515603473 1040.89241906 179.257801736 c 0,8,9
 839.40540819 -25 839.40540819 -25 567.582239131 -25 c 0,10,11
 296.919523424 -25 296.919523424 -25 193.031529302 181.255676136 c 0,12,13
 134.614325069 297.235198686 134.614325069 297.235198686 134.614325069 458.158056903 c 0,14,15
 134.614325069 581.840668892 134.614325069 581.840668892 169.127323161 732.125116281 c 0,16,17
 248.435971897 1076.46519877 248.435971897 1076.46519877 447.068466837 1282.23259938 c 0,18,19
 647.535587241 1488 647.535587241 1488 920.406251501 1488 c 0,0,1
979.351431851 262.22050404 m 0,20,21
 1140.43232625 431.441008081 1140.43232625 431.441008081 1210.12887956 732.131852369 c 0,22,23
 1242.23684211 870.65477648 1242.23684211 870.65477648 1242.23684211 981.268784626 c 0,24,25
 1242.23684211 1110.37867814 1242.23684211 1110.37867814 1198.49124449 1201.33751221 c 0,26,27
 1117.85591311 1369 1117.85591311 1369 894.563659327 1369 c 128,-1,28
 671.155649096 1369 671.155649096 1369 510.150643361 1199.28580515 c 0,29,30
 349.573922513 1029.5716103 349.573922513 1029.5716103 280.873822122 729.879868015 c 0,31,32
 249.153846154 591.507219228 249.153846154 591.507219228 249.153846154 480.846153846 c 0,33,34
 249.153846154 352.196300309 249.153846154 352.196300309 292.02650952 261.125176884 c 0,35,36
 371.173157118 93 371.173157118 93 594.443032701 93 c 128,-1,37
 817.840852105 93 817.840852105 93 979.351431851 262.22050404 c 0,20,21
674.02729476 267 m 0,38,39
 487.546046201 267 487.546046201 267 415.622847917 393.053179932 c 0,40,41
 374.079497908 466.015798615 374.079497908 466.015798615 374.079497908 569.764062254 c 0,42,43
 374.079497908 644.04037712 374.079497908 644.04037712 395.331763787 734.122104386 c 0,44,45
 444.34221754 944.595124933 444.34221754 944.595124933 577.950338971 1068.79756247 c 128,-1,46
 711.558460402 1193 711.558460402 1193 894.044717035 1193 c 0,47,48
 1016.10742762 1193 1016.10742762 1193 1121.57323791 1130.28696829 c 2,49,-1
 1126.09709137 1127.56387204 l 1,50,-1
 1033.44236511 992.277553072 l 1,51,52
 984.216256392 1021.40815232 984.216256392 1021.40815232 942.524635881 1034.70407616 c 128,-1,53
 900.833015369 1048 900.833015369 1048 862.61365671 1048 c 0,54,55
 750.240252495 1048 750.240252495 1048 670.345420244 963.783443714 c 128,-1,56
 590.450587994 879.566887427 590.450587994 879.566887427 555.269275513 729.866266433 c 0,57,58
 536.94337804 652.025129035 536.94337804 652.025129035 536.94337804 593.232538411 c 0,59,60
 536.94337804 413 536.94337804 413 711.541786115 413 c 0,61,62
 798.850607597 413 798.850607597 413 922.72201386 457.697283761 c 2,63,-1
 931.488727315 460.860631064 l 1,64,-1
 898.42475437 318.461368743 l 1,65,66
 782.591929999 267 782.591929999 267 674.02729476 267 c 0,38,39
EndSplineSet
EndChar
StartChar: ordfeminine
Encoding: 170 170 108
Width: 1229
GlyphClass: 2
Flags: W
LayerCount: 2
Fore
SplineSet
997.129882812 1227.33300781 m 2,0,1
 1002.5546875 1250.203125 1002.5546875 1250.203125 1002.5546875 1268.85839844 c 0,2,3
 1002.5546875 1310.69433594 1002.5546875 1310.69433594 975.224609375 1331.34667969 c 128,-1,4
 947.893554688 1352 947.893554688 1352 889.973662146 1352 c 0,5,6
 781.269961138 1352 781.269961138 1352 643.764648438 1301.32128906 c 2,7,-1
 637.78515625 1299.06152344 l 1,8,-1
 623.587890625 1419.19140625 l 1,9,10
 772.941012079 1479 772.941012079 1479 926 1479 c 0,11,12
 1155.58984375 1479 1155.58984375 1479 1155.58984375 1312.92675781 c 0,13,14
 1155.58984375 1279.05175781 1155.58984375 1279.05175781 1145.87304688 1238.33984375 c 2,15,-1
 1042.98242188 796.815429688 l 1,16,-1
 932.166992188 796.815429688 l 1,17,-1
 928.396484375 906.467773438 l 1,18,19
 797.387219017 784 797.387219017 784 644 784 c 0,20,21
 470.603515625 784 470.603515625 784 470.603515625 923.533203125 c 0,22,23
 470.603515625 954.141601562 470.603515625 954.141601562 479.129882812 991.483398438 c 0,24,25
 506.626953125 1107.57324219 506.626953125 1107.57324219 599.54296875 1159.24804688 c 0,26,27
 691.60546875 1210.44824219 691.60546875 1210.44824219 880.25655491 1216.3828125 c 1,28,-1
 995.866210938 1221.13378906 l 1,29,-1
 997.129882812 1227.33300781 l 2,0,1
629.862304688 985.831054688 m 0,30,31
 626.262695312 970.404296875 626.262695312 970.404296875 626.262695312 957.81640625 c 0,32,33
 626.262695312 920.435546875 626.262695312 920.435546875 658.580078125 908.259765625 c 0,34,35
 675.1953125 902 675.1953125 902 701 902 c 0,36,37
 801.702043023 902 801.702043023 902 875.148791887 955.955078125 c 0,38,39
 946.5 1009.83789062 946.5 1009.83789062 967.111328125 1099.05664062 c 1,40,-1
 969.874023438 1112.8671875 l 1,41,-1
 881.652951414 1111.00097656 l 2,42,43
 770.870102514 1109.01855469 770.870102514 1109.01855469 707.662109375 1083.69335938 c 0,44,45
 647.271484375 1058.36816406 647.271484375 1058.36816406 629.862304688 985.831054688 c 0,30,31
EndSplineSet
EndChar
StartChar: guillemotleft
Encoding: 171 171 109
Width: 600
GlyphClass: 2
Flags: W
LayerCount: 2
Fore
SplineSet
148 271 m 1,0,-1
 339 476 l 1,1,-1
 388 434 l 1,2,-1
 237 264 l 1,3,-1
 307 93 l 1,4,-1
 240 53 l 1,5,-1
 144 257 l 1,6,-1
 148 271 l 1,0,-1
334 271 m 1,7,-1
 526 476 l 1,8,-1
 574 434 l 1,9,-1
 426 264 l 1,10,-1
 496 93 l 1,11,-1
 429 53 l 1,12,-1
 331 257 l 1,13,-1
 334 271 l 1,7,-1
EndSplineSet
Validated: 1
EndChar
StartChar: logicalnot
Encoding: 172 172 110
Width: 600
GlyphClass: 2
Flags: W
LayerCount: 2
Fore
SplineSet
450 125 m 1,0,-1
 494 313 l 1,1,-1
 138 313 l 1,2,-1
 155 392 l 1,3,-1
 585 392 l 1,4,-1
 523 125 l 1,5,-1
 450 125 l 1,0,-1
EndSplineSet
Validated: 1
EndChar
StartChar: registered
Encoding: 174 174 112
Width: 600
GlyphClass: 2
Flags: W
LayerCount: 2
Fore
SplineSet
449 727 m 0,0,1
 582 727 582 727 633 626 c 0,2,3
 662 569 662 569 662 490 c 0,4,5
 662 430 662 430 645 356 c 0,6,7
 606 187 606 187 508 88 c 0,8,9
 410 -12 410 -12 277 -12 c 0,10,11
 145 -12 145 -12 94 89 c 0,12,13
 65 146 65 146 66 224 c 0,14,15
 66 284 66 284 83 357 c 0,16,17
 122 525 122 525 218 626 c 0,18,19
 316 727 316 727 449 727 c 0,0,1
478 128 m 0,20,21
 557 211 557 211 591 357 c 0,22,23
 607 425 607 425 607 479 c 0,24,25
 607 542 607 542 585 587 c 0,26,27
 546 669 546 669 437 668.5 c 128,-1,28
 328 668 328 668 249 586 c 0,29,30
 171 503 171 503 137 356 c 0,31,32
 122 288 122 288 122 235 c 0,33,34
 122 172 122 172 143 128 c 0,35,36
 182 46 182 46 290.5 45.5 c 128,-1,37
 399 45 399 45 478 128 c 0,20,21
187 137 m 1,38,-1
 290 578 l 1,39,-1
 400 578 l 2,40,41
 527 578 527 578 527 486 c 0,42,43
 527 468 527 468 522 445 c 0,44,45
 504 365 504 365 423 331 c 1,46,-1
 487 137 l 1,47,-1
 400 137 l 1,48,-1
 345 309 l 1,49,-1
 305 309 l 1,50,-1
 265 137 l 1,51,-1
 187 137 l 1,38,-1
351 377 m 2,52,53
 402 377 402 377 426 407 c 0,54,55
 438 422 438 422 443 444 c 0,56,57
 446 456 446 456 446 466 c 0,58,59
 446 484 446 484 436 493 c 0,60,61
 421 507 421 507 381 506 c 2,62,-1
 351 506 l 1,63,-1
 321 377 l 1,64,-1
 351 377 l 2,52,53
EndSplineSet
Validated: 37
EndChar
StartChar: overscore
Encoding: 175 175 113
Width: 600
GlyphClass: 2
Flags: W
LayerCount: 2
Fore
SplineSet
749 757 m 1,0,-1
 163 757 l 1,1,-1
 180 831 l 1,2,-1
 767 831 l 1,3,-1
 749 757 l 1,0,-1
EndSplineSet
Validated: 1
EndChar
StartChar: degree
Encoding: 176 176 114
Width: 1229
GlyphClass: 2
Flags: W
LayerCount: 2
Fore
SplineSet
1096.59791094 1392.36402648 m 0,0,1
 1142.42408377 1326.94803931 1142.42408377 1326.94803931 1142.42408377 1244.54392698 c 0,2,3
 1142.42408377 1189.03630355 1142.42408377 1189.03630355 1122.58857913 1129.31752197 c 0,4,5
 1086.9235155 1021.94066497 1086.9235155 1021.94066497 993.74830644 942.20002094 c 0,6,7
 884.846108059 849 884.846108059 849 762 849 c 0,8,9
 637.379848436 849 637.379848436 849 571.885400775 943.659943885 c 0,10,11
 527.425531915 1007.9183481 527.425531915 1007.9183481 527.425531915 1088.91376188 c 0,12,13
 527.425531915 1126.73093559 527.425531915 1126.73093559 537.129699662 1168.13538464 c 0,14,15
 567.493838163 1298.7011802 567.493838163 1298.7011802 675.712444719 1393.26603733 c 128,-1,16
 784.124573123 1488 784.124573123 1488 906.863080185 1488 c 128,-1,17
 1029.60158725 1488 1029.60158725 1488 1096.59791094 1392.36402648 c 0,0,1
926.767958905 1036.81383946 m 0,18,19
 1002.25475886 1100.86324548 1002.25475886 1100.86324548 1013.58370667 1192.8437381 c 0,20,21
 1015.06722689 1204.88853898 1015.06722689 1204.88853898 1015.06722689 1218.66623952 c 128,-1,22
 1015.06722689 1232.44394006 1015.06722689 1232.44394006 1012.10674729 1247.34773675 c 0,23,24
 1006.19914932 1277.08806629 1006.19914932 1277.08806629 988.421389367 1302.10861733 c 0,25,26
 949.419617472 1357 949.419617472 1357 878.645403343 1357 c 128,-1,27
 807.871189214 1357 807.871189214 1357 743.281913353 1300.72903997 c 128,-1,28
 678.520149516 1244.30780632 678.520149516 1244.30780632 660.878250343 1165.89936556 c 0,29,30
 655.365217391 1142.0095561 655.365217391 1142.0095561 655.365217391 1120.32113422 c 0,31,32
 655.365217391 1073.05472598 655.365217391 1073.05472598 681.588596481 1035.87727714 c 0,33,34
 719.591318749 982 719.591318749 982 790.87862629 982 c 128,-1,35
 862.165933831 982 862.165933831 982 926.767958905 1036.81383946 c 0,18,19
EndSplineSet
EndChar
StartChar: plusminus
Encoding: 177 177 115
Width: 1229
GlyphClass: 2
Flags: W
LayerCount: 2
Fore
SplineSet
555.818251616 257 m 1,0,-1
 646.396031419 642 l 1,1,-1
 281.738932783 642 l 1,2,-1
 318.00559945 802 l 1,3,-1
 683.352211131 802 l 1,4,-1
 774.947718797 1191 l 1,5,-1
 926.859863619 1191 l 1,6,-1
 835.264355953 802 l 1,7,-1
 1197.30189147 802 l 1,8,-1
 1159.96855813 642 l 1,9,-1
 797.290003216 642 l 1,10,-1
 706.712223413 257 l 1,11,-1
 555.818251616 257 l 1,0,-1
1047.26106722 155 m 1,12,-1
 1010.99440055 -5 l 1,13,-1
 131.698108534 -5 l 1,14,-1
 169.031441868 155 l 1,15,-1
 1047.26106722 155 l 1,12,-1
EndSplineSet
EndChar
StartChar: twosuperior
Encoding: 178 178 116
Width: 1229
GlyphClass: 2
Flags: W
LayerCount: 2
Fore
SplineSet
465.74609375 667 m 1,0,-1
 490.469726562 776.642578125 l 1,1,-1
 711.641601562 976.703125 l 2,2,3
 841.346679688 1094.43554688 841.346679688 1094.43554688 881.36328125 1144.33203125 c 0,4,5
 929.313476562 1204.12304688 929.313476562 1204.12304688 938.209960938 1272.09570312 c 0,6,7
 939.564453125 1282.45214844 939.564453125 1282.45214844 939.564453125 1291.51953125 c 0,8,9
 939.564453125 1359 939.564453125 1359 862 1359 c 0,10,11
 788.752929688 1359 788.752929688 1359 695.120117188 1284.09375 c 2,12,-1
 690.708984375 1280.56542969 l 1,13,-1
 632.38671875 1375.20117188 l 1,14,15
 770.291015625 1482 770.291015625 1482 894 1482 c 0,16,17
 1006.45019531 1482 1006.45019531 1482 1054.45410156 1420.05859375 c 0,18,19
 1086.16992188 1379.13476562 1086.16992188 1379.13476562 1086.16992188 1318.70898438 c 0,20,21
 1085.37402344 1216.77050781 1085.37402344 1216.77050781 1013.57324219 1116.1015625 c 0,22,23
 964.719726562 1047.60546875 964.719726562 1047.60546875 814.271484375 918.219726562 c 2,24,-1
 667.407226562 791 l 1,25,-1
 998.26953125 791 l 1,26,-1
 969.989257812 667 l 1,27,-1
 465.74609375 667 l 1,0,-1
EndSplineSet
EndChar
StartChar: threesuperior
Encoding: 179 179 117
Width: 600
GlyphClass: 2
Flags: W
LayerCount: 2
Fore
SplineSet
323 317 m 0,0,1
 263 317 263 317 230 342 c 2,2,-1
 229 343 l 1,3,-1
 244 409 l 1,4,-1
 247 407 l 2,5,6
 289 376 289 376 330 375 c 0,7,8
 363 375 363 375 383.5 391.5 c 128,-1,9
 404 408 404 408 411 440 c 0,10,11
 413 450 413 450 414 459 c 0,12,13
 414 498 414 498 361 499 c 2,14,-1
 325 499 l 1,15,-1
 338 554 l 1,16,-1
 372 554 l 2,17,18
 426 554 426 554 440 614 c 0,19,20
 443 626 443 626 442 635 c 0,21,22
 442 665 442 665 410 666 c 0,23,24
 379 666 379 666 330 632 c 2,25,-1
 328 630 l 1,26,-1
 306 677 l 1,27,-1
 308 678 l 2,28,29
 370 724 370 724 427 724 c 0,30,31
 477 724 477 724 502 696 c 0,32,33
 518 677 518 677 518 649 c 0,34,35
 518 636 518 636 515 622 c 0,36,37
 500 556 500 556 431 530 c 1,38,39
 487 513 487 513 488 464 c 0,40,41
 488 452 488 452 484 438 c 0,42,43
 471 381 471 381 429.5 349 c 128,-1,44
 388 317 388 317 323 317 c 0,0,1
EndSplineSet
Validated: 1
EndChar
StartChar: acute
Encoding: 180 180 118
Width: 600
GlyphClass: 2
Flags: W
LayerCount: 2
Fore
SplineSet
440 769 m 1,0,-1
 544 769 l 1,1,-1
 541 755 l 1,2,3
 470 670 470 670 381 604 c 1,4,-1
 323 604 l 1,5,-1
 326 620 l 1,6,7
 384 686 384 686 440 769 c 1,0,-1
EndSplineSet
Validated: 1
EndChar
StartChar: mu
Encoding: 181 181 119
Width: 1229
GlyphClass: 2
Flags: W
LayerCount: 2
Fore
SplineSet
397.494304338 274.902932679 m 0,0,1
 397.494304338 136 397.494304338 136 538.00168531 136 c 0,2,3
 664.784311548 136 664.784311548 136 743.525087898 220.380675225 c 0,4,5
 822.924779083 306.518203716 822.924779083 306.518203716 870.312981424 506.125862911 c 2,6,-1
 996.020418976 1048 l 1,7,-1
 1168.28797343 1048 l 1,8,-1
 924.977331055 -5 l 1,9,-1
 782.460702478 -5 l 1,10,-1
 792.619166716 141 l 1,11,-1
 791.503945823 141 l 1,12,13
 668.51087728 -25 668.51087728 -25 493.304442662 -25 c 0,14,15
 378.200149573 -25 378.200149573 -25 330.990679784 53.3537993718 c 1,16,17
 302.319136996 -89.9436947763 302.319136996 -89.9436947763 282.893891838 -173.129383077 c 2,18,-1
 207.976611962 -497 l 1,19,-1
 35.7107632535 -497 l 1,20,-1
 394.791178255 1048 l 1,21,-1
 568.76849632 1047.99999999 l 1,22,-1
 410.889024543 374.86418008 l 2,23,24
 397.494304338 318.188489714 397.494304338 318.188489714 397.494304338 274.902932679 c 0,0,1
EndSplineSet
EndChar
StartChar: paragraph
Encoding: 182 182 120
Width: 1229
GlyphClass: 2
Flags: W
LayerCount: 2
Fore
SplineSet
828.803797162 -265 m 1,0,-1
 1215.71525642 1392 l 1,1,-1
 1033.38476241 1392 l 1,2,-1
 644.068370117 -265 l 1,3,-1
 518.764718275 -265 l 1,4,-1
 711.399617317 551.885814027 l 1,5,6
 651.697567221 536 651.697567221 536 575.986757118 536 c 0,7,8
 269.407114625 536 269.407114625 536 269.407114625 838.622599947 c 0,9,10
 269.407114625 927.721471514 269.407114625 927.721471514 296.128743629 1043.13126575 c 0,11,12
 356.456449131 1303.54586117 356.456449131 1303.54586117 487.707578733 1432.27293058 c 0,13,14
 620.670427455 1561 620.670427455 1561 843.324123108 1561 c 2,15,-1
 1377.28590614 1561 l 1,16,-1
 953.083531892 -265 l 1,17,-1
 828.803797162 -265 l 1,0,-1
EndSplineSet
EndChar
StartChar: periodcentered
Encoding: 183 183 121
Width: 1229
GlyphClass: 2
Flags: W
LayerCount: 2
Fore
SplineSet
760 867 m 0,0,1
 857.826666667 867 857.826666667 867 857.826666667 775.980622222 c 0,2,3
 857.826666667 752.081276924 857.826666667 752.081276924 850.872787755 721.875365402 c 0,4,5
 834.577800845 651.09401601 834.577800845 651.09401601 795.679939294 615.047008005 c 128,-1,6
 756.782077743 579 756.782077743 579 696 579 c 0,7,8
 598.173333333 579 598.173333333 579 598.173333333 670.019377778 c 0,9,10
 598.173333333 693.918723076 598.173333333 693.918723076 605.127212245 724.124634598 c 0,11,12
 621.422199155 794.90598399 621.422199155 794.90598399 660.320060706 830.952991995 c 128,-1,13
 699.217922257 867 699.217922257 867 760 867 c 0,0,1
EndSplineSet
EndChar
StartChar: cedilla
Encoding: 184 184 122
Width: 1229
GlyphClass: 2
Flags: W
LayerCount: 2
Fore
SplineSet
376 -376 m 0,0,1
 512.053950508 -376 512.053950508 -376 533.126698688 -287.877598521 c 0,2,3
 534.720238095 -280.94101522 534.720238095 -280.94101522 534.720238095 -274.38219246 c 0,4,5
 534.720238095 -214.927233745 534.720238095 -214.927233745 402.747738127 -180.84162117 c 2,6,-1
 395.718597708 -179.026147817 l 1,7,-1
 526.418986783 5 l 1,8,-1
 650.568570995 5 l 1,9,-1
 569.131993238 -112.065080526 l 1,10,11
 680.619883041 -144.45397114 680.619883041 -144.45397114 680.619883041 -241.273383263 c 0,12,13
 680.619883041 -263.09696371 680.619883041 -263.09696371 674.873787969 -288.12028096 c 0,14,15
 626.984291408 -497 626.984291408 -497 352 -497 c 0,16,17
 320.478335349 -497 320.478335349 -497 271.976052546 -486.848359413 c 1,18,-1
 299.229565406 -369.113183857 l 1,19,20
 332.515843433 -376 332.515843433 -376 376 -376 c 0,0,1
EndSplineSet
EndChar
StartChar: onesuperior
Encoding: 185 185 123
Width: 1229
GlyphClass: 2
Flags: W
LayerCount: 2
Fore
SplineSet
873.553144405 1465 m 1,0,-1
 1006.28736201 1465 l 1,1,-1
 821.977717338 667 l 1,2,-1
 676.717887607 667.000000021 l 1,3,4
 787.83551367 1149.89432359 787.83551367 1149.89432359 791.752418592 1165.58966944 c 128,-1,5
 795.669323513 1181.28501529 795.669323513 1181.28501529 800.204685625 1198.54283488 c 128,-1,6
 804.740047738 1215.80065447 804.740047738 1215.80065447 810.045172453 1235.2267811 c 0,7,8
 820.648779086 1274.05471001 820.648779086 1274.05471001 834.333387461 1321.56776333 c 1,9,10
 794.22670815 1286.12290992 794.22670815 1286.12290992 763.663259933 1267.76706695 c 1,11,-1
 682.218837463 1213.82335856 l 1,12,-1
 629.364969927 1310.72211571 l 1,13,-1
 873.553144405 1465 l 1,0,-1
EndSplineSet
EndChar
StartChar: ordmasculine
Encoding: 186 186 124
Width: 1229
GlyphClass: 2
Flags: W
LayerCount: 2
Fore
SplineSet
1011.25683594 875.885742188 m 0,0,1
 901.484014442 784 901.484014442 784 750.035888738 784 c 0,2,3
 613.40625 784 613.40625 784 546.409179688 877.776367188 c 0,4,5
 503.643554688 937.635742188 503.643554688 937.635742188 503.643554688 1025.96191406 c 0,6,7
 503.643554688 1075.53027344 503.643554688 1075.53027344 517.125 1134.07910156 c 0,8,9
 554.486328125 1295.33984375 554.486328125 1295.33984375 661.215820312 1387.09179688 c 0,10,11
 769.254594909 1479 769.254594909 1479 923.903940216 1479 c 0,12,13
 1061.5859375 1479 1061.5859375 1479 1128.58300781 1385.7265625 c 0,14,15
 1171.35644531 1326.1796875 1171.35644531 1326.1796875 1171.35644531 1238.76464844 c 0,16,17
 1171.35644531 1189.70800781 1171.35644531 1189.70800781 1157.87304688 1131.87011719 c 0,18,19
 1119.50585938 967.638671875 1119.50585938 967.638671875 1011.25683594 875.885742188 c 0,0,1
655.346679688 1038.40625 m 0,20,21
 655.346679688 913 655.346679688 913 780.78084906 913 c 0,22,23
 953.020507812 913 953.020507812 913 1005.12792969 1134.04394531 c 0,24,25
 1017.29101562 1185.4921875 1017.29101562 1185.4921875 1017.29101562 1224.62988281 c 0,26,27
 1017.29101562 1348 1017.29101562 1348 892.098808848 1348 c 0,28,29
 804.590178685 1348 804.590178685 1348 747.529296875 1294.33203125 c 0,30,31
 693.600585938 1240.6640625 693.600585938 1240.6640625 667.872070312 1131.84082031 c 0,32,33
 655.346679688 1078.70800781 655.346679688 1078.70800781 655.346679688 1038.40625 c 0,20,21
EndSplineSet
EndChar
StartChar: guillemotright
Encoding: 187 187 125
Width: 1229
GlyphClass: 2
Flags: W
LayerCount: 2
Fore
SplineSet
1089.52466511 523.525184973 m 1,0,-1
 699.481980573 108.079324967 l 1,1,-1
 598.417912765 192.477730693 l 1,2,-1
 908.214923492 541.961025284 l 1,3,-1
 764.538441413 891.044867302 l 1,4,-1
 902.172246316 974.201751754 l 1,5,-1
 1097.29031669 553.478412502 l 1,6,-1
 1089.52466511 523.525184973 l 1,0,-1
707.893091134 523.589959137 m 1,7,-1
 314.369829569 108.064173762 l 1,8,-1
 216.951868546 192.493073316 l 1,9,-1
 520.71434391 541.962203218 l 1,10,-1
 378.79613893 891.022217553 l 1,11,-1
 513.450624725 974.232329609 l 1,12,-1
 714.731862382 553.572942858 l 1,13,-1
 707.893091134 523.589959137 l 1,7,-1
EndSplineSet
EndChar
StartChar: questiondown
Encoding: 191 191 129
Width: 1229
GlyphClass: 2
Flags: W
LayerCount: 2
Fore
SplineSet
827 835 m 0,0,1
 728.758857746 835 728.758857746 835 728.758857746 926.019377778 c 0,2,3
 728.758857746 949.918723076 728.758857746 949.918723076 735.906260363 980.124634598 c 0,4,5
 769.019382697 1123 769.019382697 1123 892 1123 c 0,6,7
 989.826666667 1123 989.826666667 1123 989.826666667 1031.98062222 c 0,8,9
 989.826666667 1008.08179153 989.826666667 1008.08179153 982.865080795 977.842402905 c 0,10,11
 966.062860745 907.069415422 966.062860745 907.069415422 926.91898216 871.034707711 c 128,-1,12
 887.775103575 835 887.775103575 835 827 835 c 0,0,1
312.877412657 -28.1043508317 m 0,13,14
 307.272727273 -52.9251003925 307.272727273 -52.9251003925 307.272727273 -73.7381809952 c 128,-1,15
 307.272727273 -94.5512615978 307.272727273 -94.5512615978 311.630549297 -111.906877195 c 0,16,17
 320.320806115 -146.517000313 320.320806115 -146.517000313 346.991494795 -173.425820141 c 0,18,19
 401.81590546 -228 401.81590546 -228 526.09826839 -228 c 0,20,21
 697.653777186 -228 697.653777186 -228 894.926495748 -138.4495253 c 2,22,-1
 900.818177605 -135.757893995 l 1,23,-1
 927.582312003 -289.919308126 l 1,24,25
 693.744329511 -398 693.744329511 -398 498.346869049 -398 c 0,26,27
 290.860754603 -398 290.860754603 -398 196.382037876 -298.949732464 c 0,28,29
 128.977099237 -228.283264535 128.977099237 -228.283264535 128.977099237 -124.053435115 c 0,30,31
 128.977099237 -81.703429559 128.977099237 -81.703429559 139.755878675 -35.2958791354 c 128,-1,32
 150.534658113 11.1116712882 150.534658113 11.1116712882 165.200672969 50.4155394067 c 0,33,34
 194.593491628 129.186185663 194.593491628 129.186185663 241.153596717 185.193268596 c 0,35,36
 310.59685524 268.726463631 310.59685524 268.726463631 470.841029515 377.168132566 c 0,37,38
 604.806867192 463.728860149 604.806867192 463.728860149 647.876488841 516.477927562 c 128,-1,39
 690.946110489 569.226994975 690.946110489 569.226994975 712.269586994 658.138938566 c 0,40,41
 712.304089519 658.274190037 712.304089519 658.274190037 718.45100012 681 c 1,42,-1
 877.197484615 681 l 1,43,-1
 867.876282359 637.89065555 l 1,44,45
 840.626411709 517.789373793 840.626411709 517.789373793 781.020032525 442.523691604 c 0,46,47
 720.783228924 367.258009415 720.783228924 367.258009415 587.578280973 282.868432384 c 0,48,49
 442.132008414 186.204410033 442.132008414 186.204410033 388.819507446 128.901507082 c 0,50,51
 336.569203936 71.5986041314 336.569203936 71.5986041314 312.877412657 -28.1043508317 c 0,13,14
EndSplineSet
EndChar
StartChar: AE
Encoding: 198 198 136
Width: 1229
GlyphClass: 2
Flags: W
LayerCount: 2
Fore
SplineSet
1145.72017879 0 m 1,0,-1
 522.189944925 0 l 1,1,-1
 628.255418726 448 l 1,2,-1
 366.213918231 448 l 1,3,-1
 171.00390625 -0 l 1,4,-1
 0 -0 l 1,5,-1
 660.627485209 1462 l 1,6,-1
 1486.99707031 1462 l 1,7,-1
 1446.6796875 1288 l 1,8,-1
 1000.26586289 1288 l 1,9,-1
 897.534664582 849.599609375 l 1,10,-1
 1307.9765625 849.599609375 l 1,11,-1
 1268.69335938 679 l 1,12,-1
 857.832124365 679 l 1,13,-1
 738.945473453 172.728515625 l 1,14,-1
 1186.44667699 172.728515625 l 1,15,-1
 1145.72017879 0 l 1,0,-1
825.239088145 1288 m 1,16,-1
 734.909816335 1288 l 1,17,-1
 443.288951705 623 l 1,18,-1
 668.978957504 623 l 1,19,-1
 825.239088145 1288 l 1,16,-1
EndSplineSet
EndChar
StartChar: Eth
Encoding: 208 208 146
Width: 600
GlyphClass: 2
Flags: W
LayerCount: 2
Fore
SplineSet
155 403 m 1,0,-1
 232 714 l 1,1,-1
 389 714 l 2,2,3
 539 714 539 714 599 621 c 0,4,5
 635 565 635 565 635 482 c 0,6,7
 635 428 635 428 620 363 c 0,8,9
 579 187 579 187 473 94 c 0,10,11
 364 0 364 0 201 0 c 2,12,-1
 62 0 l 1,13,-1
 136 319 l 1,14,-1
 74 319 l 1,15,-1
 94 403 l 1,16,-1
 155 403 l 1,0,-1
170 83 m 1,17,-1
 211 83 l 2,18,19
 458 83 458 83 525 361 c 0,20,21
 539 421 539 421 539 468 c 0,22,23
 539 631 539 631 362 631 c 2,24,-1
 303 631 l 1,25,-1
 250 403 l 1,26,-1
 423 403 l 1,27,-1
 404 319 l 1,28,-1
 227 319 l 1,29,-1
 170 83 l 1,17,-1
EndSplineSet
Validated: 1
EndChar
StartChar: multiply
Encoding: 215 215 153
Width: 600
GlyphClass: 2
Flags: W
LayerCount: 2
Fore
SplineSet
347 298 m 1,0,-1
 166 144 l 1,1,-1
 128 199 l 1,2,-1
 309 353 l 1,3,-1
 198 509 l 1,4,-1
 262 564 l 1,5,-1
 373 408 l 1,6,-1
 557 564 l 1,7,-1
 596 509 l 1,8,-1
 412 353 l 1,9,-1
 522 196 l 1,10,-1
 460 143 l 1,11,-1
 347 298 l 1,0,-1
EndSplineSet
Validated: 1
EndChar
StartChar: Oslash
Encoding: 216 216 154
Width: 600
GlyphClass: 2
Flags: W
LayerCount: 2
Fore
SplineSet
620 610 m 1,0,1
 634 569 634 569 634 513 c 0,2,3
 634 446 634 446 613 357 c 0,4,5
 572 181 572 181 486 85.5 c 128,-1,6
 400 -10 400 -10 282 -10 c 0,7,8
 196 -10 196 -10 152 35 c 1,9,-1
 93 -38 l 1,10,-1
 36 3 l 1,11,-1
 114 99 l 1,12,13
 100 139 100 139 99 194 c 0,14,15
 99 195 l 0,16,17
 99 265 99 265 121 359 c 0,18,19
 206 725 206 725 454 725 c 0,20,21
 539 725 539 725 584 675 c 1,22,-1
 643 749 l 1,23,-1
 700 708 l 1,24,-1
 620 610 l 1,0,1
521 597 m 1,25,26
 495 640 495 640 435 640 c 0,27,28
 282 640 282 640 216 355 c 0,29,30
 194 261 194 261 194 201 c 0,31,32
 194 198 194 198 194 195 c 1,33,-1
 521 597 l 1,25,26
215 114 m 1,34,35
 242 75 242 75 300 75 c 0,36,37
 378 75 378 75 431.5 145 c 0,38,39
 484 215 484 215 518 361 c 0,40,41
 539 453 539 453 540 509 c 0,42,43
 540 511 540 511 540 514 c 1,44,-1
 215 114 l 1,34,35
EndSplineSet
Validated: 524289
EndChar
StartChar: Thorn
Encoding: 222 222 160
Width: 1229
GlyphClass: 2
Flags: W
LayerCount: 2
Fore
SplineSet
634.595703125 1211.71191406 m 1,0,-1
 835.989798719 1211.71191406 l 2,1,2
 1242.27441406 1211.71191406 1242.27441406 1211.71191406 1242.27441406 915.01171875 c 0,3,4
 1242.27441406 854.018554688 1242.27441406 854.018554688 1225.15917969 780.524414062 c 0,5,6
 1173.76074219 561.313476562 1173.76074219 561.313476562 1015.36816406 438.065429688 c 0,7,8
 852.606762551 314.846679688 852.606762551 314.846679688 598.090768853 314.846679688 c 2,9,-1
 418.575116403 314.846679688 l 1,10,-1
 343.26953125 -0 l 1,11,-1
 160 -0 l 1,12,-1
 510.311523438 1462 l 1,13,-1
 693.595703125 1462 l 1,14,-1
 634.595703125 1211.71191406 l 1,0,-1
459.123192741 480 m 1,15,-1
 615.627685943 480 l 2,16,17
 803.720389869 480 803.720389869 480 901.380305803 551.001953125 c 0,18,19
 998.8359375 621.909179688 998.8359375 621.909179688 1034.42089844 773.147460938 c 0,20,21
 1045.125 819.807617188 1045.125 819.807617188 1045.125 858.478515625 c 0,22,23
 1045.125 1046 1045.125 1046 782.214562175 1046 c 2,24,-1
 596.266601562 1046 l 1,25,-1
 459.123192741 480 l 1,15,-1
EndSplineSet
EndChar
StartChar: germandbls
Encoding: 223 223 161
Width: 600
GlyphClass: 2
Flags: W
LayerCount: 2
Fore
SplineSet
233 109 m 2,0,1
 285 68 285 68 343 68 c 0,2,3
 434 68 434 68 454 150 c 0,4,5
 458 165 458 165 457 178 c 0,6,7
 457 197 457 197 449 212 c 0,8,9
 435 236 435 236 400 266 c 0,10,11
 354 304 354 304 339 333 c 0,12,13
 330 351 330 351 330 374 c 0,14,15
 330 389 330 389 334 407 c 0,16,17
 348 464 348 464 416 515 c 0,18,19
 484 567 484 567 494 610 c 0,20,21
 497 623 497 623 497 633 c 0,22,23
 497 687 497 687 418 687 c 0,24,25
 367 687 367 687 335 661.5 c 128,-1,26
 303 636 303 636 291 584 c 2,27,-1
 153 0 l 1,28,-1
 69 0 l 1,29,-1
 206 584 l 2,30,31
 249 765 249 765 435 765 c 0,32,33
 520 765 520 765 558 726 c 0,34,35
 585 698 585 698 585 654 c 0,36,37
 585 635 585 635 580 612 c 0,38,39
 565 547 565 547 493 490 c 0,40,41
 442 449 442 449 430 435 c 0,42,43
 415 417 415 417 416 399 c 0,44,45
 416 388 416 388 422 378 c 0,46,47
 431 364 431 364 475 325 c 0,48,49
 527 279 527 279 538 240 c 0,50,51
 544 221 544 221 544 199 c 0,52,53
 544 178 544 178 538.5 152.5 c 128,-1,54
 533 127 533 127 523 105 c 0,55,56
 503 60 503 60 467 32 c 0,57,58
 413 -10 413 -10 332 -10 c 128,-1,59
 251 -10 251 -10 211 25 c 2,60,-1
 210 26 l 1,61,-1
 230 112 l 1,62,-1
 233 109 l 2,0,1
EndSplineSet
Validated: 33
EndChar
StartChar: ae
Encoding: 230 230 168
Width: 1229
GlyphClass: 2
Flags: W
LayerCount: 2
Fore
SplineSet
576.830792628 193.32421875 m 1,0,1
 432.516574936 -20 432.516574936 -20 262 -20 c 0,2,3
 158.951171875 -20 158.951171875 -20 115.051757812 64.30078125 c 0,4,5
 90.888671875 110.703125 90.888671875 110.703125 90.888671875 176.938476562 c 0,6,7
 90.888671875 229.53515625 90.888671875 229.53515625 106.126953125 294.711914062 c 0,8,9
 179.97265625 611.943359375 179.97265625 611.943359375 474.916814459 626.975585938 c 2,10,-1
 604.160595281 633.69921875 l 1,11,-1
 617.570982053 693.387695312 l 2,12,13
 632.472734812 756.353515625 632.472734812 756.353515625 632.472734812 800.508789062 c 0,14,15
 632.472734812 902 632.472734812 902 552.413271527 902 c 0,16,17
 460.536990182 902 460.536990182 902 353.125894534 827.903320312 c 2,18,-1
 346.43608117 823.288085938 l 1,19,-1
 324.586914062 964.298828125 l 1,20,-1
 327.12109375 966.087890625 l 2,21,22
 466.467725049 1063 466.467725049 1063 596.104440623 1063 c 0,23,24
 759.933425363 1063 759.933425363 1063 775.832398892 897.568359375 c 1,25,26
 884.204993968 1063 884.204993968 1063 1024 1063 c 0,27,28
 1146.56152344 1063 1146.56152344 1063 1192.7265625 930.764648438 c 0,29,30
 1214.54296875 868.274414062 1214.54296875 868.274414062 1214.54296875 783.896484375 c 128,-1,31
 1214.54296875 699.51953125 1214.54296875 699.51953125 1188.87402344 589.922851562 c 2,32,-1
 1162.984375 478 l 1,33,-1
 729.258716027 478 l 1,34,35
 710.398840232 391.000976562 710.398840232 391.000976562 710.398840232 327.25390625 c 0,36,37
 710.398840232 266.021484375 710.398840232 266.021484375 727.785210711 226.491210938 c 0,38,39
 763.04316655 146.330078125 763.04316655 146.330078125 852.155013004 146.330078125 c 0,40,41
 948.343654017 146.330078125 948.343654017 146.330078125 1069.51660156 214.98046875 c 2,42,-1
 1079.46777344 220.633789062 l 1,43,-1
 1040.421875 54.189453125 l 1,44,45
 927.342482279 -19.677734375 927.342482279 -19.677734375 807.447770207 -20 c 0,46,47
 612.87263345 -20 612.87263345 -20 576.830792628 193.32421875 c 1,0,1
1033.01367188 636 m 1,48,49
 1050.94726562 713.647460938 1050.94726562 713.647460938 1050.94726562 770.934570312 c 0,50,51
 1050.94726562 804.932617188 1050.94726562 804.932617188 1044.62890625 831.689453125 c 0,52,53
 1028.02539062 902 1028.02539062 902 972.2421875 902 c 0,54,55
 915.616952092 902 915.616952092 902 860.950400969 833.491210938 c 128,-1,56
 806.284842106 764.982421875 806.284842106 764.982421875 769.395611693 636 c 1,57,-1
 1033.01367188 636 l 1,48,49
257.873046875 227.145507812 m 128,-1,59
 257.873046875 197.9140625 257.873046875 197.9140625 266.140625 177.36328125 c 0,60,61
 282.37890625 137 282.37890625 137 326 137 c 0,62,63
 394.545781698 137 394.545781698 137 456.91028181 212.127929688 c 128,-1,64
 519.27577418 287.254882812 519.27577418 287.254882812 550.510117858 421.122070312 c 2,65,-1
 570.269972995 505.39453125 l 1,66,-1
 499.026735123 499.020507812 l 1,67,68
 311.040039062 483.32421875 311.040039062 483.32421875 266.868164062 294.856445312 c 0,69,58
 257.873046875 256.376953125 257.873046875 256.376953125 257.873046875 227.145507812 c 128,-1,59
EndSplineSet
EndChar
StartChar: eth
Encoding: 240 240 178
Width: 1229
GlyphClass: 2
Flags: W
LayerCount: 2
Fore
SplineSet
416.716796875 842.905273438 m 0,0,1
 553.956817293 973.088867188 553.956817293 973.088867188 744.699904756 973.088867188 c 0,2,3
 929.828683166 973.088867188 929.828683166 973.088867188 982.510742188 856.861328125 c 1,4,5
 983.073242188 861.0390625 983.073242188 861.0390625 983.073242188 864.938476562 c 0,6,7
 983.073242188 1078.12792969 983.073242188 1078.12792969 867.7366361 1235.34277344 c 1,8,-1
 607.161782634 1081.44140625 l 1,9,-1
 567.292917741 1205.23046875 l 1,10,-1
 784.357623025 1334.91015625 l 1,11,12
 713.25300143 1402.45019531 713.25300143 1402.45019531 662.277027337 1442.02050781 c 1,13,-1
 756.647616554 1572.84082031 l 1,14,15
 867.284463613 1501.20214844 867.284463613 1501.20214844 938.4129886 1424.42089844 c 1,16,-1
 1167.66113281 1563.46875 l 1,17,-1
 1211.08398438 1440.79785156 l 1,18,-1
 1015.09667969 1324.39941406 l 1,19,20
 1140.2421875 1137.91015625 1140.2421875 1137.91015625 1140.2421875 879.965820312 c 0,21,22
 1140.2421875 737.157226562 1140.2421875 737.157226562 1101.87207031 572.46484375 c 0,23,24
 1037.5703125 296.21484375 1037.5703125 296.21484375 886.838433747 138.107421875 c 0,25,26
 734.670440118 -20 734.670440118 -20 533.585151979 -20 c 0,27,28
 344.239257812 -20 344.239257812 -20 258.764648438 114.768554688 c 0,29,30
 206.49609375 197.181640625 206.49609375 197.181640625 206.49609375 315.811523438 c 0,31,32
 206.49609375 390.326171875 206.49609375 390.326171875 227.127929688 479.151367188 c 0,33,34
 281.458007812 712.721679688 281.458007812 712.721679688 416.716796875 842.905273438 c 0,0,1
895.789257849 741.543945312 m 0,35,36
 848.81212194 823 848.81212194 823 733.481246396 823 c 0,37,38
 487.671716988 823 487.671716988 823 406.873046875 474.875976562 c 0,39,40
 388.22265625 393.578125 388.22265625 393.578125 388.22265625 332.000976562 c 0,41,42
 388.22265625 141 388.22265625 141 572.340517223 141 c 0,43,44
 704.532247471 141 704.532247471 141 785.49801399 239.125976562 c 128,-1,45
 866.464776483 337.252929688 866.464776483 337.252929688 913.114236735 532.145507812 c 0,46,47
 924.823910593 581.512695312 924.823910593 581.512695312 924.823910593 624.127929688 c 0,48,49
 924.823910593 691.200195312 924.823910593 691.200195312 895.789257849 741.543945312 c 0,35,36
EndSplineSet
EndChar
StartChar: divide
Encoding: 247 247 185
Width: 1229
GlyphClass: 2
Flags: W
LayerCount: 2
Fore
SplineSet
930.50702136 1164.06550436 m 0,0,1
 940.93365461 1145.661408 940.93365461 1145.661408 940.93365461 1121.36974115 c 128,-1,2
 940.93365461 1097.07807431 940.93365461 1097.07807431 934.468255679 1069.86717536 c 0,3,4
 914.220078596 984.648752448 914.220078596 984.648752448 857.208310874 955.572742212 c 0,5,6
 828.634315085 941 828.634315085 941 791.219187208 941 c 0,7,8
 700.22251032 941 700.22251032 941 700.22251032 1024.21897973 c 0,9,10
 700.22251032 1045.43705993 700.22251032 1045.43705993 706.346787481 1072.13282464 c 0,11,12
 721.500706357 1135.91106316 721.500706357 1135.91106316 757.495798294 1168.45553158 c 128,-1,13
 793.490890232 1201 793.490890232 1201 851.5365448 1201 c 128,-1,14
 909.582199368 1201 909.582199368 1201 930.50702136 1164.06550436 c 0,0,1
1197.30189147 802 m 1,15,-1
 1159.96855813 642 l 1,16,-1
 281.738932783 642 l 1,17,-1
 318.00559945 802 l 1,18,-1
 1197.30189147 802 l 1,15,-1
684.707370552 503 m 0,19,20
 776.04516921 503 776.04516921 503 776.04516921 420.625162197 c 0,21,22
 776.04516921 399.078074309 776.04516921 399.078074309 769.579770278 371.867175361 c 0,23,24
 754.423699146 308.079878647 754.423699146 308.079878647 718.166896585 275.539939324 c 128,-1,25
 681.910094024 243 681.910094024 243 625.306549724 243 c 0,26,27
 581.005343508 243 581.005343508 243 557.975667122 263.819179146 c 128,-1,28
 534.945990736 284.638358292 534.945990736 284.638358292 534.945990736 325.064471879 c 0,29,30
 534.945990736 346.724485604 534.945990736 346.724485604 541.458302081 374.132824639 c 0,31,32
 556.612220956 437.911063156 556.612220956 437.911063156 592.607312894 470.455531578 c 128,-1,33
 628.602404831 503 628.602404831 503 684.707370552 503 c 0,19,20
EndSplineSet
EndChar
StartChar: oslash
Encoding: 248 248 186
Width: 1229
GlyphClass: 2
Flags: W
LayerCount: 2
Fore
SplineSet
1182.09667969 1036.8359375 m 1,0,-1
 1077.03320312 906.833007812 l 1,1,2
 1128.08398438 817.688476562 1128.08398438 817.688476562 1128.08398438 694.575195312 c 0,3,4
 1128.08398438 613.380859375 1128.08398438 613.380859375 1105.87304688 517.3984375 c 0,5,6
 1046.5390625 261.065429688 1046.5390625 261.065429688 895.52060457 118.533203125 c 0,7,8
 742.43679433 -24 742.43679433 -24 535.628300774 -24 c 0,9,10
 423.752781109 -24 423.752781109 -24 345.037109375 27.294921875 c 1,11,-1
 252.749023438 -88.0654296875 l 1,12,-1
 147 -1.7392578125 l 1,13,-1
 252.9453125 129.209960938 l 1,14,15
 200.115234375 219.453125 200.115234375 219.453125 200.115234375 345.032226562 c 0,16,17
 200.115234375 427.901367188 200.115234375 427.901367188 223.126953125 526.166015625 c 0,18,19
 281.458007812 777.247070312 281.458007812 777.247070312 431.430151968 920.123046875 c 0,20,21
 583.489251571 1063 583.489251571 1063 792.35114586 1063 c 0,22,23
 903.938154763 1063 903.938154763 1063 983.515625 1008.17480469 c 1,24,-1
 1090.99121094 1184.59765625 l 1,25,-1
 1182.09667969 1036.8359375 l 1,0,-1
382.3515625 269.00390625 m 1,26,-1
 870.452003959 872.799804688 l 1,27,28
 822.839769335 902 822.839769335 902 751.551744675 902 c 128,-1,29
 680.263720015 902 680.263720015 902 625.059672896 878.215820312 c 128,-1,30
 569.856620641 854.431640625 569.856620641 854.431640625 528.29316337 806.751953125 c 0,31,32
 444.554407038 710.688476562 444.554407038 710.688476562 398.988609094 514.883789062 c 0,33,34
 375.234375 412.442382812 375.234375 412.442382812 375.234375 339.73828125 c 0,35,36
 375.234375 299.86328125 375.234375 299.86328125 382.3515625 269.00390625 c 1,26,-1
458.528276559 164.166992188 m 1,37,38
 503.028574413 137 503.028574413 137 578.415441621 137 c 0,39,40
 716.634978438 137 716.634978438 137 800.537887444 234.647460938 c 128,-1,41
 884.44079645 332.294921875 884.44079645 332.294921875 930.009578988 527.122070312 c 0,42,43
 951.965820312 620.546875 951.965820312 620.546875 951.965820312 692.338867188 c 0,44,45
 951.965820312 731.783203125 951.965820312 731.783203125 945.370117188 764.669921875 c 1,46,-1
 458.528276559 164.166992188 l 1,37,38
EndSplineSet
EndChar
StartChar: thorn
Encoding: 254 254 192
Width: 1229
GlyphClass: 2
Flags: W
LayerCount: 2
Fore
SplineSet
195.267578125 -492 m 1,0,-1
 23 -492 l 1,1,-1
 502.176542733 1556 l 1,2,-1
 677.340167657 1556 l 1,3,-1
 558.922304237 1050.6796875 l 1,4,-1
 517.435189531 901.405273438 l 1,5,6
 653.320161969 1063 653.320161969 1063 837.712855183 1063 c 0,7,8
 1015.47753906 1063 1015.47753906 1063 1082.82421875 919.428710938 c 0,9,10
 1118.13574219 844.151367188 1118.13574219 844.151367188 1118.13574219 737.274414062 c 0,11,12
 1118.13574219 642.145507812 1118.13574219 642.145507812 1090.16113281 521.875 c 0,13,14
 1030.86328125 265.943359375 1030.86328125 265.943359375 897.455078125 123.280273438 c 0,15,16
 760.925100426 -19.5361328125 760.925100426 -19.5361328125 583.501376575 -20 c 0,17,18
 399.882240946 -20 399.882240946 -20 334.992775004 138 c 1,19,-1
 331.646319211 138 l 1,20,21
 312.799914319 12.515625 312.799914319 12.515625 304.756504253 -19.125 c 2,22,-1
 195.267578125 -492 l 1,0,-1
405.264374594 322.444335938 m 128,-1,24
 405.264374594 265.291992188 405.264374594 265.291992188 422.423649401 226.856445312 c 0,25,26
 460.750994869 141 460.750994869 141 589.602452061 141 c 0,27,28
 822.483005779 141 822.483005779 141 913.415039062 526.068359375 c 0,29,30
 937.734375 630.4453125 937.734375 630.4453125 937.734375 705.985351562 c 0,31,32
 937.734375 902 937.734375 902 770.601024831 902 c 0,33,34
 640.629448311 902 640.629448311 902 564.551698269 822.322265625 c 128,-1,35
 488.472955214 742.64453125 488.472955214 742.64453125 442.011835444 560.288085938 c 1,36,37
 423.623209815 482.934570312 423.623209815 482.934570312 417.50326707 448.48828125 c 0,38,23
 405.264374594 379.596679688 405.264374594 379.596679688 405.264374594 322.444335938 c 128,-1,24
EndSplineSet
EndChar
StartChar: dcroat
Encoding: 273 273 211
Width: 600
GlyphClass: 2
Flags: W
LayerCount: 2
Fore
SplineSet
212 455 m 0,0,1
 278 526 278 526 365 526 c 0,2,3
 455 526 455 526 486 448 c 1,4,-1
 488 448 l 1,5,6
 497 508 497 508 501 525 c 2,7,-1
 518 599 l 1,8,-1
 358 599 l 1,9,-1
 374 671 l 1,10,-1
 535 671 l 1,11,-1
 556 760 l 1,12,-1
 640 760 l 1,13,-1
 619 671 l 1,14,-1
 685 671 l 1,15,-1
 668 599 l 1,16,-1
 603 599 l 1,17,-1
 463 0 l 1,18,-1
 395 0 l 1,19,-1
 400 71 l 1,20,21
 331 -10 331 -10 240 -10 c 0,22,23
 153 -10 153 -10 120 61 c 0,24,25
 103 98 103 98 103 150 c 0,26,27
 103 197 103 197 117 257 c 0,28,29
 146 384 146 384 212 455 c 0,0,1
438 257 m 2,30,31
 452 316 452 316 452 355 c 0,32,33
 452 385 452 385 444 404 c 0,34,35
 426 447 426 447 362 447 c 0,36,37
 249 447 249 447 204 255 c 0,38,39
 192 202 192 202 192 165 c 0,40,41
 192 69 192 69 273 69 c 0,42,43
 337 69 337 69 375 108 c 0,44,45
 413 147 413 147 435 239 c 1,46,-1
 438 257 l 2,30,31
EndSplineSet
Validated: 1
EndChar
StartChar: Hbar
Encoding: 294 294 232
Width: 600
GlyphClass: 2
Flags: W
LayerCount: 2
Fore
SplineSet
182 518 m 1,0,-1
 121 518 l 1,1,-1
 138 596 l 1,2,-1
 200 596 l 1,3,-1
 227 714 l 1,4,-1
 317 714 l 1,5,-1
 290 595 l 1,6,-1
 555 595 l 1,7,-1
 583 714 l 1,8,-1
 673 714 l 1,9,-1
 645 596 l 1,10,-1
 706 596 l 1,11,-1
 689 518 l 1,12,-1
 627 518 l 1,13,-1
 506 0 l 1,14,-1
 417 0 l 1,15,-1
 494 331 l 1,16,-1
 230 331 l 1,17,-1
 151 0 l 1,18,-1
 62 0 l 1,19,-1
 182 518 l 1,0,-1
272 520 m 1,20,-1
 248 416 l 1,21,-1
 512 416 l 1,22,-1
 536 520 l 1,23,-1
 272 520 l 1,20,-1
EndSplineSet
Validated: 1
EndChar
StartChar: hbar
Encoding: 295 295 233
Width: 1229
GlyphClass: 2
Flags: W
LayerCount: 2
Fore
SplineSet
930.416992188 664.869140625 m 2,0,1
 944.029296875 723.219726562 944.029296875 723.219726562 944.029296875 768.063476562 c 0,2,3
 944.029296875 916 944.029296875 916 793.2890625 916 c 0,4,5
 653.9077795 916 653.9077795 916 568.764188217 824.805664062 c 128,-1,6
 483.619598943 733.611328125 483.619598943 733.611328125 434.857764915 526.127929688 c 2,7,-1
 309.266601562 0 l 1,8,-1
 137 0 l 1,9,-1
 425.495612541 1227 l 1,10,-1
 288.985351562 1227 l 1,11,-1
 323.629686199 1374 l 1,12,-1
 459.5370812 1374 l 1,13,-1
 502.458672642 1556 l 1,14,-1
 680.547149859 1556 l 1,15,-1
 637.625558416 1374 l 1,16,-1
 997.547851562 1374 l 1,17,-1
 964.28515625 1227 l 1,18,-1
 600.531235678 1227 l 1,19,-1
 558.439972642 1046.59960938 l 1,20,-1
 517.479433264 920 l 1,21,22
 653.54151685 1077 653.54151685 1077 862.2890625 1077 c 0,23,24
 1031.06445312 1077 1031.06445312 1077 1092.03613281 980.0390625 c 0,25,26
 1125.72167969 926.469726562 1125.72167969 926.469726562 1125.72167969 837.926757812 c 0,27,28
 1125.72167969 767.077148438 1125.72167969 767.077148438 1104.16113281 673.618164062 c 2,29,-1
 947.267578125 0 l 1,30,-1
 775 0 l 1,31,-1
 930.416992188 664.869140625 l 2,0,1
EndSplineSet
EndChar
StartChar: dotlessi
Encoding: 305 305 243
Width: 1229
GlyphClass: 2
Flags: W
LayerCount: 2
Fore
SplineSet
710.01953125 314.923828125 m 2,0,1
 701.432617188 278.237304688 701.432617188 278.237304688 701.432617188 249.189453125 c 0,2,3
 701.432617188 139 701.432617188 139 828.147460938 139 c 0,4,5
 923.594726562 139 923.594726562 139 1013.05957031 158.880859375 c 2,6,-1
 1020.76660156 160.59375 l 1,7,-1
 987.422851562 13.2333984375 l 1,8,9
 896.03125 -20 896.03125 -20 781.147460938 -20 c 0,10,11
 522.515625 -20 522.515625 -20 522.515625 197.482421875 c 0,12,13
 522.515625 249.092773438 522.515625 249.092773438 537.275390625 312.942382812 c 2,14,-1
 672.982421875 900.012695312 l 1,15,-1
 447 920 l 1,16,-1
 477.157226562 1043 l 1,17,-1
 879.411132812 1043 l 1,18,-1
 827.810546875 818.158203125 l 1,19,-1
 710.01953125 314.923828125 l 2,0,1
827.229492188 844.094726562 m 1025,20,-1
EndSplineSet
EndChar
StartChar: IJ
Encoding: 306 306 244
Width: 1229
GlyphClass: 2
Flags: W
LayerCount: 2
Fore
SplineSet
481.3046875 1462 m 1,0,-1
 664.569335938 1462 l 1,1,-1
 325.263671875 0 l 1,2,-1
 142 0 l 1,3,-1
 481.3046875 1462 l 1,0,-1
505.826171875 195.305664062 m 2,4,5
 580.654296875 151 580.654296875 151 666.319703235 151 c 0,6,7
 845.997497983 151 845.997497983 151 912.442676619 428.01171875 c 2,8,-1
 1157.30371094 1462 l 1,9,-1
 1341.57226562 1462 l 1,10,-1
 1102.03556448 436.79296875 l 2,11,12
 993.949387068 -20 993.949387068 -20 644.284179688 -20 c 0,13,14
 518.538085938 -20 518.538085938 -20 463.173828125 24.0869140625 c 2,15,-1
 460.712890625 26.0458984375 l 1,16,-1
 499.926757812 198.798828125 l 1,17,-1
 505.826171875 195.305664062 l 2,4,5
EndSplineSet
EndChar
StartChar: ij
Encoding: 307 307 245
Width: 1229
GlyphClass: 2
Flags: W
LayerCount: 2
Fore
SplineSet
540.337890625 1520.19042969 m 128,-1,1
 571.9765625 1550 571.9765625 1550 622.757601755 1550 c 0,2,3
 705.158772398 1550 705.158772398 1550 705.158772398 1475.04785156 c 0,4,5
 705.158772398 1455.1328125 705.158772398 1455.1328125 698.65742943 1427.67675781 c 0,6,7
 685.040733456 1370.1640625 685.040733456 1370.1640625 647.021231814 1340.62109375 c 128,-1,8
 608.901441865 1311 608.901441865 1311 568.286132812 1311 c 0,9,10
 489.311523438 1311 489.311523438 1311 489.311523438 1385.73046875 c 0,11,12
 489.311523438 1406.13183594 489.311523438 1406.13183594 495.411132812 1432.11523438 c 0,13,0
 508.700195312 1490.38085938 508.700195312 1490.38085938 540.337890625 1520.19042969 c 128,-1,1
1053.41113281 1432.11523438 m 0,14,15
 1080.29785156 1550 1080.29785156 1550 1179.28613281 1550 c 0,16,17
 1217.78515625 1550 1217.78515625 1550 1237.85253906 1530.93652344 c 128,-1,18
 1257.91992188 1511.87402344 1257.91992188 1511.87402344 1257.91992188 1475.04785156 c 0,19,20
 1257.91992188 1455.1328125 1257.91992188 1455.1328125 1252.82910156 1432.64257812 c 128,-1,21
 1247.73828125 1410.15136719 1247.73828125 1410.15136719 1240.84667969 1393.67871094 c 0,22,23
 1226.94433594 1360.45019531 1226.94433594 1360.45019531 1202.96777344 1340.64355469 c 0,24,25
 1167.08300781 1311 1167.08300781 1311 1127.69726562 1311 c 128,-1,26
 1088.31054688 1311 1088.31054688 1311 1068.00585938 1330.29785156 c 128,-1,27
 1047.70019531 1349.59472656 1047.70019531 1349.59472656 1047.70019531 1386.88867188 c 0,28,29
 1047.70019531 1406.8515625 1047.70019531 1406.8515625 1053.41113281 1432.11523438 c 0,14,15
172 -14 m 1,30,-1
 418.30859375 1043 l 1,31,-1
 590.573242188 1043 l 1,32,-1
 344.264648438 -14 l 1,33,-1
 172 -14 l 1,30,-1
375.698242188 -295.620117188 m 2,34,35
 441.576171875 -332 441.576171875 -332 528.286132812 -332 c 0,36,37
 668.877942518 -332 668.877942518 -332 717.203602672 -129.873046875 c 2,38,-1
 959.151367188 900.013671875 l 1,39,-1
 777.723502209 920 l 1,40,-1
 809.295898438 1043 l 1,41,-1
 1166.57421875 1043 l 1,42,-1
 894.15625 -126.13671875 l 2,43,44
 852.827148438 -303.55078125 852.827148438 -303.55078125 754.267295353 -397.572265625 c 0,45,46
 653.18793931 -492 653.18793931 -492 517.286132812 -492 c 0,47,48
 409.134765625 -492 409.134765625 -492 336.10546875 -456.5 c 2,49,-1
 332.520507812 -454.756835938 l 1,50,-1
 369.900390625 -292.41796875 l 1,51,-1
 375.698242188 -295.620117188 l 2,34,35
EndSplineSet
EndChar
StartChar: kgreenlandic
Encoding: 312 312 250
Width: 600
GlyphClass: 2
Flags: W
LayerCount: 2
Fore
SplineSet
174 0 m 1,0,-1
 91 0 l 1,1,-1
 210 509 l 1,2,-1
 293 509 l 1,3,-1
 261 371 l 1,4,-1
 225 239 l 1,5,-1
 295 312 l 1,6,-1
 513 509 l 1,7,-1
 610 509 l 1,8,-1
 342 272 l 1,9,-1
 502 0 l 1,10,-1
 407 0 l 1,11,-1
 277 217 l 1,12,-1
 217 181 l 1,13,-1
 174 0 l 1,0,-1
EndSplineSet
Validated: 1
EndChar
StartChar: Lslash
Encoding: 321 321 259
Width: 600
GlyphClass: 2
Flags: W
LayerCount: 2
Fore
SplineSet
233 86 m 1,0,-1
 529 86 l 1,1,-1
 510 0 l 1,2,-1
 122 0 l 1,3,-1
 177 236 l 1,4,-1
 113 200 l 1,5,-1
 93 265 l 1,6,-1
 198 326 l 1,7,-1
 292 714 l 1,8,-1
 382 714 l 1,9,-1
 306 387 l 1,10,-1
 466 477 l 1,11,-1
 489 412 l 1,12,-1
 284 296 l 1,13,-1
 233 86 l 1,0,-1
EndSplineSet
Validated: 1
EndChar
StartChar: lslash
Encoding: 322 322 260
Width: 600
GlyphClass: 2
Flags: W
LayerCount: 2
Fore
SplineSet
343 154 m 2,0,1
 339 136 339 136 338 122 c 0,2,3
 338 68 338 68 400 68 c 0,4,5
 447 68 447 68 491 78 c 2,6,-1
 494 78 l 1,7,-1
 478 6 l 1,8,9
 433 -10 433 -10 377 -10 c 0,10,11
 251 -10 251 -10 251 96 c 0,12,13
 251 121 251 121 258 152 c 2,14,-1
 289 284 l 1,15,-1
 222 241 l 1,16,-1
 202 304 l 1,17,-1
 310 374 l 1,18,-1
 382 685 l 1,19,-1
 273 696 l 1,20,-1
 288 760 l 1,21,-1
 484 760 l 1,22,-1
 408 436 l 1,23,-1
 487 487 l 1,24,-1
 507 424 l 1,25,-1
 388 346 l 1,26,-1
 368 262 l 1,27,-1
 343 154 l 2,0,1
EndSplineSet
Validated: 1
EndChar
StartChar: napostrophe
Encoding: 329 329 267
Width: 1229
GlyphClass: 2
Flags: W
LayerCount: 2
Fore
SplineSet
610.627729929 1430.60839844 m 1,0,1
 512.530963345 1210.72753906 512.530963345 1210.72753906 324.391601562 896 c 1,2,-1
 195 896 l 1,3,4
 310.866210938 1170.79785156 310.866210938 1170.79785156 413.21447321 1462 c 1,5,-1
 601.975690894 1462 l 1,6,-1
 610.627729929 1430.60839844 l 1,0,1
989.665039062 665.754882812 m 2,7,8
 1002.796875 721.578125 1002.796875 721.578125 1002.796875 764.265625 c 0,9,10
 1002.796875 902 1002.796875 902 863.53515625 902 c 0,11,12
 618.510943216 902 618.510943216 902 531.375692229 534.94140625 c 2,13,-1
 403.513671875 0 l 1,14,-1
 231.247070312 0 l 1,15,-1
 476.24618721 1043 l 1,16,-1
 620.972385335 1043 l 1,17,-1
 609.710937718 896 l 1,18,-1
 610.737705003 896 l 1,19,20
 666.412086527 973.478515625 666.412086527 973.478515625 753.942248008 1018.23925781 c 128,-1,21
 841.3046875 1063 841.3046875 1063 931.53515625 1063 c 0,22,23
 1183.70410156 1063 1183.70410156 1063 1183.70410156 827.122070312 c 0,24,25
 1183.70410156 762.245117188 1183.70410156 762.245117188 1164.40820312 679.483398438 c 2,26,-1
 1006.515625 0 l 1,27,-1
 834.248046875 0 l 1,28,-1
 989.665039062 665.754882812 l 2,7,8
EndSplineSet
EndChar
StartChar: Eng
Encoding: 330 330 268
Width: 1229
GlyphClass: 2
Flags: W
LayerCount: 2
Fore
SplineSet
293.262695312 -0 m 1,0,-1
 123 -0 l 1,1,-1
 462.3046875 1462 l 1,2,-1
 668.203125 1462 l 1,3,-1
 951.51753094 334 l 1,4,-1
 952.400300857 334 l 1,5,6
 999.818082975 604.952148438 999.818082975 604.952148438 1029.18436479 733.131835938 c 2,7,-1
 1201.30957031 1462 l 1,8,-1
 1372.57128906 1462 l 1,9,-1
 1035.03632321 22.12109375 l 2,10,11
 987.79569221 -176.266601562 987.79569221 -176.266601562 867.366766973 -282.213867188 c 0,12,13
 746.676095977 -389 746.676095977 -389 569.284179688 -389 c 0,14,15
 481.184570312 -389 481.184570312 -389 428.193359375 -364.541992188 c 2,16,-1
 424.49609375 -362.8359375 l 1,17,-1
 463.612304688 -193.684570312 l 1,18,19
 535.018554688 -215 535.018554688 -215 609.284179688 -215 c 0,20,21
 803.344550459 -215 803.344550459 -215 855.658869212 4.9658203125 c 1,22,-1
 555.450195312 1209.65820312 l 1,23,24
 508.9296875 935.880859375 508.9296875 935.880859375 477.157226562 796.873046875 c 2,25,-1
 293.262695312 -0 l 1,0,-1
EndSplineSet
EndChar
StartChar: eng
Encoding: 331 331 269
Width: 1229
GlyphClass: 2
Flags: W
LayerCount: 2
Fore
SplineSet
307.263671875 -14 m 1,0,-1
 135 -14 l 1,1,-1
 391.30859375 1043 l 1,2,-1
 531.638671875 1043 l 1,3,-1
 521.638671875 896 l 1,4,-1
 522.803710938 896 l 1,5,6
 653.40866756 1063 653.40866756 1063 859.476330746 1063 c 0,7,8
 1134.12402344 1063 1134.12402344 1063 1134.12402344 818.041015625 c 0,9,10
 1134.12402344 753.938476562 1134.12402344 753.938476562 1115.15917969 673.047851562 c 2,11,-1
 920.16015625 -165.119140625 l 2,12,13
 869.675777712 -382.263671875 869.675777712 -382.263671875 731.993161226 -455.375 c 0,14,15
 663.021725872 -492 663.021725872 -492 572.85482068 -492 c 0,16,17
 499.467196493 -492 499.467196493 -492 458.61135008 -466.1796875 c 2,18,-1
 455.577761803 -464.263671875 l 1,19,-1
 493.248543848 -307.809570312 l 1,20,21
 520.419694616 -320.23828125 520.419694616 -320.23828125 544.047931461 -325.119140625 c 128,-1,22
 567.676168305 -330 567.676168305 -330 593.675158456 -330 c 0,23,24
 703.014463556 -330 703.014463556 -330 741.633750246 -170.872070312 c 2,25,-1
 941.416992188 661.379882812 l 2,26,27
 954.077148438 715.232421875 954.077148438 715.232421875 954.077148438 757.06640625 c 0,28,29
 954.077148438 902 954.077148438 902 796.717013184 902 c 0,30,31
 531.264648438 902 531.264648438 902 444.158203125 528.943359375 c 2,32,-1
 307.263671875 -14 l 1,0,-1
EndSplineSet
EndChar
StartChar: OE
Encoding: 338 338 276
Width: 600
GlyphClass: 2
Flags: W
LayerCount: 2
Fore
SplineSet
92 359 m 0,0,1
 177 725 177 725 414 725 c 0,2,3
 452 725 452 725 482 714 c 1,4,-1
 732 714 l 1,5,-1
 712 629 l 1,6,-1
 531 629 l 1,7,-1
 481 415 l 1,8,-1
 645 415 l 1,9,-1
 625 332 l 1,10,-1
 461 332 l 1,11,-1
 403 85 l 1,12,-1
 586 85 l 1,13,-1
 566 0 l 1,14,-1
 300 0 l 1,15,-1
 277 -5 l 2,16,17
 252 -10 252 -10 231 -10 c 0,18,19
 68 -10 68 -10 68 183 c 0,20,21
 68 257 68 257 92 359 c 0,0,1
443 626 m 1,22,23
 421 641 421 641 390 640 c 0,24,25
 249 640 249 640 182 357 c 0,26,27
 161 265 161 265 161 204 c 0,28,29
 161 75 161 75 254 75 c 0,30,31
 285 75 285 75 317 90 c 1,32,-1
 443 626 l 1,22,23
EndSplineSet
Validated: 33
EndChar
StartChar: oe
Encoding: 339 339 277
Width: 1229
GlyphClass: 2
Flags: W
LayerCount: 2
Fore
SplineSet
1152.984375 478 m 1,0,-1
 767.659722511 478 l 1,1,2
 743.419333155 371.038085938 743.419333155 371.038085938 743.419333155 296.0703125 c 0,3,4
 743.419333155 146.330078125 743.419333155 146.330078125 850.070885111 146.330078125 c 0,5,6
 944.108848657 146.330078125 944.108848657 146.330078125 1042.11816406 214.728515625 c 2,7,-1
 1052.84472656 222.237304688 l 1,8,-1
 1013.45410156 54.326171875 l 1,9,10
 911.256676652 -19.646484375 911.256676652 -19.646484375 800.208802697 -20 c 0,11,12
 720.523478986 -20 720.523478986 -20 669.136000037 39.259765625 c 0,13,14
 622.343591821 93.2197265625 622.343591821 93.2197265625 615.852458165 183.29296875 c 1,15,16
 489.461181937 -20 489.461181937 -20 335 -20 c 0,17,18
 204.3203125 -20 204.3203125 -20 157.725585938 128.14453125 c 0,19,20
 137.498046875 192.45703125 137.498046875 192.45703125 137.498046875 276.91796875 c 0,21,22
 137.498046875 384.184570312 137.498046875 384.184570312 170.12890625 524.10546875 c 0,23,24
 229.372070312 777.815429688 229.372070312 777.815429688 339.954101562 920.407226562 c 0,25,26
 451.720784816 1063 451.720784816 1063 590.584537854 1063 c 0,27,28
 741.365264988 1063 741.365264988 1063 773.65597182 860.866210938 c 1,29,30
 896.090160752 1063 896.090160752 1063 1034 1063 c 0,31,32
 1112.31542969 1063 1112.31542969 1063 1156.13769531 1004.60449219 c 0,33,34
 1177.89941406 975.603515625 1177.89941406 975.603515625 1190.79394531 932.538085938 c 0,35,36
 1207.40917969 877.046875 1207.40917969 877.046875 1207.40917969 805.43359375 c 0,37,38
 1207.40917969 711.584960938 1207.40917969 711.584960938 1178.87402344 589.922851562 c 2,39,-1
 1152.984375 478 l 1,0,-1
323.026367188 163.543945312 m 0,40,41
 343.99609375 141 343.99609375 141 381 141 c 0,42,43
 523.441253008 141 523.441253008 141 612.083188423 515.205078125 c 0,44,45
 648.295207778 667.158203125 648.295207778 667.158203125 648.295207778 759.889648438 c 0,46,47
 648.295207778 832.28125 648.295207778 832.28125 626.885994139 867.140625 c 128,-1,48
 605.476780501 902 605.476780501 902 563.10951285 902 c 0,49,50
 487.690330716 902 487.690330716 902 432.68661855 809.715820312 c 0,51,52
 376.702148438 715.591796875 376.702148438 715.591796875 330.869140625 521.85546875 c 0,53,54
 294.200195312 366.852539062 294.200195312 366.852539062 294.200195312 274.72265625 c 0,55,56
 294.200195312 194.534179688 294.200195312 194.534179688 323.026367188 163.543945312 c 0,40,41
806.84800416 636 m 1,57,-1
 1022.01855469 636 l 1,58,59
 1045.70800781 737.68359375 1045.70800781 737.68359375 1045.70800781 800.923828125 c 0,60,61
 1045.70800781 902 1045.70800781 902 985 902 c 0,62,63
 881.668952604 902 881.668952604 902 806.84800416 636 c 1,57,-1
EndSplineSet
EndChar
StartChar: Tbar
Encoding: 358 358 296
Width: 1229
GlyphClass: 2
Flags: W
LayerCount: 2
Fore
SplineSet
635.990234375 665 m 1,0,-1
 360 665 l 1,1,-1
 396.282226562 824 l 1,2,-1
 674.532899315 824 l 1,3,-1
 784.224005616 1288 l 1,4,-1
 391.978515625 1288 l 1,5,-1
 432.295898438 1462 l 1,6,-1
 1403.5625 1462 l 1,7,-1
 1363.24511719 1288 l 1,8,-1
 971.885120515 1288 l 1,9,-1
 862.195008794 824 l 1,10,-1
 1140.22256302 824 l 1,11,-1
 1103.14920232 665 l 1,12,-1
 823.459136543 665 l 1,13,-1
 665.247070312 0 l 1,14,-1
 481.990234375 0 l 1,15,-1
 635.990234375 665 l 1,0,-1
EndSplineSet
EndChar
StartChar: tbar
Encoding: 359 359 297
Width: 600
GlyphClass: 2
Flags: W
LayerCount: 2
Fore
SplineSet
441 6 m 1,0,1
 379 -10 379 -10 325 -10 c 0,2,3
 198 -10 198 -10 198 95 c 0,4,5
 198 120 198 120 205 150 c 2,6,-1
 231 261 l 1,7,-1
 164 261 l 1,8,-1
 180 333 l 1,9,-1
 248 333 l 1,10,-1
 272 438 l 1,11,-1
 161 438 l 1,12,-1
 172 488 l 1,13,-1
 290 512 l 1,14,-1
 364 679 l 1,15,-1
 417 679 l 1,16,-1
 376 509 l 1,17,-1
 561 509 l 1,18,-1
 544 438 l 1,19,-1
 359 438 l 1,20,-1
 333 333 l 1,21,-1
 465 333 l 1,22,-1
 448 261 l 1,23,-1
 316 261 l 1,24,-1
 290 152 l 2,25,26
 286 135 286 135 286 121 c 0,27,28
 286 94 286 94 301.5 81 c 128,-1,29
 317 68 317 68 349 68 c 0,30,31
 389 68 389 68 457 78 c 1,32,-1
 441 6 l 1,0,1
EndSplineSet
Validated: 1
EndChar
StartChar: longs
Encoding: 383 383 321
Width: 1229
GlyphClass: 2
Flags: W
LayerCount: 2
Fore
SplineSet
1253.95703125 1530.13476562 m 1,0,-1
 1180.4765625 1377.85058594 l 1,1,2
 1094.06835938 1407 1094.06835938 1407 991.417333791 1407 c 0,3,4
 889.648211522 1407 889.648211522 1407 840.077188737 1360.37597656 c 0,5,6
 790.154836386 1313.42089844 790.154836386 1313.42089844 763.202134748 1195.87011719 c 2,7,-1
 452.956416396 -121.137695312 l 2,8,9
 407.118763693 -315.673828125 407.118763693 -315.673828125 307.27208523 -403.836914062 c 128,-1,10
 207.424419886 -492 207.424419886 -492 22.8916015625 -492 c 0,11,12
 -89.9765625 -492 -89.9765625 -492 -188.788085938 -456.709960938 c 2,13,-1
 -194 -454.848632812 l 1,14,-1
 -121.716796875 -302.841796875 l 1,15,16
 -35.2841796875 -332 -35.2841796875 -332 52.9035580004 -332 c 0,17,18
 88.2062581209 -332 88.2062581209 -332 109.842632868 -327.90625 c 128,-1,19
 131.478020734 -323.8125 131.478020734 -323.8125 144.298589258 -319.755859375 c 128,-1,20
 157.119157783 -315.698242188 157.119157783 -315.698242188 168.343940048 -310.299804688 c 0,21,22
 190.750081822 -299.525390625 190.750081822 -299.525390625 206.943808934 -283.500976562 c 0,23,24
 255.455908616 -234.516601562 255.455908616 -234.516601562 281.42172945 -120.870117188 c 2,25,-1
 591.66547404 1196.13085938 l 2,26,27
 636.485652634 1387.6484375 636.485652634 1387.6484375 736.189233381 1477.203125 c 0,28,29
 836.164206349 1567 836.164206349 1567 1019.89160156 1567 c 0,30,31
 1128.61523438 1567 1128.61523438 1567 1253.95703125 1530.13476562 c 1,0,-1
EndSplineSet
EndChar
StartChar: florin
Encoding: 402 402 322
Width: 1229
GlyphClass: 2
Flags: W
LayerCount: 2
Fore
SplineSet
823.822243173 974.1171875 m 1,0,-1
 1036.2578125 974.1171875 l 1,1,-1
 1001.921875 828.299804688 l 1,2,-1
 789.980726253 828.299804688 l 1,3,-1
 565.495623447 -121.130859375 l 2,4,5
 520.501833519 -312.497070312 520.501833519 -312.497070312 430.922747303 -402.249023438 c 128,-1,6
 341.344652577 -492 341.344652577 -492 182.954101562 -492 c 0,7,8
 138.303710938 -492 138.303710938 -492 76 -475.604492188 c 1,9,-1
 113.373046875 -312.228515625 l 1,10,-1
 118.7734375 -314.341796875 l 2,11,12
 163.900390625 -332 163.900390625 -332 210.954101562 -332 c 0,13,14
 236.7265625 -332 236.7265625 -332 252.614257812 -327.890625 c 128,-1,15
 268.500976562 -323.780273438 268.500976562 -323.780273438 277.97265625 -319.69140625 c 128,-1,16
 287.443359375 -315.602539062 287.443359375 -315.602539062 295.819335938 -310.14453125 c 0,17,18
 312.518554688 -299.262695312 312.518554688 -299.262695312 325.029694153 -282.966796875 c 0,19,20
 363.958543293 -232.826171875 363.958543293 -232.826171875 390.111059753 -120.874023438 c 2,21,-1
 614.070673165 836.239257812 l 1,22,-1
 445.557131158 836.239257812 l 1,23,-1
 464.828711036 920 l 1,24,-1
 649.630441252 984.559570312 l 1,25,-1
 681.498894224 1112.13085938 l 2,26,27
 726.490701174 1303.49023438 726.490701174 1303.49023438 815.559170338 1393.24511719 c 128,-1,28
 904.626648012 1483 904.626648012 1483 1062.95410156 1483 c 0,29,30
 1148.08203125 1483 1148.08203125 1483 1227.09277344 1445.52050781 c 2,31,-1
 1231.74902344 1443.31152344 l 1,32,-1
 1155.2265625 1293.45507812 l 1,33,-1
 1150.87304688 1295.453125 l 2,34,35
 1090.86035156 1323 1090.86035156 1323 1035.95410156 1323 c 0,36,37
 959.038595951 1323 959.038595951 1323 921.476019234 1273.99121094 c 0,38,39
 883.039940336 1223.84179688 883.039940336 1223.84179688 856.879491961 1111.85546875 c 2,40,-1
 823.822243173 974.1171875 l 1,0,-1
EndSplineSet
EndChar
StartChar: Ohorn
Encoding: 416 416 323
Width: 1229
GlyphClass: 2
Flags: W
LayerCount: 2
Fore
SplineSet
808.969052803 34.1962890625 m 128,-1,1
 701.149230417 -20 701.149230417 -20 573.459931483 -20 c 0,2,3
 438.486328125 -20 438.486328125 -20 356.231445312 34.474609375 c 0,4,5
 202.017578125 136.60546875 202.017578125 136.60546875 202.017578125 398.29296875 c 0,6,7
 202.017578125 545.098632812 202.017578125 545.098632812 246.125976562 736.096679688 c 0,8,9
 285.228515625 905.416015625 285.228515625 905.416015625 345.409179688 1043.41796875 c 0,10,11
 405.700195312 1181.67089844 405.700195312 1181.67089844 489.253267723 1279.69726562 c 0,12,13
 573.300857105 1377.72460938 573.300857105 1377.72460938 682.495042589 1431.33203125 c 128,-1,14
 791.814709103 1485 791.814709103 1485 926.561574968 1485 c 0,15,16
 1044.2904466 1485 1044.2904466 1485 1122.87121282 1439.3125 c 0,17,18
 1198.83367408 1395.1484375 1198.83367408 1395.1484375 1241.6987845 1312.23144531 c 1,19,20
 1293.7230221 1362.078125 1293.7230221 1362.078125 1328.2109375 1475.94042969 c 2,21,-1
 1352.28125 1556 l 1,22,-1
 1543.35742188 1556 l 1,23,-1
 1554.41601562 1528.96777344 l 1,24,25
 1504.75585938 1412.34082031 1504.75585938 1412.34082031 1443.98535156 1332.74902344 c 0,26,27
 1373.61132812 1240.578125 1373.61132812 1240.578125 1283.2962401 1188.64746094 c 1,28,29
 1295.56077577 1127.06347656 1295.56077577 1127.06347656 1295.56077577 1054.36230469 c 0,30,31
 1295.56077577 909.998046875 1295.56077577 909.998046875 1253.2282187 732.017578125 c 0,32,33
 1213.66217254 563.64453125 1213.66217254 563.64453125 1151.19336823 424.990234375 c 128,-1,34
 1088.72555196 286.3359375 1088.72555196 286.3359375 1002.66433785 187.317382812 c 128,-1,0
 916.603123744 88.2998046875 916.603123744 88.2998046875 808.969052803 34.1962890625 c 128,-1,1
438.874023438 732.375976562 m 0,35,36
 395.873046875 549.186523438 395.873046875 549.186523438 395.873046875 422.868164062 c 0,37,38
 395.873046875 357.20703125 395.873046875 357.20703125 408.852539062 305.391601562 c 0,39,40
 427.447265625 231.166992188 427.447265625 231.166992188 476.96403106 192.065429688 c 128,-1,41
 526.672303814 153 526.672303814 153 611.601224528 153 c 0,42,43
 777.058337535 153 777.058337535 153 888.026054118 307.048828125 c 0,44,45
 942.291165551 382.379882812 942.291165551 382.379882812 984.105989865 490.49609375 c 128,-1,46
 1025.92180222 598.61328125 1025.92180222 598.61328125 1058.21686489 734.59765625 c 0,47,48
 1102.49783607 921.045898438 1102.49783607 921.045898438 1102.49783607 1043.91699219 c 0,49,50
 1102.49783607 1109.38574219 1102.49783607 1109.38574219 1089.60589525 1159.58496094 c 0,51,52
 1070.78966893 1232.85351562 1070.78966893 1232.85351562 1022.00718929 1271.96582031 c 128,-1,53
 973.321537527 1311 973.321537527 1311 887.900573088 1311 c 128,-1,54
 802.479608648 1311 802.479608648 1311 733.848401293 1271.52539062 c 0,55,56
 664.960303639 1231.90234375 664.960303639 1231.90234375 610.324677353 1157.73535156 c 128,-1,57
 555.689051066 1083.56738281 555.689051066 1083.56738281 513.376254789 975.958984375 c 128,-1,58
 471.063458512 868.3515625 471.063458512 868.3515625 438.874023438 732.375976562 c 0,35,36
EndSplineSet
EndChar
StartChar: ohorn
Encoding: 417 417 324
Width: 600
GlyphClass: 2
Flags: W
LayerCount: 2
Fore
SplineSet
621 476 m 0,0,1
 584 426 584 426 540 404 c 1,2,3
 559 339 559 339 539 254 c 0,4,5
 524 191 524 191 497 141 c 0,6,7
 456 68 456 68 394 29 c 0,8,9
 332 -10 332 -10 259 -10 c 0,10,11
 214 -10 214 -10 179.5 8 c 128,-1,12
 145 26 145 26 124 60 c 0,13,14
 103 94 103 94 98 143 c 0,15,16
 97 156 97 156 97 170 c 0,17,18
 97 209 97 209 107 256 c 0,19,20
 122 319 122 319 149 368 c 128,-1,21
 176 417 176 417 212 451 c 0,22,23
 267 502 267 502 338 515 c 0,24,25
 361 519 361 519 385 519 c 0,26,27
 427 519 427 519 459.5 503 c 128,-1,28
 492 487 492 487 513 456 c 1,29,30
 530 465 530 465 543 480 c 0,31,32
 568 510 568 510 582 563 c 0,33,34
 589 589 589 589 596 618 c 1,35,-1
 683 618 l 1,36,-1
 686 600 l 1,37,38
 655 522 655 522 621 476 c 0,0,1
452 256 m 0,39,40
 463 303 463 303 463 338 c 0,41,42
 463 441 463 441 367 440 c 0,43,44
 270 440 270 440 221 337 c 0,45,46
 205 302 205 302 194 255 c 0,47,48
 183 207 183 207 183 171 c 0,49,50
 183 69 183 69 278 69 c 0,51,52
 407 69 407 69 452 256 c 0,39,40
EndSplineSet
Validated: 33
EndChar
StartChar: Uhorn
Encoding: 431 431 325
Width: 1229
GlyphClass: 2
Flags: W
LayerCount: 2
Fore
SplineSet
196 266.759765625 m 128,-1,1
 196 360.005859375 196 360.005859375 224.127929688 481.7421875 c 2,2,-1
 452.022460938 1462 l 1,3,-1
 635.283203125 1462 l 1,4,-1
 409.873046875 490.299804688 l 2,5,6
 385.158203125 383.603515625 385.158203125 383.603515625 385.158203125 314.374023438 c 0,7,8
 385.158203125 267.918945312 385.158203125 267.918945312 396.72265625 235.018554688 c 0,9,10
 411.118164062 194.063476562 411.118164062 194.063476562 446.241210938 173.53125 c 128,-1,11
 481.36328125 153 481.36328125 153 541.5625 153 c 128,-1,12
 601.76171875 153 601.76171875 153 646.437330799 176.248046875 c 0,13,14
 691.995105428 199.53125 691.995105428 199.53125 725.095386914 243.262695312 c 0,15,16
 758.474746654 287.364257812 758.474746654 287.364257812 782.810570542 350.731445312 c 0,17,18
 807.279431734 414.4453125 807.279431734 414.4453125 826.665867788 495.51171875 c 2,19,-1
 1057.02246094 1462 l 1,20,-1
 1240.29394531 1462 l 1,21,-1
 1195.61035156 1269.36816406 l 1,22,23
 1235.35253906 1277.8203125 1235.35253906 1277.8203125 1264.23632812 1302.04589844 c 0,24,25
 1320.53515625 1349.26367188 1320.53515625 1349.26367188 1352.73632812 1450.02148438 c 0,26,27
 1368.16796875 1498.30761719 1368.16796875 1498.30761719 1380.98828125 1556 c 1,28,-1
 1573.50292969 1556 l 1,29,-1
 1583.38085938 1528.83496094 l 1,30,31
 1552.48046875 1458.21875 1552.48046875 1458.21875 1515.83789062 1394.87890625 c 0,32,33
 1479.03125 1331.25585938 1479.03125 1331.25585938 1428.10351562 1278.65039062 c 128,-1,34
 1377.109375 1225.9765625 1377.109375 1225.9765625 1312.0546875 1188.68554688 c 128,-1,35
 1247 1151.39550781 1247 1151.39550781 1163.15234375 1134.28613281 c 1,36,-1
 1009.75420668 475.684570312 l 2,37,38
 954.145613751 239.169921875 954.145613751 239.169921875 832.304448875 114.19921875 c 0,39,40
 769.082721184 49.353515625 769.082721184 49.353515625 684.615036019 14.6689453125 c 0,41,42
 601.016601562 -20 601.016601562 -20 496.4140625 -20 c 0,43,44
 293.409179688 -20 293.409179688 -20 228.025390625 109.892578125 c 0,45,0
 196 173.512695312 196 173.512695312 196 266.759765625 c 128,-1,1
EndSplineSet
EndChar
StartChar: uhorn
Encoding: 432 432 326
Width: 1229
GlyphClass: 2
Flags: W
LayerCount: 2
Fore
SplineSet
831.977539062 -0 m 1,0,-1
 690.611328125 -0 l 1,1,-1
 701.484375 145.294921875 l 1,2,3
 642.982109288 62.9921875 642.982109288 62.9921875 566.352069795 21.15234375 c 0,4,5
 489.8890646 -20 489.8890646 -20 415.986328125 -20 c 0,6,7
 306.952148438 -20 306.952148438 -20 255.166992188 33.5576171875 c 0,8,9
 202 88.5439453125 202 88.5439453125 202 203.004882812 c 0,10,11
 202 278.89453125 202 278.89453125 226.12890625 383.521484375 c 2,12,-1
 393.024414062 1098 l 1,13,-1
 566.891161424 1098 l 1,14,-1
 400.872070312 392.247070312 l 2,15,16
 383.177734375 316.366210938 383.177734375 316.366210938 383.177734375 263.206054688 c 0,17,18
 383.177734375 227.2578125 383.177734375 227.2578125 391.26953125 201.868164062 c 0,19,20
 410.666992188 141 410.666992188 141 485.556357883 141 c 0,21,22
 596.994715376 141 596.994715376 141 670.58248995 240.333007812 c 0,23,24
 706.53515625 289.788085938 706.53515625 289.788085938 733.8671875 362.57421875 c 128,-1,25
 761.198242188 435.360351562 761.198242188 435.360351562 777.575138559 530.065429688 c 2,26,-1
 912.286690526 1098 l 1,27,-1
 1085.86893736 1098 l 1,28,-1
 1057.72289954 976.022460938 l 1,29,30
 1098.26752786 982.733398438 1098.26752786 982.733398438 1128.51315934 1006.04394531 c 0,31,32
 1186.954324 1051.0859375 1186.954324 1051.0859375 1220.23242188 1156.00976562 c 0,33,34
 1236.16113281 1206.28320312 1236.16113281 1206.28320312 1248.95703125 1266 c 1,35,-1
 1426.70605469 1266 l 1,36,-1
 1435.30566406 1237.7421875 l 1,37,38
 1405.51953125 1165.84277344 1405.51953125 1165.84277344 1368.39550781 1097.61523438 c 0,39,40
 1331.11914062 1029.7265625 1331.11914062 1029.7265625 1281.734375 974.794921875 c 128,-1,41
 1232.19335938 919.690429688 1232.19335938 919.690429688 1169.30229479 883.948242188 c 0,42,43
 1105.82943069 848.206054688 1105.82943069 848.206054688 1025.85184008 840.692382812 c 1,44,-1
 831.977539062 -0 l 1,0,-1
EndSplineSet
EndChar
StartChar: circumflex
Encoding: 710 710 337
Width: 1229
GlyphClass: 2
Flags: W
LayerCount: 2
Fore
SplineSet
1046.16593383 1236 m 1,0,1
 979.435110522 1292.6200925 979.435110522 1292.6200925 894.017934888 1419.49221284 c 1,2,3
 741.790355726 1286.24695951 741.790355726 1286.24695951 657.375463741 1236 c 1,4,-1
 537.766035319 1236 l 1,5,-1
 545.443401401 1270.54814737 l 1,6,7
 576.56018842 1300.62770816 576.56018842 1300.62770816 617.578148748 1338.64435431 c 0,8,9
 782.145984254 1493.23838161 782.145984254 1493.23838161 835.305530538 1574 c 1,10,-1
 1022.08967476 1574 l 1,11,-1
 1022.90055255 1569.9962909 l 2,12,13
 1038.73108718 1491.83302618 1038.73108718 1491.83302618 1131.29628938 1337.55768918 c 2,14,-1
 1172.31284453 1268.85495931 l 1,15,-1
 1165.01174246 1236 l 1,16,-1
 1046.16593383 1236 l 1,0,1
EndSplineSet
EndChar
StartChar: caron
Encoding: 711 711 338
Width: 1229
GlyphClass: 2
Flags: W
LayerCount: 2
Fore
SplineSet
944.695221143 1236 m 1,0,-1
 758.889590768 1236 l 1,1,-1
 758.094610297 1240.02790105 l 2,2,3
 743.26256313 1315.17694003 743.26256313 1315.17694003 648.675586043 1472.49001772 c 1,4,-1
 608.694078987 1541.17619651 l 1,5,-1
 615.988257541 1574 l 1,6,-1
 732.826250903 1574 l 1,7,8
 797.613718003 1519.33557463 797.613718003 1519.33557463 884.951455893 1389.55462937 c 1,9,10
 1025.46666804 1514.91955078 1025.46666804 1514.91955078 1122.59893201 1574 c 1,11,-1
 1242.23396468 1574 l 1,12,-1
 1234.5565986 1539.45185263 l 1,13,14
 1203.46350731 1509.39519771 1203.46350731 1509.39519771 1163.42396004 1471.35762781 c 0,15,16
 995.855253254 1313.76324881 995.855253254 1313.76324881 944.695221143 1236 c 1,0,-1
EndSplineSet
EndChar
StartChar: macron
Encoding: 713 713 339
Width: 1229
GlyphClass: 2
Flags: W
LayerCount: 2
Fore
SplineSet
1159.30189147 1396 m 1,0,-1
 1121.96855813 1236 l 1,1,-1
 576.698108534 1236 l 1,2,-1
 614.031441868 1396 l 1,3,-1
 1159.30189147 1396 l 1,0,-1
EndSplineSet
EndChar
StartChar: breve
Encoding: 728 728 340
Width: 1229
GlyphClass: 2
Flags: W
LayerCount: 2
Fore
SplineSet
848 1236 m 0,0,1
 736.299894029 1236 736.299894029 1236 679.552227145 1287.20002978 c 128,-1,2
 622.804560261 1338.40005957 622.804560261 1338.40005957 622.804560261 1439.67797006 c 0,3,4
 622.804560261 1476.01800165 622.804560261 1476.01800165 630.776235071 1523 c 1,5,-1
 742.776340715 1523 l 1,6,7
 739.119047619 1497.73142952 739.119047619 1497.73142952 739.119047619 1481.72307256 c 0,8,9
 739.119047619 1438.00379817 739.119047619 1438.00379817 760.096600366 1421.42476454 c 0,10,11
 789.736098362 1398 789.736098362 1398 884 1398 c 0,12,13
 1048.32126542 1398 1048.32126542 1398 1086.22587251 1519.48912528 c 2,14,-1
 1087.32126542 1523 l 1,15,-1
 1201.71610946 1523 l 1,16,-1
 1199.79107432 1516.56632993 l 2,17,18
 1161.35371382 1388.10462509 1161.35371382 1388.10462509 1068.66637813 1312.13139911 c 128,-1,19
 975.786071209 1236 975.786071209 1236 848 1236 c 0,0,1
EndSplineSet
EndChar
StartChar: dotaccent
Encoding: 729 729 341
Width: 1229
GlyphClass: 2
Flags: W
LayerCount: 2
Fore
SplineSet
909 1514 m 0,0,1
 992.74015748 1514 992.74015748 1514 992.74015748 1438.31985864 c 0,2,3
 992.74015748 1418.64832011 992.74015748 1418.64832011 986.867918519 1393.85442227 c 0,4,5
 973.065159973 1335.06489513 973.065159973 1335.06489513 940.161638048 1305.03244757 c 128,-1,6
 907.258116122 1275 907.258116122 1275 856 1275 c 0,7,8
 773.214285714 1275 773.214285714 1275 773.214285714 1350.99489796 c 0,9,10
 773.214285714 1370.93971061 773.214285714 1370.93971061 779.124952284 1396.11477192 c 0,11,12
 792.422851224 1454.4209442 792.422851224 1454.4209442 825.085272735 1484.2104721 c 128,-1,13
 857.747694246 1514 857.747694246 1514 909 1514 c 0,0,1
EndSplineSet
EndChar
StartChar: ring
Encoding: 730 730 342
Width: 600
GlyphClass: 2
Flags: W
LayerCount: 2
Fore
SplineSet
497 633.5 m 128,-1,1
 461 604 461 604 413 604 c 128,-1,2
 365 604 365 604 344 633 c 0,3,4
 330 652 330 652 330 680 c 0,5,6
 330 695 330 695 334 711 c 0,7,8
 345 760 345 760 379.5 789 c 128,-1,9
 414 818 414 818 461.5 818 c 128,-1,10
 509 818 509 818 532 789 c 0,11,12
 548 769 548 769 548 740 c 0,13,14
 548 727 548 727 544 711 c 0,15,0
 533 663 533 663 497 633.5 c 128,-1,1
482 750 m 0,16,17
 472 764 472 764 450.5 764 c 128,-1,18
 429 764 429 764 412 750 c 0,19,20
 393 734 393 734 388 703 c 0,21,22
 387 696 387 696 387 691 c 0,23,24
 387 658 387 658 425 658 c 0,25,26
 447 658 447 658 464 672 c 128,-1,27
 481 686 481 686 486 711 c 0,28,29
 488 720 488 720 488 728 c 0,30,31
 489 741 489 741 482 750 c 0,16,17
EndSplineSet
Validated: 1
EndChar
StartChar: ogonek
Encoding: 731 731 343
Width: 1229
GlyphClass: 2
Flags: W
LayerCount: 2
Fore
SplineSet
500 -460 m 0,0,1
 386.678360616 -460 386.678360616 -460 339.177734044 -403.722083735 c 0,2,3
 306.882352941 -365.459077863 306.882352941 -365.459077863 306.882352941 -308.689013841 c 0,4,5
 306.882352941 -281.830762964 306.882352941 -281.830762964 314.126104962 -250.880186149 c 0,6,7
 347.632526984 -104.670344596 347.632526984 -104.670344596 551.741223871 5 c 1,8,-1
 691.476655815 5 l 1,9,-1
 677.773590751 -4.15980284991 l 2,10,11
 492.429040859 -128.053218553 492.429040859 -128.053218553 466.873895038 -239.119813851 c 0,12,13
 463.542857143 -253.65525194 463.542857143 -253.65525194 463.542857143 -265.800816327 c 0,14,15
 463.542857143 -329 463.542857143 -329 558 -329 c 0,16,17
 619.338249844 -329 619.338249844 -329 674.704768934 -314.169682386 c 2,18,-1
 682.738051816 -312.017910186 l 1,19,-1
 654.231911327 -435.909982314 l 1,20,21
 577.772289974 -460 577.772289974 -460 500 -460 c 0,0,1
EndSplineSet
EndChar
StartChar: tilde
Encoding: 732 732 344
Width: 600
GlyphClass: 2
Flags: W
LayerCount: 2
Fore
SplineSet
250 604 m 1,0,-1
 251 607 l 2,1,2
 293 738 293 738 379 737 c 0,3,4
 407 737 407 737 450 710 c 0,5,6
 491 683 491 683 505 683 c 0,7,8
 540 683 540 683 564 737 c 2,9,-1
 565 738 l 1,10,-1
 618 738 l 1,11,-1
 617 735 l 2,12,13
 574 604 574 604 488 604 c 0,14,15
 460 604 460 604 419 633 c 0,16,17
 379 660 379 660 361 660 c 0,18,19
 325 660 325 660 302 605 c 2,20,-1
 301 604 l 1,21,-1
 250 604 l 1,0,-1
EndSplineSet
Validated: 33
EndChar
StartChar: hungarumlaut
Encoding: 733 733 345
Width: 600
GlyphClass: 2
Flags: W
LayerCount: 2
Fore
SplineSet
364 769 m 1,0,-1
 461 769 l 1,1,-1
 458 755 l 1,2,3
 385 670 385 670 295 604 c 1,4,-1
 246 604 l 1,5,-1
 250 620 l 1,6,7
 308 686 308 686 364 769 c 1,0,-1
533 769 m 1,8,-1
 628 769 l 1,9,-1
 625 755 l 1,10,11
 554 670 554 670 464 604 c 1,12,-1
 412 604 l 1,13,-1
 416 620 l 1,14,15
 471 679 471 679 533 769 c 1,8,-1
EndSplineSet
Validated: 1
EndChar
StartChar: uni02F3
Encoding: 755 755 346
Width: 600
GlyphClass: 2
Flags: W
LayerCount: 2
Fore
SplineSet
210 -273 m 0,0,1
 171 -273 171 -273 150 -253 c 0,2,3
 128 -233 128 -233 127 -198 c 0,4,5
 127 -183 127 -183 131 -165 c 0,6,7
 143 -115 143 -115 177.5 -87 c 128,-1,8
 212 -59 212 -59 259 -59 c 0,9,10
 281 -59 281 -59 300 -66 c 0,11,12
 327 -77 327 -77 338 -103 c 0,13,14
 345 -119 345 -119 345 -137 c 0,15,16
 345 -158 345 -158 337 -182 c 0,17,18
 332 -198 332 -198 323 -211 c 0,19,20
 310 -231 310 -231 293 -245 c 128,-1,21
 276 -259 276 -259 254.5 -266 c 128,-1,22
 233 -273 233 -273 210 -273 c 0,0,1
286 -149 m 0,23,24
 286 -136 286 -136 279 -127 c 0,25,26
 269 -113 269 -113 247.5 -113 c 128,-1,27
 226 -113 226 -113 209 -127 c 128,-1,28
 192 -141 192 -141 186 -167 c 0,29,30
 184 -177 184 -177 184 -184 c 0,31,32
 184 -197 184 -197 190 -205 c 0,33,34
 199 -219 199 -219 221.5 -219 c 128,-1,35
 244 -219 244 -219 261 -205 c 128,-1,36
 278 -191 278 -191 284 -165 c 0,37,38
 286 -156 286 -156 286 -149 c 0,23,24
EndSplineSet
Validated: 1
EndChar
StartChar: hook
Encoding: 777 777 350
Width: 600
GlyphClass: 2
Flags: W
LayerCount: 2
Fore
SplineSet
361 587 m 1,0,-1
 376 678 l 1,1,2
 395 681 395 681 409 685 c 0,3,4
 444 695 444 695 455 713 c 0,5,6
 459 719 459 719 460.5 725.5 c 128,-1,7
 462 732 462 732 462 736.5 c 128,-1,8
 462 741 462 741 460.5 744.5 c 128,-1,9
 459 748 459 748 457 751 c 128,-1,10
 455 754 455 754 452 756 c 0,11,12
 440 764 440 764 411 764 c 0,13,14
 382 764 382 764 367 761 c 2,15,-1
 363 760 l 1,16,-1
 376 818 l 1,17,18
 385 820 385 820 397 821 c 128,-1,19
 409 822 409 822 428 822 c 0,20,21
 512 822 512 822 529 780 c 0,22,23
 534 769 534 769 534 754 c 0,24,25
 534 742 534 742 530 727 c 0,26,27
 526 708 526 708 516 693 c 0,28,29
 497 665 497 665 465 652 c 0,30,31
 450 646 450 646 435 642 c 1,32,-1
 418 587 l 1,33,-1
 361 587 l 1,0,-1
EndSplineSet
Validated: 1
EndChar
StartChar: uni030F
Encoding: 783 783 351
Width: 1229
GlyphClass: 2
Flags: W
LayerCount: 2
Fore
SplineSet
1061.76254576 1236 m 1,0,1
 1035.07009626 1265.89554344 1035.07009626 1265.89554344 1005.89872951 1307.64077517 c 128,-1,2
 976.776643869 1349.31548394 976.776643869 1349.31548394 957.581824117 1382.43602796 c 0,3,4
 925.599653396 1437.62106783 925.599653396 1437.62106783 904.966200068 1478.38471953 c 128,-1,5
 884.332746741 1519.14837123 884.332746741 1519.14837123 875.860337457 1547.74275256 c 1,6,-1
 880.861717922 1574 l 1,7,-1
 1075.07628575 1574 l 1,8,9
 1089.68597281 1503.03866285 1089.68597281 1503.03866285 1115.79486465 1414.92094034 c 0,10,11
 1141.48225768 1328.22598886 1141.48225768 1328.22598886 1168.24126013 1268.53282954 c 1,12,-1
 1161.01174246 1236 l 1,13,-1
 1061.76254576 1236 l 1,0,1
824.011742459 1236 m 1,14,-1
 723.762545763 1236 l 1,15,16
 703.343379098 1258.86946667 703.343379098 1258.86946667 689.440996833 1278.05663671 c 0,17,18
 648.483882209 1334.58300087 648.483882209 1334.58300087 618.034028382 1386.11375168 c 0,19,20
 559.892898337 1484.50687045 559.892898337 1484.50687045 538.804808961 1547.77113858 c 1,21,-1
 545.049775967 1574 l 1,22,-1
 737.076285746 1574 l 1,23,24
 751.685972806 1503.03866285 751.685972806 1503.03866285 777.794864648 1414.92094034 c 0,25,26
 805.077896187 1322.84070889 805.077896187 1322.84070889 831.258355314 1268.60975785 c 1,27,-1
 824.011742459 1236 l 1,14,-1
EndSplineSet
EndChar
StartChar: dotbelow
Encoding: 803 803 352
Width: 1229
GlyphClass: 2
Flags: W
LayerCount: 2
Fore
SplineSet
450.915039062 -154.56640625 m 128,-1,1
 487.271484375 -126 487.271484375 -126 530.8203125 -126 c 128,-1,2
 574.368164062 -126 574.368164062 -126 598.37109375 -155.336914062 c 0,3,4
 613.760742188 -174.146484375 613.760742188 -174.146484375 613.760742188 -206.415039062 c 0,5,6
 613.760742188 -225.778320312 613.760742188 -225.778320312 607.720703125 -251.350585938 c 0,7,8
 598.694335938 -289.567382812 598.694335938 -289.567382812 573.952148438 -319.340820312 c 0,9,10
 551.25 -346.661132812 551.25 -346.661132812 519.650390625 -357.720703125 c 0,11,12
 498.852539062 -365 498.852539062 -365 478 -365 c 0,13,14
 433.631835938 -365 433.631835938 -365 409.62890625 -335.663085938 c 0,15,16
 394.629882812 -317.331054688 394.629882812 -317.331054688 394.629882812 -286.625976562 c 0,17,18
 394.629882812 -268.041015625 394.629882812 -268.041015625 400.130859375 -244.861328125 c 0,19,0
 414.528320312 -183.155273438 414.528320312 -183.155273438 450.915039062 -154.56640625 c 128,-1,1
EndSplineSet
EndChar
StartChar: tonos
Encoding: 900 900 353
Width: 600
GlyphClass: 2
Flags: W
LayerCount: 2
Fore
SplineSet
423 766 m 1,0,-1
 518 766 l 1,1,-1
 515 753 l 2,2,3
 513 745 513 745 479 693 c 0,4,5
 445 642 445 642 407 601 c 1,6,-1
 353 601 l 1,7,-1
 357 618 l 1,8,-1
 382 670 l 1,9,10
 409 725 409 725 423 766 c 1,0,-1
EndSplineSet
Validated: 1
EndChar
StartChar: dieresistonos
Encoding: 901 901 354
Width: 600
GlyphClass: 2
Flags: W
LayerCount: 2
Fore
SplineSet
398 690 m 1,0,1
 437 758 437 758 475 838 c 1,2,-1
 572 838 l 1,3,-1
 570 825 l 1,4,5
 509 744 509 744 436 673 c 1,6,-1
 394 673 l 1,7,-1
 398 690 l 1,0,1
321 730 m 0,8,9
 333 736 333 736 348 736 c 0,10,11
 385 736 385 736 385 702 c 0,12,13
 385 694 385 694 383 683 c 0,14,15
 376 651 376 651 349 637 c 0,16,17
 337 631 337 631 325 631 c 0,18,19
 288 631 288 631 288 665 c 0,20,21
 288 673 288 673 290 684 c 0,22,23
 298 718 298 718 321 730 c 0,8,9
488 684 m 0,24,25
 500 736 500 736 545 736 c 0,26,27
 582 736 582 736 583 702 c 0,28,29
 583 694 583 694 581 683 c 0,30,31
 575 657 575 657 560 644 c 128,-1,32
 545 631 545 631 522 631 c 0,33,34
 498 631 498 631 490 646 c 0,35,36
 486 654 486 654 485.5 663.5 c 128,-1,37
 485 673 485 673 488 684 c 0,24,25
EndSplineSet
Validated: 1
EndChar
StartChar: anoteleia
Encoding: 903 903 356
Width: 1229
GlyphClass: 2
Flags: W
LayerCount: 2
Fore
SplineSet
665.3203125 825.953125 m 128,-1,1
 704.217773438 862 704.217773438 862 765 862 c 0,2,3
 862.827148438 862 862.827148438 862 862.827148438 770.98046875 c 0,4,5
 862.827148438 747.081054688 862.827148438 747.081054688 855.873046875 716.875 c 0,6,7
 839.578125 646.09375 839.578125 646.09375 800.6796875 610.046875 c 128,-1,8
 761.782226562 574 761.782226562 574 701 574 c 0,9,10
 603.172851562 574 603.172851562 574 603.172851562 665.01953125 c 0,11,12
 603.172851562 688.918945312 603.172851562 688.918945312 610.126953125 719.125 c 0,13,0
 626.421875 789.90625 626.421875 789.90625 665.3203125 825.953125 c 128,-1,1
EndSplineSet
EndChar
StartChar: Gamma
Encoding: 915 915 366
Width: 1229
GlyphClass: 2
Flags: W
LayerCount: 2
Fore
SplineSet
1351.59667969 1462 m 1,0,-1
 1310.24707031 1286 l 1,1,-1
 710.041223085 1286 l 1,2,-1
 407.263671875 -0 l 1,3,-1
 224 -0 l 1,4,-1
 564.798828562 1462 l 1,5,-1
 1351.59667969 1462 l 1,0,-1
EndSplineSet
EndChar
StartChar: uni0394
Encoding: 916 916 367
Width: 1229
GlyphClass: 2
Flags: W
LayerCount: 2
Fore
SplineSet
1097.3046875 0 m 1,0,-1
 62 0 l 1,1,-1
 94.583984375 138.845703125 l 1,2,-1
 831.33203125 1462 l 1,3,-1
 1012.89550781 1462 l 1,4,-1
 1126.28222656 129.540039062 l 1,5,-1
 1097.3046875 0 l 1,0,-1
874.31640625 922.590820312 m 2,6,7
 865.830078125 1032.21582031 865.830078125 1032.21582031 865.830078125 1156.2734375 c 0,8,9
 865.830078125 1195.9609375 865.830078125 1195.9609375 866.698242188 1237.12402344 c 1,10,11
 773.575587775 1031.08496094 773.575587775 1031.08496094 715.480647916 926.611328125 c 2,12,-1
 300.69921875 176 l 1,13,-1
 934.877929688 176 l 1,14,-1
 874.31640625 922.590820312 l 2,6,7
EndSplineSet
EndChar
StartChar: Theta
Encoding: 920 920 371
Width: 600
GlyphClass: 2
Flags: W
LayerCount: 2
Fore
SplineSet
486 86 m 0,0,1
 399 -10 399 -10 280 -10 c 0,2,3
 98 -10 98 -10 98 193 c 0,4,5
 98 264 98 264 120 359 c 0,6,7
 205 725 205 725 454 725 c 0,8,9
 573 725 573 725 613 629 c 0,10,11
 633 582 633 582 633 514 c 128,-1,12
 633 446 633 446 612 357 c 0,13,14
 572 182 572 182 486 86 c 0,0,1
194 210 m 0,15,16
 194 75 194 75 299 75 c 0,17,18
 378 75 378 75 431 144.5 c 128,-1,19
 484 214 484 214 518 358 c 0,20,21
 539 449 539 449 539 510 c 0,22,23
 539 547 539 547 531 573 c 0,24,25
 510 640 510 640 435 640 c 0,26,27
 282 640 282 640 214 357 c 0,28,29
 194 270 194 270 194 210 c 0,15,16
280 405 m 1,30,-1
 475 405 l 1,31,-1
 455 322 l 1,32,-1
 260 322 l 1,33,-1
 280 405 l 1,30,-1
EndSplineSet
Validated: 1
EndChar
StartChar: Lambda
Encoding: 923 923 374
Width: 1229
GlyphClass: 2
Flags: W
LayerCount: 2
Fore
SplineSet
1135.80566406 -0 m 1,0,-1
 940.6953125 -0 l 1,1,-1
 880.558093061 926.669921875 l 2,2,3
 871.027766941 1070.52148438 871.027766941 1070.52148438 871.024795833 1184.19140625 c 0,4,5
 871.024795833 1213.93847656 871.024795833 1213.93847656 871.678439732 1241.62207031 c 1,6,7
 788.583463898 1056.921875 788.583463898 1056.921875 720.745130887 930.673828125 c 2,8,-1
 223.40234375 0 l 1,9,-1
 30 0 l 1,10,-1
 833.914658657 1462 l 1,11,-1
 1016.99804688 1462 l 1,12,-1
 1135.80566406 -0 l 1,0,-1
EndSplineSet
EndChar
StartChar: Xi
Encoding: 926 926 377
Width: 600
GlyphClass: 2
Flags: W
LayerCount: 2
Fore
SplineSet
215 629 m 1,0,-1
 235 714 l 1,1,-1
 663 714 l 1,2,-1
 643 629 l 1,3,-1
 215 629 l 1,0,-1
202 416 m 1,4,-1
 556 416 l 1,5,-1
 537 332 l 1,6,-1
 182 332 l 1,7,-1
 202 416 l 1,4,-1
515 0 m 1,8,-1
 49 0 l 1,9,-1
 69 85 l 1,10,-1
 535 85 l 1,11,-1
 515 0 l 1,8,-1
EndSplineSet
Validated: 1
EndChar
StartChar: Pi
Encoding: 928 928 379
Width: 600
GlyphClass: 2
Flags: W
LayerCount: 2
Fore
SplineSet
506 0 m 1,0,-1
 416 0 l 1,1,-1
 562 629 l 1,2,-1
 299 629 l 1,3,-1
 150 0 l 1,4,-1
 60 0 l 1,5,-1
 227 714 l 1,6,-1
 671 714 l 1,7,-1
 506 0 l 1,0,-1
EndSplineSet
Validated: 1
EndChar
StartChar: Sigma
Encoding: 931 931 381
Width: 600
GlyphClass: 2
Flags: W
LayerCount: 2
Fore
SplineSet
213 640 m 1,0,-1
 230 714 l 1,1,-1
 645 714 l 1,2,-1
 626 629 l 1,3,-1
 315 629 l 1,4,-1
 433 374 l 1,5,-1
 178 84 l 1,6,-1
 526 84 l 1,7,-1
 506 0 l 1,8,-1
 58 0 l 1,9,-1
 76 77 l 1,10,-1
 335 374 l 1,11,-1
 213 640 l 1,0,-1
EndSplineSet
Validated: 1
EndChar
StartChar: Phi
Encoding: 934 934 384
Width: 600
GlyphClass: 2
Flags: W
LayerCount: 2
Fore
SplineSet
412 724 m 1,0,-1
 494 724 l 1,1,-1
 473 637 l 1,2,-1
 492 637 l 2,3,4
 591 637 591 637 630 561 c 0,5,6
 653 516 653 516 653 457 c 0,7,8
 653 416 653 416 642 369 c 0,9,10
 615 254 615 254 539 177 c 0,11,12
 462 100 462 100 356 99 c 2,13,-1
 346 99 l 1,14,-1
 321 -10 l 1,15,-1
 239 -10 l 1,16,-1
 265 99 l 1,17,-1
 257 99 l 2,18,19
 150 99 150 99 110 178 c 0,20,21
 87 224 87 224 87 283 c 0,22,23
 87 324 87 324 98 371 c 0,24,25
 125 486 125 486 198 561 c 0,26,27
 273 637 273 637 372 637 c 2,28,-1
 391 637 l 1,29,-1
 412 724 l 1,0,-1
559 373 m 0,30,31
 568 410 568 410 568 441 c 0,32,33
 568 479 568 479 555 506 c 0,34,35
 531 556 531 556 467 556 c 2,36,-1
 453 556 l 1,37,-1
 365 179 l 1,38,-1
 366 179 l 2,39,40
 436 179 436 179 487 230.5 c 128,-1,41
 538 282 538 282 559 373 c 0,30,31
372 556 m 1,42,-1
 360 556 l 2,43,44
 295 556 295 556 248 505 c 0,45,46
 200 454 200 454 181 372 c 0,47,48
 172 332 172 332 171 300 c 0,49,50
 171 259 171 259 186 230 c 0,51,52
 213 179 213 179 283 179 c 2,53,-1
 284 179 l 1,54,-1
 372 556 l 1,42,-1
EndSplineSet
Validated: 1
EndChar
StartChar: Psi
Encoding: 936 936 386
Width: 600
GlyphClass: 2
Flags: W
LayerCount: 2
Fore
SplineSet
556 277 m 0,0,1
 486 216 486 216 381 215 c 2,2,-1
 375 215 l 1,3,-1
 323 0 l 1,4,-1
 241 0 l 1,5,-1
 292 215 l 1,6,-1
 287 215 l 2,7,8
 181 215 181 215 142 277 c 0,9,10
 121 311 121 311 121 368 c 0,11,12
 121 415 121 415 136 477 c 2,13,-1
 190 714 l 1,14,-1
 274 714 l 1,15,-1
 219 478 l 2,16,17
 205 419 205 419 206 381 c 0,18,19
 206 348 206 348 216 332 c 0,20,21
 238 297 238 297 305 297 c 2,22,-1
 311 297 l 1,23,-1
 411 714 l 1,24,-1
 492 714 l 1,25,-1
 394 297 l 1,26,-1
 399 297 l 2,27,28
 466 297 466 297 505 332 c 0,29,30
 545 366 545 366 572 478 c 2,31,-1
 629 714 l 1,32,-1
 713 714 l 1,33,-1
 658 478 l 2,34,35
 626 338 626 338 556 277 c 0,0,1
EndSplineSet
Validated: 33
EndChar
StartChar: uni03A9
Encoding: 937 937 387
Width: 1229
GlyphClass: 2
Flags: W
LayerCount: 2
Fore
SplineSet
512.268554688 0 m 1,0,-1
 67 0 l 1,1,-1
 107.317382812 174 l 1,2,-1
 349.219726562 174 l 1,3,4
 235.9921875 325.00390625 235.9921875 325.00390625 235.9921875 552.311523438 c 0,5,6
 235.9921875 677.629882812 235.9921875 677.629882812 270.419921875 826.15234375 c 0,7,8
 342.734375 1137.14550781 342.734375 1137.14550781 514.635732631 1311.07226562 c 0,9,10
 696.192382812 1485 696.192382812 1485 930.755859375 1485 c 128,-1,11
 1165.3203125 1485 1165.3203125 1485 1257.72558594 1309.49414062 c 0,12,13
 1309.09570312 1211.92675781 1309.09570312 1211.92675781 1309.09570312 1071.49023438 c 0,14,15
 1309.09570312 960.772460938 1309.09570312 960.772460938 1277.1640625 823.328125 c 0,16,17
 1179.66015625 403.63671875 1179.66015625 403.63671875 895.461914062 172.8359375 c 1,18,-1
 1136.58398438 172.8359375 l 1,19,-1
 1096.26660156 0 l 1,20,-1
 650.002929688 0 l 1,21,-1
 685.817382812 153.673828125 l 1,22,-1
 687.212890625 154.7578125 l 2,23,24
 980.819335938 382.926757812 980.819335938 382.926757812 1083.41894531 820.862304688 c 0,25,26
 1114.26367188 953.955078125 1114.26367188 953.955078125 1114.26367188 1051.03710938 c 0,27,28
 1114.26367188 1311 1114.26367188 1311 891.291992188 1311 c 0,29,30
 578.049354931 1311 578.049354931 1311 459.165039062 818.630859375 c 0,31,32
 423.662109375 665.604492188 423.662109375 665.604492188 423.662109375 538.26953125 c 0,33,34
 423.662109375 301.796875 423.662109375 301.796875 548.808178636 153.998046875 c 2,35,-1
 550.49405581 152.111328125 l 1,36,-1
 512.268554688 0 l 1,0,-1
EndSplineSet
EndChar
StartChar: alpha
Encoding: 945 945 395
Width: 600
GlyphClass: 2
Flags: W
LayerCount: 2
Fore
SplineSet
384 71 m 1,0,-1
 382 71 l 1,1,2
 316 -10 316 -10 228 -10 c 0,3,4
 144 -10 144 -10 112 60 c 0,5,6
 96 96 96 96 96 145 c 128,-1,7
 96 194 96 194 110 254 c 0,8,9
 139 380 139 380 204 450 c 0,10,11
 270 519 270 519 360 519 c 0,12,13
 450 520 450 520 473 438 c 1,14,-1
 475 438 l 1,15,16
 500 487 500 487 523 509 c 1,17,-1
 589 509 l 1,18,19
 568 468 568 468 551 418 c 128,-1,20
 534 368 534 368 519 306 c 2,21,-1
 474 116 l 2,22,23
 471 104 471 104 471 94 c 0,24,25
 471 68 471 68 495 68 c 0,26,27
 507 68 507 68 521 72 c 2,28,-1
 525 73 l 1,29,-1
 509 4 l 1,30,31
 482 -9 482 -9 453 -10 c 0,32,33
 407 -10 407 -10 392 26 c 0,34,35
 384 44 384 44 384 69 c 0,36,37
 384 70 384 70 384 71 c 1,0,-1
422 255 m 0,38,39
 436 313 436 313 436 351 c 0,40,41
 436 380 436 380 428 399 c 0,42,43
 410 441 410 441 350 440 c 0,44,45
 241 440 241 440 196 252 c 0,46,47
 184 200 184 200 184 162 c 0,48,49
 184 68 184 68 261 69 c 0,50,51
 323 69 323 69 359 109 c 0,52,53
 395 151 395 151 420 248 c 0,54,-1
 422 255 l 0,38,39
EndSplineSet
Validated: 33
EndChar
StartChar: beta
Encoding: 946 946 396
Width: 1229
GlyphClass: 2
Flags: W
LayerCount: 2
Fore
SplineSet
318.218482255 39.6796875 m 1,0,-1
 195.270507812 -492 l 1,1,-1
 23 -492 l 1,2,-1
 393.205657986 1092.12402344 l 2,3,4
 446.313565007 1319.61621094 446.313565007 1319.61621094 581.543536536 1443.30859375 c 128,-1,5
 716.773508065 1567 716.773508065 1567 902.405459486 1567 c 0,6,7
 1077.79199219 1567 1077.79199219 1567 1157.79492188 1459.98925781 c 0,8,9
 1209.50683594 1390.82226562 1209.50683594 1390.82226562 1209.50683594 1288.76074219 c 0,10,11
 1209.50683594 1233.18261719 1209.50683594 1233.18261719 1194.16308594 1167.88574219 c 0,12,13
 1162.84082031 1031.61914062 1162.84082031 1031.61914062 1071.45800781 941.983398438 c 128,-1,14
 980.07421875 852.34765625 980.07421875 852.34765625 842.670953918 824.029296875 c 1,15,16
 1094.25585938 782.251953125 1094.25585938 782.251953125 1094.25585938 548.732421875 c 0,17,18
 1094.25585938 487.953125 1094.25585938 487.953125 1077.16210938 414.224609375 c 0,19,20
 1029.11425781 209.283203125 1029.11425781 209.283203125 895.066461962 94.75 c 0,21,22
 759.205338628 -20 759.205338628 -20 567.587848655 -20 c 0,23,24
 408.175944687 -20 408.175944687 -20 318.218482255 39.6796875 c 1,0,-1
360.179673717 215.109375 m 1,25,26
 457.401822236 139 457.401822236 139 587.879825069 139 c 0,27,28
 839.522130625 139 839.522130625 139 908.622849721 431.333984375 c 0,29,30
 920.58500945 481.48046875 920.58500945 481.48046875 920.58500945 523.87109375 c 0,31,32
 920.58500945 601.805664062 920.58500945 601.805664062 880.10905591 653.552734375 c 0,33,34
 817.715191714 733.3203125 817.715191714 733.3203125 681.222916574 733.3203125 c 2,35,-1
 592.665481616 733.3203125 l 1,36,-1
 630.512791922 893.787109375 l 1,37,-1
 695.427300064 893.787109375 l 2,38,39
 817.308955858 893.787109375 817.308955858 893.787109375 903.132720751 966.858398438 c 0,40,41
 996.947265625 1047.14550781 996.947265625 1047.14550781 1021.98925781 1185.47949219 c 0,42,43
 1027.85351562 1218.18066406 1027.85351562 1218.18066406 1027.85351562 1246.38574219 c 0,44,45
 1027.85351562 1304.37011719 1027.85351562 1304.37011719 1003.06640625 1343.32128906 c 0,46,47
 962.526384528 1407 962.526384528 1407 866.894500762 1407 c 0,48,49
 641.633746183 1407 641.633746183 1407 565.429844523 1080.875 c 2,50,-1
 360.179673717 215.109375 l 1,25,26
EndSplineSet
EndChar
StartChar: gamma
Encoding: 947 947 397
Width: 1229
GlyphClass: 2
Flags: W
LayerCount: 2
Fore
SplineSet
442.265625 -492 m 1,0,-1
 262 -492 l 1,1,2
 286.452148438 -385.6875 286.452148438 -385.6875 336.866210938 -264.03125 c 128,-1,3
 387.28125 -142.375 387.28125 -142.375 465.09375 0.9267578125 c 1,4,-1
 312.502929688 1043 l 1,5,-1
 486.637695312 1043 l 1,6,-1
 567.601333406 467.68359375 l 2,7,8
 590.045429724 306.505859375 590.045429724 306.505859375 591.001004881 169.983398438 c 1,9,10
 637.402025962 269.182617188 637.402025962 269.182617188 738.160572284 444.439453125 c 2,11,-1
 1079.3515625 1043 l 1,12,-1
 1251.95117188 1043 l 1,13,-1
 662.58272265 43.0185546875 l 2,14,15
 504.286036064 -224.58984375 504.286036064 -224.58984375 442.265625 -492 c 1,0,-1
EndSplineSet
EndChar
StartChar: delta
Encoding: 948 948 398
Width: 1229
GlyphClass: 2
Flags: W
LayerCount: 2
Fore
SplineSet
696.327567865 1491.96191406 m 128,-1,1
 795.406233804 1567 795.406233804 1567 939.629538317 1567 c 0,2,3
 1115.6875 1567 1115.6875 1567 1260.02734375 1456.97851562 c 2,4,-1
 1263.78710938 1454.11328125 l 1,5,-1
 1159.96875 1300.50488281 l 1,6,-1
 1155.70800781 1304.23828125 l 2,7,8
 1036.12109375 1409 1036.12109375 1409 898.917860731 1409 c 0,9,10
 822.459223075 1409 822.459223075 1409 774.612068599 1358.40820312 c 0,11,12
 743.782117052 1325.81054688 743.782117052 1325.81054688 731.861825321 1275.83886719 c 0,13,14
 726.202345531 1252.48535156 726.202345531 1252.48535156 726.202345531 1232.82617188 c 0,15,16
 726.202345531 1183.1015625 726.202345531 1183.1015625 752.002973627 1146.80175781 c 0,17,18
 765.843552494 1127.328125 765.843552494 1127.328125 784.75321231 1108.62597656 c 128,-1,19
 803.662872127 1089.92480469 803.662872127 1089.92480469 819.144441709 1076.05957031 c 0,20,21
 850.341156173 1048.37109375 850.341156173 1048.37109375 892.876708964 1015.50195312 c 0,22,23
 1105.3828125 853.48828125 1105.3828125 853.48828125 1105.3828125 625.588867188 c 0,24,25
 1105.3828125 563.759765625 1105.3828125 563.759765625 1089.87109375 497.150390625 c 0,26,27
 1032.53125 251.918945312 1032.53125 251.918945312 884.420289215 115.958984375 c 0,28,29
 736.052265572 -20 736.052265572 -20 533.53055439 -20 c 0,30,31
 343.389648438 -20 343.389648438 -20 255.893554688 104.627929688 c 0,32,33
 200.21484375 183.9375 200.21484375 183.9375 200.21484375 298.75 c 0,34,35
 200.21484375 363.852539062 200.21484375 363.852539062 218.127929688 440.364257812 c 0,36,37
 303.794921875 807.916992188 303.794921875 807.916992188 704.988738726 937.022460938 c 1,38,39
 555.921977063 1052.23144531 555.921977063 1052.23144531 555.595965582 1202.76660156 c 0,40,41
 555.595965582 1241.31738281 555.595965582 1241.31738281 565.214298199 1282.13769531 c 0,42,0
 597.17733843 1416.86914062 597.17733843 1416.86914062 696.327567865 1491.96191406 c 128,-1,1
398.875 437.884765625 m 0,43,44
 386.51953125 384.079101562 386.51953125 384.079101562 386.51953125 338.565429688 c 0,45,46
 386.51953125 271.461914062 386.51953125 271.461914062 413.388671875 222.396484375 c 0,47,48
 458.176181232 141 458.176181232 141 570.171064218 141 c 0,49,50
 825.649762261 141 825.649762261 141 906.169628301 487.1171875 c 0,51,52
 921.281453155 550.671875 921.281453155 550.671875 921.281453155 604.169921875 c 128,-1,53
 921.281453155 657.66796875 921.281453155 657.66796875 908.396048169 702.2109375 c 0,54,55
 882.663007819 791.172851562 882.663007819 791.172851562 805.187572162 853.446289062 c 1,56,57
 471.396543136 753.837890625 471.396543136 753.837890625 398.875 437.884765625 c 0,43,44
EndSplineSet
EndChar
StartChar: epsilon
Encoding: 949 949 399
Width: 600
GlyphClass: 2
Flags: W
LayerCount: 2
Fore
SplineSet
416 225 m 1,0,-1
 346 225 l 2,1,2
 219 225 219 225 200 145 c 0,3,4
 198 134 198 134 198 125 c 0,5,6
 198 68 198 68 299 68 c 0,7,8
 382 68 382 68 463 106 c 2,9,-1
 468 108 l 1,10,-1
 449 28 l 1,11,12
 381 -9 381 -9 276 -10 c 0,13,14
 185 -10 185 -10 143 30 c 0,15,16
 112 59 112 59 112 103 c 0,17,18
 112 120 112 120 117 140 c 0,19,20
 138 229 138 229 249 264 c 1,21,-1
 249 266 l 1,22,23
 185 291 185 291 185 351 c 0,24,25
 185 366 185 366 189 383 c 0,26,27
 204 446 204 446 261 483 c 0,28,29
 319 519 319 519 400 519 c 0,30,31
 492 519 492 519 555 482 c 2,32,-1
 557 480 l 1,33,-1
 513 407 l 1,34,-1
 511 408 l 2,35,36
 452 440 452 440 386 440 c 0,37,38
 284 440 284 440 268 374 c 0,39,40
 266 365 266 365 266 357 c 0,41,42
 266 304 266 304 364 304 c 0,43,44
 365 304 365 304 366 304 c 2,45,-1
 435 304 l 1,46,-1
 416 225 l 1,0,-1
EndSplineSet
Validated: 1
EndChar
StartChar: zeta
Encoding: 950 950 400
Width: 600
GlyphClass: 2
Flags: W
LayerCount: 2
Fore
SplineSet
272 760 m 1,0,-1
 636 760 l 1,1,-1
 619 687 l 1,2,3
 418 547 418 547 327 452 c 0,4,5
 237 357 237 357 208 233 c 0,6,7
 202 205 202 205 202 185.5 c 128,-1,8
 202 166 202 166 206 152.5 c 128,-1,9
 210 139 210 139 219 130 c 0,10,11
 247 99 247 99 339 80 c 0,12,13
 410 65 410 65 437 41 c 0,14,15
 456 24 456 24 455 -7 c 0,16,17
 455 -22 455 -22 451 -40 c 0,18,19
 434 -113 434 -113 361 -196 c 1,20,-1
 281 -196 l 1,21,22
 319 -153 319 -153 339.5 -121 c 128,-1,23
 360 -89 360 -89 365 -66 c 0,24,25
 367 -59 367 -59 367 -53 c 0,26,27
 367 -36 367 -36 354 -25 c 0,28,29
 336 -10 336 -10 257 5 c 0,30,31
 163 22 163 22 130 77 c 0,32,33
 111 109 111 109 112 156 c 0,34,35
 112 189 112 189 121 230 c 0,36,37
 150 355 150 355 244 463 c 0,38,39
 337 568 337 568 521 685 c 1,40,41
 434 680 434 680 378 680 c 2,42,-1
 253 680 l 1,43,-1
 272 760 l 1,0,-1
EndSplineSet
Validated: 33
EndChar
StartChar: eta
Encoding: 951 951 401
Width: 1229
GlyphClass: 2
Flags: W
LayerCount: 2
Fore
SplineSet
941.415039062 659.870117188 m 2,0,1
 954.125 714.266601562 954.125 714.266601562 954.125 756.479492188 c 0,2,3
 954.125 854.1171875 954.125 854.1171875 886.228200163 885.9765625 c 0,4,5
 851.12853568 902 851.12853568 902 797.742081638 902 c 0,6,7
 531.2578125 902 531.2578125 902 443.159179688 526.94921875 c 2,8,-1
 306.267578125 -19 l 1,9,-1
 134 -19 l 1,10,-1
 391.306640625 1043 l 1,11,-1
 531.637695312 1043 l 1,12,-1
 521.637695312 896 l 1,13,-1
 522.814453125 896 l 1,14,15
 654.455877242 1063 654.455877242 1063 863.586982498 1063 c 0,16,17
 1134.29980469 1063 1134.29980469 1063 1134.29980469 818.818359375 c 0,18,19
 1134.29980469 754.168945312 1134.29980469 754.168945312 1115.15820312 672.38671875 c 2,20,-1
 843.494922558 -492 l 1,21,-1
 664.176428581 -492 l 1,22,-1
 941.415039062 659.870117188 l 2,0,1
EndSplineSet
EndChar
StartChar: theta
Encoding: 952 952 402
Width: 1229
GlyphClass: 2
Flags: W
LayerCount: 2
Fore
SplineSet
1126.87207031 726.165039062 m 0,0,1
 952.977539062 -20 952.977539062 -20 532.945744106 -20 c 0,2,3
 329.297851562 -20 329.297851562 -20 269.716796875 173.5625 c 0,4,5
 245.651367188 251.744140625 245.651367188 251.744140625 245.651367188 358.74609375 c 0,6,7
 245.651367188 513.709960938 245.651367188 513.709960938 296.12890625 729.413085938 c 0,8,9
 384.373046875 1107.58203125 384.373046875 1107.58203125 527.273620229 1290.59277344 c 0,10,11
 672.668262824 1475 672.668262824 1475 885.984490281 1475 c 0,12,13
 1112.52441406 1475 1112.52441406 1475 1162.54199219 1239.390625 c 0,14,15
 1176.34277344 1174.37988281 1176.34277344 1174.37988281 1176.34277344 1092.59960938 c 0,16,17
 1176.34277344 939.211914062 1176.34277344 939.211914062 1126.87207031 726.165039062 c 0,0,1
970.927734375 812 m 1,18,19
 1005.77929688 978.109375 1005.77929688 978.109375 1005.77929688 1088.59082031 c 0,20,21
 1005.77929688 1146.27441406 1005.77929688 1146.27441406 996.611328125 1188.94628906 c 0,22,23
 969.958984375 1313 969.958984375 1313 850.981410111 1313 c 0,24,25
 731.086342036 1313 731.086342036 1313 644.610436521 1190.17089844 c 0,26,27
 558.159513934 1068.97949219 558.159513934 1068.97949219 489.447265625 812 c 1,28,-1
 970.927734375 812 l 1,18,19
936.604492188 665 m 1,29,-1
 455.053710938 665 l 1,30,31
 415.286132812 478.159179688 415.286132812 478.159179688 415.286132812 359.479492188 c 0,32,33
 415.286132812 305.880859375 415.286132812 305.880859375 423.400390625 266.302734375 c 0,34,35
 449.087890625 141 449.087890625 141 568.761269081 141 c 0,36,37
 690.895806784 141 690.895806784 141 778.397011646 265.616210938 c 128,-1,38
 865.928196022 390.27734375 865.928196022 390.27734375 936.604492188 665 c 1,29,-1
EndSplineSet
EndChar
StartChar: iota
Encoding: 953 953 403
Width: 1229
GlyphClass: 2
Flags: W
LayerCount: 2
Fore
SplineSet
613.875 314.938476562 m 2,0,1
 605.478515625 278.555664062 605.478515625 278.555664062 605.478515625 249.68359375 c 0,2,3
 605.478515625 139 605.478515625 139 732 139 c 0,4,5
 827.447265625 139 827.447265625 139 916.912109375 158.880859375 c 2,6,-1
 924.619140625 160.59375 l 1,7,-1
 891.275390625 13.2333984375 l 1,8,9
 799.883789062 -20 799.883789062 -20 685 -20 c 0,10,11
 426.540039062 -20 426.540039062 -20 426.540039062 196.030273438 c 0,12,13
 426.540039062 247.01171875 426.540039062 247.01171875 441.127929688 310.0234375 c 2,14,-1
 612.022460938 1043 l 1,15,-1
 784.291015625 1043 l 1,16,-1
 613.875 314.938476562 l 2,0,1
EndSplineSet
EndChar
StartChar: lambda
Encoding: 955 955 405
Width: 1229
GlyphClass: 2
Flags: W
LayerCount: 2
Fore
SplineSet
225.819335938 -0 m 1,0,-1
 53 -0 l 1,1,-1
 746.473054968 1079.31152344 l 1,2,-1
 737.387386856 1237.75683594 l 2,3,4
 732.369215173 1340.15722656 732.369215173 1340.15722656 704.591579258 1374.578125 c 128,-1,5
 676.812947873 1409 676.812947873 1409 616.077242511 1409 c 0,6,7
 567.834704106 1409 567.834704106 1409 523.638757227 1397.17578125 c 2,8,-1
 515.379330436 1394.96582031 l 1,9,-1
 552.676660023 1551.00878906 l 1,10,11
 617.404205982 1569 617.404205982 1569 671.122832947 1569 c 0,12,13
 797.176398849 1569 797.176398849 1569 844.69921875 1499.29003906 c 0,14,15
 890.971679688 1430.64453125 890.971679688 1430.64453125 902.04296875 1218.26757812 c 2,16,-1
 954.04296875 244.297851562 l 2,17,18
 959.787109375 139 959.787109375 139 1010.04980469 139 c 0,19,20
 1034.20898438 139 1034.20898438 139 1062.421875 148.728515625 c 2,21,-1
 1070.97460938 151.677734375 l 1,22,-1
 1037.40429688 7.6494140625 l 1,23,24
 985.294921875 -20 985.294921875 -20 929.049804688 -20 c 0,25,26
 856.447265625 -20 856.447265625 -20 827.28515625 21.6611328125 c 0,27,28
 797.597483281 63.322265625 797.597483281 63.322265625 793.452340077 151.76953125 c 2,29,-1
 774.084447146 569.762695312 l 2,30,31
 768.083745122 695.734375 768.083745122 695.734375 768.08274965 789.930664062 c 0,32,33
 768.08274965 847.069335938 768.08274965 847.069335938 770.291700843 892.501953125 c 1,34,35
 706.525780326 758.01953125 706.525780326 758.01953125 595.936863719 582.352539062 c 1,36,-1
 225.819335938 -0 l 1,0,-1
EndSplineSet
EndChar
StartChar: uni03BC
Encoding: 956 956 406
Width: 600
GlyphClass: 2
Flags: W
LayerCount: 2
Fore
SplineSet
397 71 m 1,0,1
 336 -10 336 -10 249 -10 c 0,2,3
 180 -10 180 -10 156 29 c 1,4,5
 142 -41 142 -41 133 -82 c 2,6,-1
 96 -240 l 1,7,-1
 12 -240 l 1,8,-1
 186 509 l 1,9,-1
 270 509 l 1,10,-1
 194 184 l 2,11,12
 188 158 188 158 188 139 c 0,13,14
 188 69 188 69 264 69 c 0,15,16
 331 69 331 69 372 110.5 c 128,-1,17
 413 152 413 152 435 248 c 2,18,-1
 498 509 l 1,19,-1
 582 509 l 1,20,-1
 462 0 l 1,21,-1
 393 0 l 1,22,-1
 398 71 l 1,23,-1
 397 71 l 1,0,1
EndSplineSet
Validated: 1
EndChar
StartChar: nu
Encoding: 957 957 407
Width: 600
GlyphClass: 2
Flags: W
LayerCount: 2
Fore
SplineSet
144 509 m 1,0,-1
 227 509 l 1,1,-1
 259 238 l 2,2,3
 272 123 272 123 272 84 c 0,4,5
 272 80 272 80 272 76 c 1,6,7
 355 150 355 150 410.5 244 c 128,-1,8
 466 338 466 338 506 509 c 1,9,-1
 590 509 l 1,10,-1
 590 506 l 2,11,12
 551 338 551 338 481 225 c 0,13,14
 410 112 410 112 285 0 c 1,15,-1
 203 0 l 1,16,-1
 144 509 l 1,0,-1
EndSplineSet
Validated: 1
EndChar
StartChar: xi
Encoding: 958 958 408
Width: 600
GlyphClass: 2
Flags: W
LayerCount: 2
Fore
SplineSet
309 649 m 0,0,1
 341 669 341 669 389 684 c 1,2,3
 326 680 326 680 287 680 c 2,4,-1
 257 680 l 1,5,-1
 276 760 l 1,6,-1
 609 760 l 1,7,-1
 590 680 l 1,8,-1
 560 680 l 2,9,10
 469 680 469 680 397 641 c 0,11,12
 326 602 326 602 309 536 c 0,13,14
 305 522 305 522 305.5 508 c 128,-1,15
 306 494 306 494 311.5 482 c 128,-1,16
 317 470 317 470 328 462 c 128,-1,17
 339 454 339 454 356 449 c 0,18,19
 389 438 389 438 444 438 c 2,20,-1
 528 438 l 1,21,-1
 512 366 l 1,22,-1
 424 366 l 2,23,24
 336 366 336 366 280 327 c 0,25,26
 225 288 225 288 208 216 c 0,27,28
 203 194 203 194 203 177 c 128,-1,29
 203 160 203 160 208 147 c 0,30,31
 218 122 218 122 244 109 c 0,32,33
 270 95 270 95 343 80 c 0,34,35
 410 66 410 66 438 41 c 0,36,37
 457 24 457 24 457 -8 c 0,38,39
 457 -23 457 -23 453 -40 c 0,40,41
 436 -113 436 -113 362 -196 c 1,42,-1
 282 -196 l 1,43,-1
 285 -192 l 2,44,45
 355 -113 355 -113 366 -65 c 0,46,47
 367 -59 367 -59 368 -53 c 0,48,49
 368 -37 368 -37 356 -25 c 0,50,51
 339 -10 339 -10 262 4 c 0,52,53
 113 31 113 31 113 151 c 0,54,55
 113 177 113 177 120 207 c 0,56,57
 135 272 135 272 180 323.5 c 128,-1,58
 225 375 225 375 288 396 c 1,59,-1
 288 398 l 1,60,61
 254 410 254 410 237 433 c 0,62,63
 220 456 220 456 221 491 c 0,64,65
 221 511 221 511 226 535 c 0,66,67
 243 609 243 609 309 649 c 0,0,1
EndSplineSet
Validated: 33
EndChar
StartChar: pi
Encoding: 960 960 410
Width: 1229
GlyphClass: 2
Flags: W
LayerCount: 2
Fore
SplineSet
1047.28692111 7.6044921875 m 1,0,1
 992.254343516 -20 992.254343516 -20 914.805166621 -20 c 0,2,3
 754.431941823 -20 754.431941823 -20 754.431941823 123 c 0,4,5
 754.431941823 166.59765625 754.431941823 166.59765625 767.562302335 222.625 c 2,6,-1
 921.626919422 879 l 1,7,-1
 581.416688008 879 l 1,8,-1
 374.264648438 -0 l 1,9,-1
 202 -0 l 1,10,-1
 407 879 l 1,11,-1
 217.004882812 879 l 1,12,-1
 235.895507812 961.2265625 l 1,13,-1
 375.931640625 1043 l 1,14,-1
 1314.58984375 1043 l 1,15,-1
 1276.25195312 879 l 1,16,-1
 1097.25976562 879 l 1,17,-1
 947.198815124 248.39453125 l 2,18,19
 940.20435972 218.970703125 940.20435972 218.970703125 940.20435972 197.34765625 c 0,20,21
 940.20435972 167.265625 940.20435972 167.265625 953.148122019 153.1328125 c 128,-1,22
 966.090891773 139 966.090891773 139 993.065251713 139 c 0,23,24
 1032.57047577 139 1032.57047577 139 1074.13964844 158.516601562 c 2,25,-1
 1083.48730469 162.967773438 l 1,26,-1
 1047.28692111 7.6044921875 l 1,0,1
EndSplineSet
EndChar
StartChar: rho
Encoding: 961 961 411
Width: 600
GlyphClass: 2
Flags: W
LayerCount: 2
Fore
SplineSet
128 -96 m 2,0,-1
 95 -240 l 1,1,-1
 11 -240 l 1,2,-1
 126 251 l 2,3,4
 155 375 155 375 227 447 c 128,-1,5
 299 519 299 519 394 519 c 0,6,7
 483 519 483 519 520 447 c 0,8,9
 541 407 541 407 541 350 c 0,10,11
 541 307 541 307 528 255 c 0,12,13
 499 130 499 130 430 60 c 0,14,15
 360 -10 360 -10 268 -10 c 0,16,17
 196 -10 196 -10 157 34 c 1,18,19
 139 -49 139 -49 128 -96 c 2,0,-1
442 256 m 0,20,21
 455 310 455 310 455 348 c 0,22,23
 455 376 455 376 448 395 c 0,24,25
 432 440 432 440 373 440 c 0,26,27
 256 440 256 440 214 264 c 2,28,-1
 177 112 l 1,29,30
 213 69 213 69 284 69 c 0,31,32
 344 69 344 69 382 116 c 128,-1,33
 420 163 420 163 442 256 c 0,20,21
EndSplineSet
Validated: 1
EndChar
StartChar: sigma1
Encoding: 962 962 412
Width: 1229
GlyphClass: 2
Flags: W
LayerCount: 2
Fore
SplineSet
733.814158306 -401 m 1,0,-1
 572.822281829 -401 l 1,1,-1
 580.417011112 -392.674804688 l 2,2,3
 722.782719114 -236.614257812 722.782719114 -236.614257812 745.9964957 -141.903320312 c 0,4,5
 748.595008048 -130.568359375 748.595008048 -130.568359375 748.595008048 -120.71875 c 128,-1,6
 748.595008048 -110.870117188 748.595008048 -110.870117188 746.258245118 -102.4453125 c 128,-1,7
 743.922481232 -94.021484375 743.922481232 -94.021484375 739.164036668 -86.6474609375 c 0,8,9
 729.689107371 -71.9658203125 729.689107371 -71.9658203125 710.149813066 -61.3759765625 c 0,10,11
 659.179608742 -33.7509765625 659.179608742 -33.7509765625 521.885045943 -6.91015625 c 0,12,13
 239.137695312 46.7412109375 239.137695312 46.7412109375 239.137695312 319.795898438 c 0,14,15
 239.137695312 394.060546875 239.137695312 394.060546875 260.127929688 484.53515625 c 0,16,17
 395.022460938 1063 395.022460938 1063 901.37174918 1063 c 0,18,19
 1046.13867188 1063 1046.13867188 1063 1170.15820312 1003.51074219 c 2,20,-1
 1175.05078125 1001.1640625 l 1,21,-1
 1079.05664062 836.602539062 l 1,22,23
 952.931640625 893 952.931640625 893 854.312800465 893 c 0,24,25
 694.680622298 893 694.680622298 893 590.149693652 789.939453125 c 128,-1,26
 485.617765962 686.879882812 485.617765962 686.879882812 436.874023438 479.241210938 c 0,27,28
 418.924804688 401.694335938 418.924804688 401.694335938 418.924804688 346.188476562 c 0,29,30
 418.924804688 276.821289062 418.924804688 276.821289062 446.89453125 242.490234375 c 0,31,32
 498.076838428 180.030273438 498.076838428 180.030273438 657.944790879 146.752929688 c 0,33,34
 925.942226946 91.203125 925.942226946 91.203125 925.942226946 -55.9228515625 c 0,35,36
 925.942226946 -76.6611328125 925.942226946 -76.6611328125 920.671273026 -99.15625 c 0,37,38
 887.631902847 -235.404296875 887.631902847 -235.404296875 733.814158306 -401 c 1,0,-1
EndSplineSet
EndChar
StartChar: sigma
Encoding: 963 963 413
Width: 600
GlyphClass: 2
Flags: W
LayerCount: 2
Fore
SplineSet
495 429 m 1,0,1
 532 369 532 369 532 299 c 0,2,3
 532 266 532 266 523 231 c 0,4,5
 498 123 498 123 428 56 c 0,6,7
 356 -10 356 -10 258 -10 c 0,8,9
 162 -10 162 -10 122 57 c 0,10,11
 99 96 99 96 99 154 c 0,12,13
 99 194 99 194 110 243 c 0,14,15
 172 509 172 509 415 509 c 2,16,-1
 625 509 l 1,17,-1
 606 429 l 1,18,-1
 495 429 l 1,0,1
420 429 m 1,19,-1
 397 429 l 2,20,21
 313 429 313 429 267 386 c 128,-1,22
 221 343 221 343 197 242 c 0,23,24
 188 202 188 202 188 170 c 128,-1,25
 188 138 188 138 199 114 c 0,26,27
 219 69 219 69 277.5 69 c 128,-1,28
 336 69 336 69 377 111 c 0,29,30
 418 153 418 153 437 231 c 0,31,32
 448 277 448 277 447 317 c 0,33,34
 447 380 447 380 420 429 c 1,19,-1
EndSplineSet
Validated: 33
EndChar
StartChar: tau
Encoding: 964 964 414
Width: 600
GlyphClass: 2
Flags: W
LayerCount: 2
Fore
SplineSet
299 155 m 2,0,1
 294 135 294 135 295 120 c 0,2,3
 295 60 295 60 363 60 c 0,4,5
 408 60 408 60 446 69 c 2,6,-1
 450 70 l 1,7,-1
 434 3 l 1,8,9
 392 -14 392 -14 332 -13 c 0,10,11
 204 -13 204 -13 205 92 c 0,12,13
 205 117 205 117 212 147 c 2,14,-1
 278 429 l 1,15,-1
 145 429 l 1,16,-1
 154 469 l 1,17,-1
 221 509 l 1,18,-1
 583 509 l 1,19,-1
 565 429 l 1,20,-1
 364 429 l 1,21,-1
 299 155 l 2,0,1
EndSplineSet
Validated: 33
EndChar
